<svg id="svg" version="1.1" xmlns="http://www.w3.org/2000/svg" xmlns:xlink="http://www.w3.org/1999/xlink" width="400" height="400" viewBox="0, 0, 400,400"><g id="svgg"><path id="path0" d="M375.900 0.287 C 375.295 0.378,374.800 0.621,374.800 0.827 C 374.800 1.032,374.260 1.200,373.600 1.200 C 372.940 1.200,372.400 1.380,372.400 1.600 C 372.400 1.820,371.860 2.000,371.200 2.000 C 370.540 2.000,370.000 2.180,370.000 2.400 C 370.000 2.620,369.460 2.800,368.800 2.800 C 368.140 2.800,367.600 2.980,367.600 3.200 C 367.600 3.420,367.060 3.600,366.400 3.600 C 365.740 3.600,365.200 3.780,365.200 4.000 C 365.200 4.220,364.840 4.400,364.400 4.400 C 363.960 4.400,363.600 4.580,363.600 4.800 C 363.600 5.020,363.060 5.200,362.400 5.200 C 361.740 5.200,361.200 5.380,361.200 5.600 C 361.200 5.820,360.750 6.000,360.200 6.000 C 359.650 6.000,359.200 6.180,359.200 6.400 C 359.200 6.620,358.840 6.800,358.400 6.800 C 357.960 6.800,357.600 6.980,357.600 7.200 C 357.600 7.420,357.060 7.600,356.400 7.600 C 355.740 7.600,355.200 7.764,355.200 7.965 C 355.200 8.166,354.480 8.451,353.600 8.600 C 352.720 8.749,352.000 9.034,352.000 9.235 C 352.000 9.436,351.561 9.600,351.024 9.600 C 350.487 9.600,349.936 9.780,349.800 10.000 C 349.664 10.220,349.203 10.400,348.776 10.400 C 348.349 10.400,348.000 10.580,348.000 10.800 C 348.000 11.020,347.665 11.200,347.256 11.200 C 346.454 11.200,341.487 13.605,341.267 14.100 C 341.193 14.265,340.608 14.400,339.967 14.400 C 339.325 14.400,338.800 14.580,338.800 14.800 C 338.800 15.020,338.440 15.200,338.000 15.200 C 337.560 15.200,337.200 15.380,337.200 15.600 C 337.200 15.820,336.840 16.000,336.400 16.000 C 335.960 16.000,335.600 16.180,335.600 16.400 C 335.600 16.620,335.240 16.800,334.800 16.800 C 334.360 16.800,334.000 16.980,334.000 17.200 C 334.000 17.420,333.640 17.600,333.200 17.600 C 332.760 17.600,332.400 17.780,332.400 18.000 C 332.400 18.220,332.040 18.400,331.600 18.400 C 331.160 18.400,330.800 18.580,330.800 18.800 C 330.800 19.020,330.440 19.200,330.000 19.200 C 329.560 19.200,329.200 19.380,329.200 19.600 C 329.200 19.820,328.876 20.000,328.480 20.000 C 327.586 20.000,325.607 20.894,325.603 21.300 C 325.601 21.465,325.240 21.600,324.800 21.600 C 324.360 21.600,324.000 21.780,324.000 22.000 C 324.000 22.220,323.640 22.400,323.200 22.400 C 322.760 22.400,322.400 22.580,322.400 22.800 C 322.400 23.020,322.080 23.200,321.688 23.200 C 321.297 23.200,320.717 23.560,320.400 24.000 C 320.083 24.440,319.548 24.801,319.212 24.802 C 318.875 24.803,317.714 25.253,316.632 25.802 C 315.550 26.351,314.440 26.800,314.166 26.800 C 313.891 26.800,313.607 26.935,313.533 27.100 C 313.460 27.265,312.500 27.847,311.400 28.393 C 310.300 28.939,309.109 29.704,308.753 30.093 C 308.397 30.482,307.812 30.800,307.453 30.800 C 307.094 30.800,306.800 30.980,306.800 31.200 C 306.800 31.420,306.440 31.600,306.000 31.600 C 305.560 31.600,305.200 31.780,305.200 32.000 C 305.200 32.220,304.880 32.400,304.488 32.400 C 304.097 32.400,303.517 32.760,303.200 33.200 C 302.883 33.640,302.303 34.000,301.912 34.000 C 301.520 34.000,301.200 34.180,301.200 34.400 C 301.200 34.620,300.880 34.800,300.488 34.800 C 300.097 34.800,299.517 35.160,299.200 35.600 C 298.883 36.040,298.303 36.400,297.912 36.400 C 297.520 36.400,297.200 36.580,297.200 36.800 C 297.200 37.020,296.880 37.200,296.488 37.200 C 296.097 37.200,295.517 37.560,295.200 38.000 C 294.883 38.440,294.343 38.800,294.000 38.800 C 293.657 38.800,293.117 39.160,292.800 39.600 C 292.483 40.040,291.993 40.400,291.712 40.400 C 291.430 40.400,291.200 40.580,291.200 40.800 C 291.200 41.020,290.840 41.200,290.400 41.200 C 289.960 41.200,289.600 41.353,289.600 41.539 C 289.600 41.726,288.880 42.203,288.000 42.600 C 287.120 42.997,286.400 43.474,286.400 43.661 C 286.400 43.847,286.157 44.000,285.859 44.000 C 285.562 44.000,284.754 44.540,284.063 45.200 C 283.372 45.860,282.575 46.400,282.292 46.400 C 282.009 46.400,281.517 46.760,281.200 47.200 C 280.883 47.640,280.420 48.000,280.171 48.000 C 279.922 48.000,279.154 48.540,278.463 49.200 C 277.772 49.860,277.054 50.400,276.866 50.400 C 276.678 50.400,276.198 50.760,275.800 51.200 C 275.402 51.640,274.910 52.000,274.707 52.000 C 274.503 52.000,273.646 52.720,272.800 53.600 C 271.954 54.480,271.054 55.200,270.800 55.200 C 270.546 55.200,269.646 55.920,268.800 56.800 C 267.954 57.680,267.011 58.400,266.703 58.400 C 266.395 58.400,265.298 59.210,264.265 60.200 C 263.231 61.190,262.265 62.000,262.116 62.000 C 261.968 62.000,258.924 64.925,255.352 68.500 C 251.781 72.075,247.570 76.253,245.996 77.784 C 244.422 79.315,242.857 81.102,242.519 81.756 C 242.181 82.410,241.026 83.801,239.952 84.847 C 238.879 85.892,238.000 86.954,238.000 87.205 C 238.000 87.457,237.280 88.354,236.400 89.200 C 235.520 90.046,234.800 91.021,234.800 91.369 C 234.800 91.716,234.622 92.000,234.403 92.000 C 233.928 92.000,231.600 94.374,231.600 94.859 C 231.600 95.046,230.880 95.941,230.000 96.848 C 229.120 97.755,228.400 98.656,228.400 98.852 C 228.400 99.047,227.860 99.772,227.200 100.463 C 226.540 101.154,226.000 101.880,226.000 102.076 C 226.000 102.455,225.561 103.039,224.100 104.601 C 223.605 105.130,223.200 105.770,223.200 106.021 C 223.200 106.273,222.660 106.983,222.000 107.600 C 221.340 108.217,220.800 108.830,220.800 108.964 C 220.800 109.098,220.260 109.772,219.600 110.463 C 218.940 111.154,218.400 111.890,218.400 112.099 C 218.400 112.308,217.860 112.983,217.200 113.600 C 216.540 114.217,216.000 114.937,216.000 115.200 C 216.000 115.463,215.460 116.183,214.800 116.800 C 214.140 117.417,213.600 118.137,213.600 118.400 C 213.600 118.663,213.060 119.383,212.400 120.000 C 211.740 120.617,211.200 121.327,211.200 121.579 C 211.200 121.830,210.750 122.486,210.200 123.036 C 209.650 123.586,209.200 124.163,209.199 124.318 C 209.199 124.473,208.659 125.230,208.000 126.000 C 207.341 126.770,206.801 127.553,206.801 127.740 C 206.800 127.926,206.260 128.583,205.600 129.200 C 204.940 129.817,204.400 130.537,204.400 130.800 C 204.400 131.063,203.860 131.783,203.200 132.400 C 202.540 133.017,202.000 133.733,202.000 133.992 C 202.000 134.251,201.280 135.154,200.400 136.000 C 199.520 136.846,198.800 137.746,198.800 138.000 C 198.800 138.254,198.080 139.154,197.200 140.000 C 196.320 140.846,195.600 141.698,195.600 141.894 C 195.600 142.090,195.044 142.779,194.364 143.425 C 193.685 144.071,192.848 145.138,192.505 145.795 C 192.162 146.452,191.368 147.469,190.741 148.055 C 190.113 148.642,189.600 149.329,189.600 149.583 C 189.600 149.837,188.520 151.104,187.200 152.400 C 185.880 153.696,184.800 154.959,184.800 155.208 C 184.800 155.457,183.540 156.869,182.000 158.346 C 180.460 159.823,179.200 161.153,179.200 161.301 C 179.200 161.810,169.759 171.512,162.344 178.624 C 160.725 180.176,158.770 182.197,158.000 183.114 C 157.230 184.032,156.373 184.786,156.095 184.791 C 155.817 184.796,153.894 186.465,151.821 188.500 C 147.544 192.698,146.974 193.200,146.481 193.200 C 146.287 193.200,144.405 195.000,142.298 197.200 C 140.191 199.400,138.265 201.200,138.018 201.200 C 137.771 201.200,135.963 202.820,134.000 204.800 C 132.037 206.780,130.197 208.400,129.912 208.400 C 129.626 208.400,127.908 209.930,126.093 211.800 C 123.010 214.976,120.800 216.228,120.800 214.800 C 120.800 214.580,120.080 214.400,119.200 214.400 C 118.320 214.400,117.600 214.220,117.600 214.000 C 117.600 213.472,110.926 213.472,110.600 214.000 C 110.464 214.220,109.913 214.400,109.376 214.400 C 108.839 214.400,108.400 214.580,108.400 214.800 C 108.400 215.020,107.900 215.200,107.288 215.200 C 106.635 215.200,105.939 215.530,105.600 216.000 C 105.283 216.440,104.792 216.800,104.509 216.800 C 103.894 216.800,88.800 231.798,88.800 232.410 C 88.800 232.643,87.360 234.259,85.600 236.000 C 83.840 237.741,82.400 239.443,82.400 239.783 C 82.400 240.122,82.220 240.400,82.000 240.400 C 81.780 240.400,81.600 240.760,81.600 241.200 C 81.600 241.640,81.420 242.000,81.200 242.000 C 80.980 242.000,80.800 242.270,80.800 242.600 C 80.800 242.930,80.620 243.200,80.400 243.200 C 80.180 243.200,80.000 243.560,80.000 244.000 C 80.000 244.440,79.820 244.800,79.600 244.800 C 79.380 244.800,79.200 245.149,79.200 245.576 C 79.200 246.003,79.020 246.464,78.800 246.600 C 78.580 246.736,78.400 247.467,78.400 248.224 C 78.400 248.981,78.220 249.600,78.000 249.600 C 77.780 249.600,77.600 250.320,77.600 251.200 C 77.600 252.080,77.420 252.800,77.200 252.800 C 76.980 252.800,76.800 253.689,76.800 254.776 C 76.800 255.863,76.620 256.864,76.400 257.000 C 75.832 257.351,75.862 276.102,76.431 276.671 C 77.081 277.321,76.704 279.260,75.831 279.760 C 74.628 280.449,44.051 311.014,42.967 312.610 C 42.435 313.394,42.000 314.298,42.000 314.618 C 42.000 314.938,41.820 315.200,41.600 315.200 C 41.380 315.200,41.200 315.740,41.200 316.400 C 41.200 317.467,41.067 317.600,40.000 317.600 C 39.340 317.600,38.800 317.780,38.800 318.000 C 38.800 318.229,37.600 318.400,36.000 318.400 C 34.400 318.400,33.200 318.571,33.200 318.800 C 33.200 319.020,32.480 319.200,31.600 319.200 C 30.720 319.200,30.000 319.380,30.000 319.600 C 30.000 319.820,29.561 320.000,29.024 320.000 C 28.487 320.000,27.936 320.180,27.800 320.400 C 27.664 320.620,27.203 320.800,26.776 320.800 C 26.349 320.800,26.000 320.980,26.000 321.200 C 26.000 321.420,25.730 321.600,25.400 321.600 C 25.070 321.600,24.800 321.780,24.800 322.000 C 24.800 322.220,24.440 322.400,24.000 322.400 C 23.560 322.400,23.200 322.580,23.200 322.800 C 23.200 323.020,22.840 323.200,22.400 323.200 C 21.960 323.200,21.600 323.380,21.600 323.600 C 21.600 323.820,21.240 324.000,20.800 324.000 C 20.360 324.000,20.000 324.158,20.000 324.351 C 20.000 324.545,19.433 324.938,18.740 325.225 C 18.047 325.512,16.883 326.344,16.153 327.073 C 15.424 327.803,14.674 328.400,14.488 328.400 C 14.082 328.400,12.000 330.521,12.000 330.935 C 12.000 331.096,11.403 331.824,10.673 332.553 C 9.944 333.283,9.112 334.447,8.825 335.140 C 8.538 335.833,8.145 336.400,7.951 336.400 C 7.758 336.400,7.600 336.720,7.600 337.112 C 7.600 337.503,7.240 338.083,6.800 338.400 C 6.360 338.717,6.000 339.297,6.000 339.688 C 6.000 340.080,5.820 340.400,5.600 340.400 C 5.380 340.400,5.200 340.760,5.200 341.200 C 5.200 341.640,5.020 342.000,4.800 342.000 C 4.580 342.000,4.400 342.450,4.400 343.000 C 4.400 343.550,4.220 344.000,4.000 344.000 C 3.780 344.000,3.600 344.540,3.600 345.200 C 3.600 345.860,3.420 346.400,3.200 346.400 C 2.980 346.400,2.800 346.940,2.800 347.600 C 2.800 348.260,2.620 348.800,2.400 348.800 C 2.178 348.800,2.000 349.867,2.000 351.200 C 2.000 352.533,1.822 353.600,1.600 353.600 C 1.352 353.600,1.200 355.800,1.200 359.400 C 1.200 363.000,1.352 365.200,1.600 365.200 C 1.820 365.200,2.000 366.100,2.000 367.200 C 2.000 368.300,2.180 369.200,2.400 369.200 C 2.620 369.200,2.800 369.920,2.800 370.800 C 2.800 371.680,2.980 372.400,3.200 372.400 C 3.420 372.400,3.600 372.850,3.600 373.400 C 3.600 373.950,3.780 374.400,4.000 374.400 C 4.220 374.400,4.400 374.760,4.400 375.200 C 4.400 375.640,4.580 376.000,4.800 376.000 C 5.020 376.000,5.200 376.500,5.200 377.112 C 5.200 377.765,5.530 378.461,6.000 378.800 C 6.440 379.117,6.800 379.697,6.800 380.088 C 6.800 380.480,6.980 380.800,7.200 380.800 C 7.420 380.800,7.600 381.160,7.600 381.600 C 7.600 382.040,7.758 382.400,7.951 382.400 C 8.145 382.400,8.527 382.940,8.800 383.601 C 9.540 385.386,17.456 393.200,18.525 393.200 C 18.799 393.200,19.283 393.560,19.600 394.000 C 19.917 394.440,20.497 394.800,20.888 394.800 C 21.280 394.800,21.600 394.980,21.600 395.200 C 21.600 395.420,21.960 395.600,22.400 395.600 C 22.840 395.600,23.200 395.780,23.200 396.000 C 23.200 396.220,23.560 396.400,24.000 396.400 C 24.440 396.400,24.801 396.535,24.803 396.700 C 24.807 397.106,26.786 398.000,27.680 398.000 C 28.076 398.000,28.400 398.180,28.400 398.400 C 28.400 398.620,28.925 398.800,29.567 398.800 C 30.208 398.800,30.808 399.025,30.900 399.300 C 31.141 400.024,54.136 400.024,54.860 399.300 C 55.135 399.025,55.774 398.800,56.280 398.800 C 56.786 398.800,57.200 398.620,57.200 398.400 C 57.200 398.180,57.560 398.000,58.000 398.000 C 58.440 398.000,58.800 397.820,58.800 397.600 C 58.800 397.380,59.300 397.200,59.912 397.200 C 60.565 397.200,61.261 396.870,61.600 396.400 C 61.917 395.960,62.497 395.600,62.888 395.600 C 63.280 395.600,63.600 395.420,63.600 395.200 C 63.600 394.980,63.920 394.800,64.312 394.800 C 64.703 394.800,65.283 394.440,65.600 394.000 C 65.917 393.560,66.415 393.200,66.706 393.200 C 66.998 393.200,67.686 392.750,68.236 392.200 C 68.786 391.650,69.412 391.200,69.627 391.200 C 70.160 391.200,74.400 387.058,74.400 386.537 C 74.400 386.307,74.940 385.554,75.600 384.863 C 76.260 384.172,76.800 383.375,76.800 383.092 C 76.800 382.809,77.160 382.317,77.600 382.000 C 78.040 381.683,78.400 381.103,78.400 380.712 C 78.400 380.320,78.580 380.000,78.800 380.000 C 79.020 380.000,79.200 379.640,79.200 379.200 C 79.200 378.760,79.380 378.400,79.600 378.400 C 79.820 378.400,80.000 378.040,80.000 377.600 C 80.000 377.160,80.180 376.800,80.400 376.800 C 80.620 376.800,80.800 376.440,80.800 376.000 C 80.800 375.560,80.980 375.200,81.200 375.200 C 81.420 375.200,81.600 374.750,81.600 374.200 C 81.600 373.650,81.780 373.200,82.000 373.200 C 82.220 373.200,82.400 372.660,82.400 372.000 C 82.400 371.340,82.580 370.800,82.800 370.800 C 83.020 370.800,83.200 370.080,83.200 369.200 C 83.200 368.320,83.380 367.600,83.600 367.600 C 83.831 367.600,84.000 366.324,84.000 364.571 C 84.000 361.457,84.449 360.400,85.771 360.400 C 86.117 360.400,86.400 360.220,86.400 360.000 C 86.400 359.780,86.760 359.600,87.200 359.600 C 87.640 359.600,88.000 359.420,88.000 359.200 C 88.000 358.980,88.278 358.800,88.617 358.800 C 89.413 358.800,120.800 327.396,120.800 326.600 C 120.800 326.270,120.937 326.000,121.105 326.000 C 121.273 326.000,121.590 325.595,121.809 325.100 C 122.081 324.487,122.462 324.255,123.004 324.374 C 124.763 324.758,143.833 324.812,144.600 324.435 C 145.040 324.219,146.210 323.951,147.200 323.839 C 150.411 323.478,152.000 323.120,152.000 322.756 C 152.000 322.560,152.540 322.400,153.200 322.400 C 153.860 322.400,154.400 322.220,154.400 322.000 C 154.400 321.780,154.724 321.600,155.120 321.600 C 156.014 321.600,157.993 320.706,157.997 320.300 C 157.999 320.135,158.360 320.000,158.800 320.000 C 159.240 320.000,159.600 319.820,159.600 319.600 C 159.600 319.380,159.920 319.200,160.312 319.200 C 160.703 319.200,161.283 318.840,161.600 318.400 C 161.917 317.960,162.412 317.600,162.699 317.600 C 163.438 317.600,184.800 296.153,184.800 295.411 C 184.800 295.075,184.980 294.800,185.200 294.800 C 185.420 294.800,185.600 294.440,185.600 294.000 C 185.600 293.560,185.780 293.200,186.000 293.200 C 186.220 293.200,186.400 292.761,186.400 292.224 C 186.400 291.687,186.580 291.136,186.800 291.000 C 187.032 290.857,187.200 288.663,187.200 285.776 C 187.200 282.725,187.045 280.800,186.800 280.800 C 186.580 280.800,186.400 280.386,186.400 279.880 C 186.400 279.374,186.196 278.756,185.946 278.506 C 185.608 278.168,185.990 277.562,187.446 276.126 C 188.521 275.067,189.934 273.480,190.588 272.600 C 191.241 271.720,192.636 270.157,193.688 269.126 C 194.739 268.095,195.600 267.053,195.600 266.809 C 195.600 266.565,197.040 264.941,198.800 263.200 C 200.560 261.459,202.000 259.857,202.000 259.640 C 202.000 259.423,203.350 257.930,204.999 256.323 C 206.649 254.715,207.999 253.167,207.999 252.883 C 208.000 252.598,209.440 250.941,211.200 249.200 C 212.960 247.459,214.400 245.831,214.400 245.583 C 214.400 245.336,216.200 243.409,218.400 241.302 C 220.600 239.195,222.400 237.327,222.400 237.149 C 222.400 236.276,237.040 221.600,237.911 221.600 C 238.065 221.600,239.754 219.980,241.664 218.000 C 243.573 216.020,245.339 214.400,245.587 214.400 C 245.835 214.400,247.281 213.140,248.800 211.600 C 250.319 210.060,251.755 208.800,251.991 208.800 C 252.360 208.800,253.990 207.483,255.828 205.700 C 256.111 205.425,256.460 205.200,256.603 205.200 C 256.746 205.200,257.554 204.480,258.400 203.600 C 259.246 202.720,260.146 202.000,260.400 202.000 C 260.654 202.000,261.554 201.280,262.400 200.400 C 263.246 199.520,264.146 198.800,264.400 198.800 C 264.654 198.800,265.554 198.080,266.400 197.200 C 267.246 196.320,268.146 195.600,268.400 195.600 C 268.654 195.600,269.554 194.880,270.400 194.000 C 271.246 193.120,272.062 192.400,272.215 192.400 C 272.667 192.400,276.513 189.512,277.660 188.310 C 278.244 187.700,278.937 187.200,279.200 187.200 C 279.463 187.200,280.183 186.660,280.800 186.000 C 281.417 185.340,282.137 184.800,282.400 184.800 C 282.663 184.800,283.383 184.260,284.000 183.600 C 284.617 182.940,285.333 182.400,285.592 182.400 C 285.851 182.400,286.754 181.680,287.600 180.800 C 288.446 179.920,289.355 179.200,289.622 179.200 C 290.148 179.200,291.600 177.688,291.600 177.139 C 291.600 176.952,291.894 176.800,292.253 176.800 C 292.612 176.800,293.197 176.467,293.553 176.059 C 293.909 175.652,294.740 175.040,295.400 174.700 C 296.060 174.359,297.183 173.523,297.896 172.840 C 298.609 172.158,299.353 171.600,299.548 171.600 C 299.744 171.600,300.645 170.880,301.552 170.000 C 302.459 169.120,303.359 168.400,303.552 168.400 C 303.745 168.400,304.645 167.680,305.552 166.800 C 306.459 165.920,307.301 165.200,307.423 165.200 C 307.545 165.200,308.704 164.120,310.000 162.800 C 311.296 161.480,312.552 160.400,312.791 160.400 C 313.031 160.400,313.850 159.815,314.611 159.100 C 315.373 158.385,316.622 157.215,317.386 156.500 C 318.151 155.785,318.920 155.200,319.095 155.200 C 319.269 155.200,320.429 154.165,321.671 152.900 C 322.914 151.635,326.016 148.487,328.565 145.904 C 331.114 143.322,333.200 141.123,333.200 141.019 C 333.200 140.914,334.460 139.530,336.000 137.944 C 337.540 136.357,338.800 134.911,338.800 134.731 C 338.800 134.550,339.430 133.734,340.200 132.918 C 340.970 132.101,341.600 131.183,341.600 130.877 C 341.600 130.571,342.140 129.817,342.800 129.200 C 343.460 128.583,344.000 127.863,344.000 127.600 C 344.000 127.337,344.540 126.617,345.200 126.000 C 345.860 125.383,346.400 124.770,346.400 124.636 C 346.400 124.502,346.940 123.828,347.600 123.137 C 348.260 122.446,348.800 121.710,348.800 121.501 C 348.800 121.292,349.340 120.617,350.000 120.000 C 350.660 119.383,351.200 118.631,351.200 118.328 C 351.200 118.025,351.560 117.517,352.000 117.200 C 352.440 116.883,352.800 116.343,352.800 116.000 C 352.800 115.657,353.160 115.117,353.600 114.800 C 354.040 114.483,354.400 113.986,354.400 113.695 C 354.400 113.404,354.760 112.780,355.200 112.308 C 355.640 111.836,356.000 111.213,356.000 110.925 C 356.000 110.636,356.153 110.400,356.339 110.400 C 356.526 110.400,357.016 109.635,357.427 108.700 C 357.839 107.765,358.497 106.709,358.888 106.353 C 359.280 105.997,359.600 105.412,359.600 105.053 C 359.600 104.694,359.780 104.400,360.000 104.400 C 360.220 104.400,360.400 104.080,360.400 103.688 C 360.400 103.297,360.760 102.717,361.200 102.400 C 361.640 102.083,362.000 101.503,362.000 101.112 C 362.000 100.720,362.180 100.400,362.400 100.400 C 362.620 100.400,362.800 100.080,362.800 99.688 C 362.800 99.297,363.160 98.717,363.600 98.400 C 364.040 98.083,364.400 97.503,364.400 97.112 C 364.400 96.720,364.580 96.400,364.800 96.400 C 365.020 96.400,365.200 96.040,365.200 95.600 C 365.200 95.160,365.380 94.800,365.600 94.800 C 365.820 94.800,366.000 94.480,366.000 94.088 C 366.000 93.697,366.360 93.117,366.800 92.800 C 367.240 92.483,367.600 91.903,367.600 91.512 C 367.600 91.120,367.780 90.800,368.000 90.800 C 368.220 90.800,368.400 90.530,368.400 90.200 C 368.400 89.870,368.580 89.600,368.800 89.600 C 369.020 89.600,369.200 89.240,369.200 88.800 C 369.200 88.360,369.380 88.000,369.600 88.000 C 369.820 88.000,370.000 87.640,370.000 87.200 C 370.000 86.760,370.180 86.400,370.400 86.400 C 370.620 86.400,370.800 86.040,370.800 85.600 C 370.800 85.160,370.960 84.800,371.156 84.800 C 371.576 84.800,375.200 77.438,375.200 76.585 C 375.200 76.263,375.380 76.000,375.600 76.000 C 375.820 76.000,376.000 75.640,376.000 75.200 C 376.000 74.760,376.135 74.399,376.300 74.397 C 376.706 74.393,377.600 72.414,377.600 71.520 C 377.600 71.124,377.780 70.800,378.000 70.800 C 378.220 70.800,378.400 70.440,378.400 70.000 C 378.400 69.560,378.580 69.200,378.800 69.200 C 379.020 69.200,379.200 68.840,379.200 68.400 C 379.200 67.960,379.380 67.600,379.600 67.600 C 379.820 67.600,380.000 67.240,380.000 66.800 C 380.000 66.360,380.180 66.000,380.400 66.000 C 380.620 66.000,380.800 65.640,380.800 65.200 C 380.800 64.760,380.980 64.400,381.200 64.400 C 381.420 64.400,381.600 64.040,381.600 63.600 C 381.600 63.160,381.780 62.800,382.000 62.800 C 382.220 62.800,382.400 62.260,382.400 61.600 C 382.400 60.940,382.580 60.400,382.800 60.400 C 383.020 60.400,383.200 60.040,383.200 59.600 C 383.200 59.160,383.335 58.799,383.500 58.797 C 383.906 58.793,384.800 56.814,384.800 55.920 C 384.800 55.524,384.980 55.200,385.200 55.200 C 385.420 55.200,385.600 54.840,385.600 54.400 C 385.600 53.960,385.780 53.600,386.000 53.600 C 386.220 53.600,386.400 53.251,386.400 52.824 C 386.400 52.397,386.580 51.936,386.800 51.800 C 387.020 51.664,387.200 51.113,387.200 50.576 C 387.200 50.039,387.380 49.600,387.600 49.600 C 387.820 49.600,388.000 49.240,388.000 48.800 C 388.000 48.360,388.180 48.000,388.400 48.000 C 388.620 48.000,388.800 47.460,388.800 46.800 C 388.800 46.140,388.980 45.600,389.200 45.600 C 389.420 45.600,389.600 45.240,389.600 44.800 C 389.600 44.360,389.780 44.000,390.000 44.000 C 390.220 44.000,390.400 43.460,390.400 42.800 C 390.400 42.140,390.569 41.600,390.775 41.600 C 390.982 41.600,391.272 40.790,391.421 39.800 C 391.569 38.810,391.850 38.000,392.045 38.000 C 392.240 38.000,392.400 37.460,392.400 36.800 C 392.400 36.140,392.580 35.600,392.800 35.600 C 393.020 35.600,393.200 35.240,393.200 34.800 C 393.200 34.360,393.380 34.000,393.600 34.000 C 393.820 34.000,394.000 33.460,394.000 32.800 C 394.000 32.140,394.180 31.600,394.400 31.600 C 394.620 31.600,394.800 31.060,394.800 30.400 C 394.800 29.740,394.980 29.200,395.200 29.200 C 395.420 29.200,395.600 28.660,395.600 28.000 C 395.600 27.340,395.780 26.800,396.000 26.800 C 396.220 26.800,396.400 26.260,396.400 25.600 C 396.400 24.940,396.580 24.400,396.800 24.400 C 397.020 24.400,397.200 23.950,397.200 23.400 C 397.200 22.850,397.380 22.400,397.600 22.400 C 397.820 22.400,398.000 21.680,398.000 20.800 C 398.000 19.920,398.180 19.200,398.400 19.200 C 398.637 19.200,398.800 17.733,398.800 15.600 C 398.800 13.467,398.637 12.000,398.400 12.000 C 398.180 12.000,398.000 11.496,398.000 10.880 C 398.000 9.664,397.184 7.608,396.700 7.603 C 396.535 7.601,396.400 7.326,396.400 6.991 C 396.400 6.432,392.308 2.000,391.792 2.000 C 391.668 2.000,391.204 1.662,390.760 1.249 C 389.543 0.114,380.781 -0.453,375.900 0.287 M382.000 16.538 C 382.000 17.802,376.988 32.075,375.553 34.895 C 375.359 35.277,375.200 35.780,375.200 36.014 C 375.200 36.248,374.840 37.184,374.400 38.094 C 373.960 39.005,373.600 39.898,373.600 40.079 C 373.600 40.261,373.222 41.262,372.760 42.304 C 372.298 43.347,371.777 44.560,371.601 45.000 C 371.063 46.346,370.137 48.487,369.043 50.912 C 368.469 52.183,368.000 53.291,368.000 53.372 C 368.000 53.516,365.720 58.532,363.806 62.600 C 360.908 68.756,354.335 81.688,353.664 82.551 C 353.472 82.798,352.773 83.990,352.109 85.200 C 350.258 88.577,348.316 91.920,346.416 95.000 C 345.467 96.540,344.321 98.475,343.870 99.300 C 343.420 100.125,342.905 100.800,342.726 100.800 C 342.547 100.800,342.400 100.986,342.400 101.213 C 342.400 102.290,327.823 122.437,325.624 124.400 C 325.501 124.510,324.426 125.770,323.236 127.200 C 317.482 134.114,302.519 148.093,292.623 155.800 C 291.776 156.460,289.264 158.447,287.041 160.216 C 284.819 161.984,281.112 164.864,278.805 166.616 C 276.498 168.367,274.338 170.017,274.005 170.281 C 272.392 171.565,268.190 174.827,265.608 176.800 C 262.620 179.083,258.394 182.388,256.992 183.538 C 256.548 183.902,255.528 184.692,254.727 185.294 C 253.925 185.896,253.029 186.623,252.735 186.910 C 252.441 187.198,251.821 187.695,251.357 188.016 C 250.894 188.337,249.634 189.339,248.557 190.242 C 247.481 191.144,244.800 193.386,242.600 195.223 C 240.400 197.059,238.510 198.661,238.400 198.782 C 238.290 198.903,237.480 199.614,236.600 200.363 C 231.241 204.923,227.897 208.087,218.390 217.592 C 212.555 223.426,207.155 228.920,206.390 229.801 C 205.626 230.682,203.470 233.107,201.600 235.191 C 197.329 239.951,197.823 239.396,195.000 242.608 C 193.680 244.110,192.419 245.532,192.198 245.769 C 191.977 246.006,190.447 247.730,188.798 249.600 C 187.149 251.470,185.702 253.090,185.583 253.200 C 185.464 253.310,182.854 256.280,179.784 259.800 C 172.872 267.723,173.378 267.200,172.633 267.200 C 172.290 267.200,169.337 264.545,166.071 261.300 C 162.805 258.055,154.073 249.416,146.666 242.101 C 139.260 234.787,133.200 228.554,133.200 228.249 C 133.200 227.944,134.488 226.548,136.062 225.147 C 137.636 223.746,139.414 222.143,140.013 221.585 C 140.612 221.027,142.517 219.317,144.245 217.785 C 145.974 216.253,148.381 214.081,149.594 212.957 C 150.807 211.834,152.584 210.214,153.542 209.357 C 157.830 205.523,164.780 199.159,168.587 195.581 C 170.354 193.920,172.959 191.490,174.376 190.181 C 183.565 181.688,201.625 161.670,209.004 151.800 C 209.662 150.920,210.428 149.959,210.706 149.665 C 210.984 149.371,211.703 148.471,212.304 147.665 C 212.904 146.859,213.491 146.110,213.608 146.000 C 213.944 145.685,219.745 138.004,229.319 125.200 C 234.172 118.710,238.250 113.310,238.382 113.200 C 238.514 113.090,239.654 111.616,240.915 109.925 C 242.176 108.233,243.431 106.613,243.704 106.325 C 243.977 106.036,244.953 104.810,245.874 103.600 C 246.795 102.390,247.883 101.040,248.292 100.600 C 248.701 100.160,249.909 98.720,250.976 97.400 C 262.815 82.757,277.737 69.472,296.000 57.318 C 305.322 51.114,310.461 47.972,317.800 43.993 C 318.900 43.397,320.970 42.260,322.400 41.466 C 326.529 39.174,344.081 30.582,347.400 29.228 C 347.840 29.048,349.055 28.519,350.100 28.051 C 351.145 27.583,352.855 26.817,353.900 26.349 C 354.945 25.881,356.160 25.360,356.600 25.190 C 357.040 25.020,358.030 24.608,358.800 24.274 C 362.205 22.795,369.042 20.160,374.200 18.339 C 377.280 17.252,380.160 16.203,380.600 16.008 C 381.831 15.463,382.000 15.527,382.000 16.538 M122.842 238.500 C 127.364 242.955,139.842 255.240,150.571 265.800 C 161.300 276.360,170.260 285.339,170.482 285.754 C 171.084 286.878,154.037 303.942,150.800 305.455 C 147.087 307.191,147.260 307.137,142.600 308.035 C 137.214 309.073,128.207 308.880,123.200 307.619 C 118.032 306.317,117.821 306.245,113.900 304.452 C 105.391 300.561,98.974 293.723,95.549 284.900 C 95.357 284.405,95.041 283.595,94.846 283.100 C 91.101 273.592,91.316 258.964,95.325 250.400 C 96.064 248.821,113.625 230.400,114.391 230.400 C 114.517 230.400,118.320 234.045,122.842 238.500 M85.050 295.900 C 89.274 302.850,93.235 307.609,97.493 310.846 C 98.762 311.811,100.026 312.813,100.301 313.073 C 100.577 313.333,102.143 314.285,103.782 315.190 C 106.087 316.462,106.709 316.989,106.528 317.517 C 106.282 318.239,79.999 344.800,79.532 344.800 C 79.382 344.800,78.761 343.765,78.152 342.500 C 74.386 334.673,67.674 327.872,60.081 324.190 C 58.277 323.316,56.800 322.437,56.800 322.238 C 56.800 322.038,60.715 317.914,65.500 313.072 C 85.885 292.444,83.971 294.125,85.050 295.900 M50.265 335.303 C 71.606 342.260,74.116 371.808,54.200 381.632 C 42.614 387.347,30.711 384.510,22.263 374.020 C 7.634 355.855,27.796 327.978,50.265 335.303 " stroke="none" fill="#fafafa" fill-rule="evenodd"></path><path id="path1" d="M376.800 17.975 C 375.150 18.578,373.440 19.208,373.000 19.374 C 372.560 19.540,371.210 20.036,370.000 20.477 C 368.790 20.918,367.395 21.440,366.900 21.639 C 366.405 21.838,365.550 22.180,365.000 22.400 C 364.450 22.620,363.550 22.980,363.000 23.200 C 362.450 23.420,361.595 23.756,361.100 23.946 C 359.287 24.644,358.157 25.118,356.200 26.000 C 355.100 26.496,353.840 27.036,353.400 27.200 C 352.504 27.534,350.959 28.236,344.652 31.174 C 342.260 32.289,340.222 33.200,340.122 33.200 C 339.880 33.200,326.476 39.918,323.200 41.681 C 310.533 48.501,298.717 55.822,288.400 63.243 C 274.601 73.169,262.708 84.272,251.813 97.400 C 249.622 100.040,247.728 102.290,247.605 102.400 C 247.481 102.510,246.759 103.410,246.000 104.400 C 245.241 105.390,244.526 106.290,244.410 106.400 C 244.295 106.510,243.577 107.410,242.815 108.400 C 242.053 109.390,241.288 110.260,241.115 110.333 C 240.942 110.407,240.800 110.630,240.800 110.829 C 240.800 111.028,240.538 111.508,240.219 111.895 C 238.502 113.975,235.264 118.232,230.818 124.253 C 228.077 127.964,225.729 131.090,225.598 131.200 C 225.468 131.310,224.929 132.030,224.400 132.800 C 223.871 133.570,223.331 134.290,223.200 134.400 C 223.069 134.510,222.529 135.230,222.000 136.000 C 221.471 136.770,220.928 137.490,220.794 137.600 C 220.659 137.710,219.131 139.690,217.397 142.000 C 214.295 146.132,206.477 156.009,205.999 156.400 C 205.864 156.510,205.494 156.979,205.177 157.443 C 204.860 157.906,203.790 159.243,202.800 160.413 C 201.810 161.583,199.849 163.904,198.443 165.570 C 193.188 171.798,185.349 180.242,178.800 186.731 C 174.472 191.020,162.171 202.400,149.425 213.908 C 145.891 217.098,141.491 221.079,139.646 222.754 C 137.802 224.429,135.777 226.231,135.146 226.758 C 133.408 228.211,132.763 227.462,153.219 247.744 C 171.752 266.119,172.973 267.257,173.267 266.420 C 173.340 266.210,174.506 264.815,175.857 263.320 C 177.208 261.824,181.327 257.180,185.010 253.000 C 191.690 245.419,193.201 243.713,200.605 235.400 C 213.923 220.446,223.499 210.878,235.600 200.434 C 237.690 198.630,239.855 196.759,240.411 196.277 C 240.968 195.795,242.408 194.592,243.611 193.605 C 244.815 192.619,245.890 191.702,246.000 191.568 C 246.110 191.434,250.340 188.048,255.400 184.044 C 260.460 180.040,264.872 176.547,265.203 176.282 C 265.535 176.017,267.605 174.453,269.803 172.807 C 272.002 171.161,273.890 169.713,274.000 169.588 C 274.110 169.464,276.090 167.933,278.400 166.186 C 280.710 164.440,282.690 162.918,282.800 162.804 C 282.910 162.691,284.080 161.788,285.400 160.799 C 286.720 159.810,288.041 158.772,288.335 158.494 C 288.629 158.216,289.529 157.497,290.335 156.896 C 291.141 156.296,291.890 155.711,292.000 155.597 C 292.110 155.483,293.190 154.584,294.400 153.601 C 304.063 145.746,316.957 133.688,322.013 127.778 C 325.382 123.839,326.872 122.058,328.518 120.000 C 332.074 115.553,342.000 101.574,342.000 101.012 C 342.000 100.871,342.693 99.731,343.541 98.478 C 350.632 87.995,361.828 66.357,369.454 48.400 C 371.089 44.550,372.600 40.995,372.813 40.500 C 373.026 40.005,373.356 39.195,373.546 38.700 C 374.124 37.199,374.873 35.440,375.247 34.705 C 375.441 34.323,375.600 33.736,375.600 33.400 C 375.600 33.064,375.759 32.477,375.953 32.095 C 376.148 31.713,376.529 30.860,376.800 30.200 C 377.071 29.540,377.452 28.687,377.647 28.305 C 377.841 27.923,378.000 27.284,378.000 26.885 C 378.000 26.486,378.143 25.989,378.318 25.780 C 378.493 25.571,378.865 24.680,379.145 23.800 C 379.424 22.920,379.794 21.840,379.968 21.400 C 382.013 16.201,381.920 16.101,376.800 17.975 M105.997 239.300 C 95.795 249.509,95.044 250.624,93.665 257.600 C 92.597 263.003,93.020 276.047,94.372 279.400 C 94.550 279.840,95.095 281.460,95.584 283.000 C 97.925 290.379,103.267 297.482,109.400 301.371 C 111.911 302.964,116.555 305.200,117.351 305.200 C 117.682 305.200,118.051 305.359,118.171 305.554 C 118.292 305.749,118.887 306.010,119.495 306.136 C 120.103 306.261,121.500 306.567,122.600 306.816 C 129.204 308.306,146.017 307.991,147.026 306.358 C 147.148 306.161,147.580 306.000,147.986 306.000 C 149.903 306.000,152.644 303.777,161.100 295.361 C 165.995 290.490,170.000 286.393,170.000 286.258 C 170.000 285.800,114.821 231.200,114.358 231.200 C 114.211 231.200,110.449 234.845,105.997 239.300 M70.503 308.909 L 57.231 322.218 58.515 322.735 C 59.820 323.260,60.185 323.445,62.755 324.884 C 67.585 327.589,72.503 332.291,75.864 337.418 C 77.168 339.409,78.474 341.614,78.766 342.318 C 79.058 343.023,79.500 343.600,79.749 343.600 C 80.272 343.599,106.000 317.841,106.000 317.317 C 106.000 317.124,105.055 316.500,103.900 315.930 C 98.116 313.076,91.058 306.373,86.767 299.660 C 85.355 297.451,84.104 295.634,83.987 295.622 C 83.870 295.610,77.802 301.589,70.503 308.909 M38.600 335.032 C 38.160 335.139,36.990 335.426,36.000 335.670 C 20.783 339.424,13.388 358.097,21.624 371.970 C 30.418 386.783,52.720 387.894,62.387 374.000 C 62.923 373.230,63.469 372.510,63.600 372.400 C 63.731 372.290,64.311 371.210,64.890 370.000 C 71.148 356.918,64.711 341.251,51.000 336.192 C 48.255 335.180,40.846 334.486,38.600 335.032 " stroke="none" fill="#040404" fill-rule="evenodd"></path><path id="path2" d="M340.800 32.600 C 340.250 32.914,339.980 33.172,340.200 33.172 C 340.420 33.172,341.050 32.914,341.600 32.600 C 342.150 32.286,342.420 32.028,342.200 32.028 C 341.980 32.028,341.350 32.286,340.800 32.600 M370.000 46.884 C 370.000 47.004,369.728 47.754,369.395 48.551 C 369.062 49.348,368.879 50.000,368.989 50.000 C 369.306 50.000,370.433 47.100,370.205 46.872 C 370.092 46.759,370.000 46.765,370.000 46.884 M288.400 62.842 C 285.260 65.135,284.931 65.650,287.922 63.590 C 290.066 62.114,291.206 61.148,290.724 61.218 C 290.656 61.228,289.610 61.959,288.400 62.842 M283.200 66.849 C 281.806 68.071,281.805 68.072,283.088 67.219 C 283.796 66.748,284.482 66.191,284.612 65.981 C 284.997 65.357,284.677 65.554,283.200 66.849 M275.200 73.240 L 273.000 75.270 275.300 73.387 C 277.319 71.733,277.868 71.188,277.500 71.204 C 277.445 71.207,276.410 72.123,275.200 73.240 M269.387 78.500 L 267.000 81.000 269.500 78.613 C 270.875 77.299,272.000 76.174,272.000 76.113 C 272.000 75.817,271.605 76.178,269.387 78.500 M355.014 78.635 C 354.641 79.204,354.405 79.738,354.489 79.822 C 354.573 79.907,354.958 79.441,355.344 78.788 C 356.206 77.328,355.948 77.209,355.014 78.635 M261.590 86.011 C 258.894 88.877,256.759 91.272,256.844 91.334 C 256.930 91.396,259.222 89.051,261.937 86.123 C 264.652 83.195,266.788 80.800,266.682 80.800 C 266.577 80.800,264.285 83.145,261.590 86.011 M349.853 88.100 L 349.133 89.400 349.958 88.400 C 350.689 87.513,351.014 86.800,350.686 86.800 C 350.624 86.800,350.249 87.385,349.853 88.100 M252.575 96.100 L 251.400 97.400 252.700 96.225 C 253.415 95.579,254.000 94.994,254.000 94.925 C 254.000 94.616,253.670 94.888,252.575 96.100 M249.401 99.819 C 248.358 101.040,247.572 102.096,247.653 102.166 C 247.734 102.236,248.669 101.237,249.732 99.946 C 252.185 96.967,251.924 96.867,249.401 99.819 M342.614 99.835 C 342.241 100.404,342.005 100.938,342.089 101.022 C 342.173 101.107,342.558 100.641,342.944 99.988 C 343.806 98.528,343.548 98.409,342.614 99.835 M336.115 109.700 C 334.381 111.967,333.466 113.320,333.809 113.113 C 334.281 112.827,336.937 109.200,336.674 109.200 C 336.577 109.200,336.326 109.425,336.115 109.700 M234.344 119.100 C 233.193 120.489,232.706 121.200,232.904 121.200 C 233.014 121.200,233.586 120.570,234.173 119.800 C 235.263 118.371,235.395 117.832,234.344 119.100 M231.944 122.300 C 230.793 123.689,230.306 124.400,230.504 124.400 C 230.614 124.400,231.186 123.770,231.773 123.000 C 232.863 121.571,232.995 121.032,231.944 122.300 M228.941 126.300 C 228.336 127.125,227.562 128.146,227.221 128.569 C 226.879 128.992,226.808 129.216,227.063 129.068 C 227.571 128.773,230.509 124.800,230.220 124.800 C 230.121 124.800,229.546 125.475,228.941 126.300 M321.775 128.100 L 320.600 129.400 321.900 128.225 C 322.615 127.579,323.200 126.994,323.200 126.925 C 323.200 126.616,322.870 126.888,321.775 128.100 M314.376 135.700 C 312.053 138.065,310.257 140.000,310.384 140.000 C 310.725 140.000,318.990 131.646,318.780 131.513 C 318.681 131.451,316.699 133.335,314.376 135.700 M217.144 141.900 C 215.993 143.289,215.506 144.000,215.704 144.000 C 215.814 144.000,216.386 143.370,216.973 142.600 C 218.063 141.171,218.195 140.632,217.144 141.900 M214.732 145.100 C 212.916 147.249,211.057 149.721,211.421 149.502 C 211.902 149.214,215.740 144.400,215.489 144.400 C 215.398 144.400,215.058 144.715,214.732 145.100 M302.975 146.500 L 301.800 147.800 303.100 146.625 C 303.815 145.979,304.400 145.394,304.400 145.325 C 304.400 145.016,304.070 145.288,302.975 146.500 M299.200 149.657 L 297.000 151.689 299.099 150.008 C 300.939 148.534,301.913 147.573,301.524 147.613 C 301.456 147.620,300.410 148.540,299.200 149.657 M293.078 154.613 C 292.460 155.156,292.114 155.600,292.308 155.600 C 292.502 155.600,293.083 155.150,293.600 154.600 C 294.795 153.328,294.531 153.334,293.078 154.613 M199.375 164.100 L 198.200 165.400 199.500 164.225 C 200.712 163.130,200.984 162.800,200.675 162.800 C 200.606 162.800,200.021 163.385,199.375 164.100 M195.563 168.500 C 194.159 170.095,193.328 171.149,193.715 170.843 C 194.557 170.177,198.558 165.600,198.298 165.600 C 198.198 165.600,196.968 166.905,195.563 168.500 M277.600 166.849 C 276.206 168.071,276.205 168.072,277.488 167.219 C 278.196 166.748,278.882 166.191,279.012 165.981 C 279.397 165.357,279.077 165.554,277.600 166.849 M268.785 173.629 L 267.400 174.858 268.900 173.781 C 270.226 172.830,270.657 172.400,270.285 172.400 C 270.222 172.400,269.547 172.953,268.785 173.629 M190.175 174.500 L 189.000 175.800 190.300 174.625 C 191.512 173.530,191.784 173.200,191.475 173.200 C 191.406 173.200,190.821 173.785,190.175 174.500 M186.010 178.948 L 183.421 181.800 186.310 179.011 C 187.900 177.477,189.200 176.172,189.200 176.111 C 189.200 175.641,188.231 176.503,186.010 178.948 M256.400 183.249 C 255.006 184.471,255.005 184.472,256.288 183.619 C 256.996 183.148,257.682 182.591,257.812 182.381 C 258.197 181.757,257.877 181.954,256.400 183.249 M252.600 186.260 C 251.395 187.336,251.305 187.485,252.236 186.863 C 253.341 186.124,254.732 184.776,254.349 184.815 C 254.267 184.823,253.480 185.473,252.600 186.260 M248.066 189.821 C 246.893 190.799,246.083 191.596,246.266 191.592 C 246.450 191.587,247.500 190.784,248.600 189.807 C 251.187 187.509,250.827 187.518,248.066 189.821 M173.377 191.508 C 171.605 193.209,167.915 196.732,165.177 199.338 C 162.440 201.944,163.440 201.106,167.400 197.477 C 174.278 191.173,177.155 188.390,176.775 188.408 C 176.679 188.413,175.150 189.808,173.377 191.508 M242.278 194.613 C 241.660 195.156,241.314 195.600,241.508 195.600 C 241.702 195.600,242.283 195.150,242.800 194.600 C 243.995 193.328,243.731 193.334,242.278 194.613 M237.375 198.900 L 236.200 200.200 237.500 199.025 C 238.215 198.379,238.800 197.794,238.800 197.725 C 238.800 197.416,238.470 197.688,237.375 198.900 M233.978 201.900 L 232.600 203.400 234.100 202.022 C 235.496 200.738,235.784 200.400,235.478 200.400 C 235.412 200.400,234.737 201.075,233.978 201.900 M230.130 205.209 C 228.991 206.304,228.188 207.200,228.345 207.200 C 228.502 207.200,229.517 206.300,230.600 205.200 C 233.144 202.618,232.817 202.624,230.130 205.209 M151.778 211.515 C 149.566 213.652,148.576 214.674,149.578 213.786 C 153.237 210.544,156.334 207.600,156.070 207.615 C 155.922 207.623,153.990 209.378,151.778 211.515 M224.181 210.900 L 222.600 212.600 224.300 211.019 C 225.881 209.548,226.184 209.200,225.881 209.200 C 225.816 209.200,225.051 209.965,224.181 210.900 M217.194 217.500 L 212.200 222.600 217.300 217.606 C 222.037 212.967,222.581 212.400,222.294 212.400 C 222.236 212.400,219.941 214.695,217.194 217.500 M144.000 218.471 C 141.463 220.869,141.370 220.997,143.400 219.298 C 145.650 217.415,147.528 215.578,147.162 215.617 C 147.073 215.627,145.650 216.911,144.000 218.471 M137.381 224.500 L 135.800 226.200 137.500 224.619 C 139.081 223.148,139.384 222.800,139.081 222.800 C 139.016 222.800,138.251 223.565,137.381 224.500 M210.975 224.100 L 209.800 225.400 211.100 224.225 C 211.815 223.579,212.400 222.994,212.400 222.925 C 212.400 222.616,212.070 222.888,210.975 224.100 M134.468 226.927 C 133.991 227.436,133.600 228.021,133.600 228.228 C 133.600 228.613,160.433 255.600,160.816 255.600 C 160.932 255.600,154.946 249.529,147.514 242.108 C 133.496 228.112,133.436 228.041,134.876 227.032 C 135.358 226.694,135.658 226.325,135.544 226.211 C 135.430 226.097,134.946 226.419,134.468 226.927 M205.600 229.800 C 204.628 230.790,203.923 231.600,204.033 231.600 C 204.143 231.600,205.028 230.790,206.000 229.800 C 206.972 228.810,207.677 228.000,207.567 228.000 C 207.457 228.000,206.572 228.810,205.600 229.800 M111.986 233.100 L 109.800 235.400 112.101 233.213 L 114.402 231.025 117.101 233.613 L 119.800 236.200 117.212 233.500 C 114.108 230.263,114.644 230.304,111.986 233.100 M200.364 235.700 C 198.537 237.735,196.594 239.895,196.046 240.500 C 195.498 241.105,195.144 241.600,195.258 241.600 C 195.373 241.600,197.394 239.440,199.751 236.800 C 202.107 234.160,203.956 232.000,203.861 232.000 C 203.765 232.000,202.192 233.665,200.364 235.700 M99.330 245.700 C 97.788 247.295,96.312 249.050,96.051 249.600 L 95.577 250.600 96.278 249.600 C 96.664 249.050,98.230 247.295,99.757 245.700 C 101.285 244.105,102.445 242.800,102.335 242.800 C 102.225 242.800,100.873 244.105,99.330 245.700 M192.425 244.569 L 191.050 246.200 192.605 244.713 C 193.460 243.896,194.079 243.162,193.980 243.083 C 193.881 243.003,193.181 243.672,192.425 244.569 M189.381 248.100 L 187.800 249.800 189.500 248.219 C 190.435 247.349,191.200 246.584,191.200 246.519 C 191.200 246.216,190.852 246.519,189.381 248.100 M184.549 253.480 C 183.037 255.174,182.005 256.436,182.255 256.284 C 182.825 255.939,187.752 250.400,187.490 250.400 C 187.385 250.400,186.061 251.786,184.549 253.480 M145.797 261.915 C 151.516 267.682,156.311 272.400,156.454 272.400 C 156.680 272.400,136.387 252.106,135.670 251.615 C 135.521 251.514,140.079 256.149,145.797 261.915 M93.450 256.850 C 93.117 258.517,93.440 258.840,93.800 257.200 C 93.952 256.509,93.993 255.859,93.891 255.758 C 93.789 255.656,93.591 256.147,93.450 256.850 M180.181 258.500 L 178.600 260.200 180.300 258.619 C 181.881 257.148,182.184 256.800,181.881 256.800 C 181.816 256.800,181.051 257.565,180.181 258.500 M92.695 263.700 C 92.573 265.735,92.598 268.840,92.751 270.600 C 92.974 273.164,93.035 272.428,93.056 266.900 C 93.087 259.068,93.013 258.418,92.695 263.700 M169.400 264.000 C 170.259 264.880,171.052 265.600,171.162 265.600 C 171.272 265.600,170.659 264.880,169.800 264.000 C 168.941 263.120,168.148 262.400,168.038 262.400 C 167.928 262.400,168.541 263.120,169.400 264.000 M174.034 265.353 L 173.069 266.600 174.213 265.512 C 174.843 264.914,175.277 264.353,175.179 264.265 C 175.080 264.177,174.565 264.667,174.034 265.353 M93.458 276.400 C 93.775 278.125,94.002 278.451,93.994 277.167 C 93.991 276.635,93.811 275.930,93.594 275.600 C 93.318 275.178,93.277 275.415,93.458 276.400 M161.200 277.198 C 161.200 277.363,163.135 279.356,165.500 281.627 C 167.865 283.898,169.922 286.035,170.072 286.378 C 170.240 286.763,170.354 286.807,170.372 286.494 C 170.387 286.215,168.330 283.942,165.800 281.442 C 163.270 278.943,161.200 277.033,161.200 277.198 M98.923 291.029 C 99.266 291.705,99.851 292.510,100.222 292.818 C 100.593 293.126,100.415 292.668,99.826 291.800 C 98.433 289.748,98.148 289.505,98.923 291.029 M101.503 294.600 C 101.960 295.260,103.200 296.610,104.256 297.600 C 105.964 299.200,105.915 299.111,103.816 296.800 C 100.656 293.321,100.539 293.210,101.503 294.600 M157.200 299.224 C 154.670 301.767,152.150 304.160,151.600 304.541 C 150.651 305.200,150.665 305.200,151.882 304.542 C 153.156 303.853,162.324 294.930,161.980 294.713 C 161.881 294.651,159.730 296.681,157.200 299.224 M71.015 307.985 C 63.987 315.016,58.318 320.821,58.418 320.885 C 58.518 320.948,64.364 315.195,71.408 308.100 C 78.453 301.005,84.122 295.200,84.006 295.200 C 83.890 295.200,78.044 300.953,71.015 307.985 M109.000 301.407 C 109.440 301.766,110.160 302.235,110.600 302.451 L 111.400 302.844 110.600 302.193 C 110.160 301.834,109.440 301.365,109.000 301.149 L 108.200 300.756 109.000 301.407 M112.211 303.334 C 113.096 303.932,114.400 304.458,114.400 304.217 C 114.400 304.037,111.998 302.800,111.650 302.800 C 111.524 302.800,111.777 303.040,112.211 303.334 M93.000 307.539 C 94.540 309.145,96.340 310.835,97.000 311.295 C 97.660 311.754,98.020 311.958,97.800 311.748 C 97.580 311.538,95.780 309.848,93.800 307.992 L 90.200 304.618 93.000 307.539 M122.033 306.943 C 122.125 307.021,122.830 307.201,123.600 307.342 C 124.585 307.523,124.822 307.482,124.400 307.206 C 123.858 306.850,121.637 306.603,122.033 306.943 M143.600 307.206 C 143.178 307.482,143.415 307.523,144.400 307.342 C 146.125 307.025,146.451 306.798,145.167 306.806 C 144.635 306.809,143.930 306.989,143.600 307.206 M128.200 308.065 C 130.812 308.411,137.711 308.414,140.000 308.070 C 140.990 307.922,138.290 307.800,134.000 307.800 C 129.704 307.800,127.098 307.919,128.200 308.065 M99.694 313.290 C 100.882 314.300,103.200 315.747,103.200 315.479 C 103.200 315.388,102.165 314.649,100.900 313.837 C 99.635 313.025,99.092 312.779,99.694 313.290 M70.400 331.000 C 71.146 331.770,71.847 332.400,71.957 332.400 C 72.067 332.400,71.546 331.770,70.800 331.000 C 70.054 330.230,69.353 329.600,69.243 329.600 C 69.133 329.600,69.654 330.230,70.400 331.000 M86.614 337.100 C 80.409 343.415,79.488 344.147,79.065 343.100 C 78.954 342.825,78.852 342.780,78.838 343.000 C 78.700 345.161,79.742 344.440,86.473 337.716 C 90.264 333.930,93.283 330.780,93.183 330.716 C 93.082 330.652,90.126 333.525,86.614 337.100 M38.476 334.740 C 37.968 334.883,39.824 335.000,42.600 335.000 C 45.376 335.000,47.232 334.883,46.724 334.740 C 46.216 334.597,44.360 334.480,42.600 334.480 C 40.840 334.480,38.984 334.597,38.476 334.740 M27.600 339.649 C 26.206 340.871,26.205 340.872,27.488 340.019 C 28.196 339.548,28.882 338.991,29.012 338.781 C 29.397 338.157,29.077 338.354,27.600 339.649 M58.438 340.500 C 58.532 340.555,59.327 341.230,60.204 342.000 L 61.800 343.400 60.422 341.900 C 59.663 341.075,58.868 340.400,58.655 340.400 C 58.441 340.400,58.344 340.445,58.438 340.500 M66.468 352.800 C 66.488 353.839,67.118 355.546,67.132 354.600 C 67.138 354.160,66.989 353.440,66.800 353.000 C 66.589 352.510,66.461 352.432,66.468 352.800 M18.229 354.629 C 18.081 355.215,18.038 355.772,18.132 355.866 C 18.227 355.960,18.424 355.558,18.571 354.971 C 18.719 354.385,18.762 353.828,18.668 353.734 C 18.573 353.640,18.376 354.042,18.229 354.629 M67.293 357.600 C 67.293 358.370,67.375 358.685,67.476 358.300 C 67.576 357.915,67.576 357.285,67.476 356.900 C 67.375 356.515,67.293 356.830,67.293 357.600 M67.293 361.200 C 67.293 361.970,67.375 362.285,67.476 361.900 C 67.576 361.515,67.576 360.885,67.476 360.500 C 67.375 360.115,67.293 360.430,67.293 361.200 M66.846 364.067 C 66.821 364.434,66.696 365.064,66.570 365.467 C 66.352 366.162,66.363 366.163,66.797 365.487 C 67.048 365.096,67.173 364.466,67.073 364.087 C 66.911 363.468,66.888 363.466,66.846 364.067 M24.800 376.600 C 25.546 377.370,26.247 378.000,26.357 378.000 C 26.467 378.000,25.946 377.370,25.200 376.600 C 24.454 375.830,23.753 375.200,23.643 375.200 C 23.533 375.200,24.054 375.830,24.800 376.600 M57.200 379.249 C 55.806 380.471,55.805 380.472,57.088 379.619 C 57.796 379.148,58.482 378.591,58.612 378.381 C 58.997 377.757,58.677 377.954,57.200 379.249 M48.400 383.200 C 47.576 383.464,47.541 383.526,48.200 383.554 C 48.640 383.573,49.270 383.413,49.600 383.200 C 50.301 382.747,49.814 382.747,48.400 383.200 " stroke="none" fill="#646464" fill-rule="evenodd"></path><path id="path3" d="M365.101 21.690 C 362.297 22.815,360.070 23.803,360.152 23.885 C 360.296 24.030,370.431 20.095,370.767 19.764 C 371.212 19.326,369.776 19.814,365.101 21.690 M377.858 28.104 C 376.928 30.540,377.080 31.004,378.036 28.647 C 378.472 27.573,378.758 26.624,378.672 26.538 C 378.586 26.452,378.220 27.157,377.858 28.104 M330.471 37.178 C 328.226 38.387,327.294 39.058,328.615 38.514 C 329.999 37.944,332.800 36.390,332.800 36.192 C 332.800 35.921,332.826 35.910,330.471 37.178 M324.400 40.436 C 323.736 40.979,323.669 41.115,324.200 40.840 C 325.505 40.166,326.228 39.612,325.800 39.615 C 325.580 39.617,324.950 39.986,324.400 40.436 M311.500 47.429 C 310.895 47.757,310.400 48.110,310.400 48.213 C 310.400 48.599,311.032 48.357,312.000 47.600 C 313.189 46.670,313.011 46.609,311.500 47.429 M307.500 49.829 C 306.005 50.640,306.096 50.978,307.600 50.200 C 308.260 49.859,308.800 49.494,308.800 49.390 C 308.800 49.132,308.757 49.147,307.500 49.829 M302.993 52.656 C 300.952 54.009,300.232 54.723,301.826 53.814 C 303.230 53.014,305.101 51.622,304.793 51.609 C 304.679 51.604,303.869 52.075,302.993 52.656 M363.990 61.427 C 363.775 61.992,363.397 62.847,363.151 63.327 C 362.856 63.900,362.849 64.062,363.130 63.800 C 363.644 63.320,364.902 60.400,364.595 60.400 C 364.477 60.400,364.205 60.862,363.990 61.427 M288.457 62.376 C 285.357 64.619,284.950 65.236,287.922 63.190 C 290.080 61.704,291.187 60.765,290.724 60.813 C 290.656 60.820,289.636 61.523,288.457 62.376 M362.065 65.417 C 361.395 66.888,361.523 67.202,362.247 65.865 C 362.586 65.240,362.788 64.654,362.696 64.563 C 362.605 64.471,362.321 64.856,362.065 65.417 M283.000 66.447 C 280.554 68.425,279.781 69.221,281.400 68.094 C 282.869 67.071,285.475 64.833,285.200 64.831 C 285.090 64.829,284.100 65.557,283.000 66.447 M359.361 71.100 C 358.757 72.365,358.193 73.535,358.108 73.700 C 358.023 73.865,358.040 74.000,358.147 74.000 C 358.254 74.000,358.835 72.965,359.439 71.700 C 360.043 70.435,360.607 69.265,360.692 69.100 C 360.777 68.935,360.760 68.800,360.653 68.800 C 360.546 68.800,359.965 69.835,359.361 71.100 M275.376 72.704 C 274.262 73.747,273.812 74.228,274.376 73.773 C 274.939 73.318,275.999 72.463,276.731 71.873 C 277.463 71.283,277.913 70.802,277.731 70.804 C 277.549 70.807,276.489 71.662,275.376 72.704 M270.306 77.011 C 269.484 77.775,268.954 78.400,269.127 78.400 C 269.301 78.400,270.054 77.770,270.800 77.000 C 272.541 75.203,272.243 75.210,270.306 77.011 M263.991 83.100 L 260.600 86.600 264.100 83.209 C 266.025 81.344,267.600 79.769,267.600 79.709 C 267.600 79.418,267.141 79.849,263.991 83.100 M353.786 81.700 L 353.152 83.000 353.967 82.000 C 354.752 81.037,355.008 80.400,354.610 80.400 C 354.506 80.400,354.135 80.985,353.786 81.700 M257.634 89.753 L 256.669 91.000 257.813 89.912 C 258.443 89.314,258.877 88.753,258.779 88.665 C 258.680 88.577,258.165 89.067,257.634 89.753 M348.553 90.900 C 347.176 93.236,347.086 93.435,347.787 92.600 C 348.600 91.632,349.300 90.400,349.038 90.400 C 348.933 90.400,348.715 90.625,348.553 90.900 M253.400 94.455 C 252.300 95.748,251.329 97.017,251.242 97.276 C 251.155 97.535,252.117 96.530,253.378 95.043 C 254.640 93.556,255.611 92.286,255.536 92.222 C 255.461 92.158,254.500 93.163,253.400 94.455 M345.453 95.991 C 344.874 96.867,344.400 97.717,344.400 97.880 C 344.400 98.044,344.642 97.823,344.939 97.389 C 346.241 95.481,346.878 94.400,346.699 94.400 C 346.593 94.400,346.032 95.116,345.453 95.991 M247.000 102.090 C 243.536 106.542,243.501 106.986,246.944 102.800 C 248.211 101.260,249.102 100.008,248.924 100.017 C 248.746 100.026,247.880 100.959,247.000 102.090 M339.098 105.873 C 337.392 108.390,336.182 110.335,336.410 110.194 C 336.916 109.881,342.517 101.578,342.332 101.414 C 342.259 101.349,340.804 103.356,339.098 105.873 M243.386 106.578 C 243.174 106.875,242.583 107.676,242.073 108.359 C 241.563 109.041,241.233 109.600,241.339 109.600 C 241.653 109.600,244.112 106.379,243.934 106.201 C 243.845 106.111,243.598 106.281,243.386 106.578 M240.344 110.700 C 239.193 112.089,238.706 112.800,238.904 112.800 C 239.014 112.800,239.586 112.170,240.173 111.400 C 241.263 109.971,241.395 109.432,240.344 110.700 M237.131 114.733 C 236.543 115.540,235.492 116.965,234.796 117.900 C 234.100 118.835,233.615 119.600,233.717 119.600 C 233.991 119.600,238.491 113.558,238.334 113.401 C 238.260 113.327,237.719 113.927,237.131 114.733 M333.544 113.900 C 332.393 115.289,331.906 116.000,332.104 116.000 C 332.214 116.000,332.786 115.370,333.373 114.600 C 334.463 113.171,334.595 112.632,333.544 113.900 M328.644 120.184 C 326.970 122.265,325.600 124.082,325.600 124.221 C 325.600 124.360,326.446 123.422,327.479 122.137 C 328.513 120.852,329.975 119.035,330.728 118.100 C 331.480 117.165,332.004 116.400,331.892 116.400 C 331.779 116.400,330.318 118.103,328.644 120.184 M232.744 120.700 C 231.593 122.089,231.106 122.800,231.304 122.800 C 231.414 122.800,231.986 122.170,232.573 121.400 C 233.663 119.971,233.795 119.432,232.744 120.700 M230.344 123.900 C 229.193 125.289,228.706 126.000,228.904 126.000 C 229.014 126.000,229.586 125.370,230.173 124.600 C 231.263 123.171,231.395 122.632,230.344 123.900 M227.944 127.100 C 226.793 128.489,226.306 129.200,226.504 129.200 C 226.614 129.200,227.186 128.570,227.773 127.800 C 228.863 126.371,228.995 125.832,227.944 127.100 M321.800 128.400 C 320.941 129.280,320.409 129.985,320.619 129.966 C 320.986 129.934,323.865 126.800,323.528 126.800 C 323.437 126.800,322.659 127.520,321.800 128.400 M225.544 130.300 C 224.393 131.689,223.906 132.400,224.104 132.400 C 224.214 132.400,224.786 131.770,225.373 131.000 C 226.463 129.571,226.595 129.032,225.544 130.300 M314.807 135.755 L 310.613 140.200 315.107 135.807 C 317.578 133.391,319.600 131.366,319.600 131.307 C 319.600 130.829,318.424 131.920,314.807 135.755 M223.144 133.500 C 221.993 134.889,221.506 135.600,221.704 135.600 C 221.814 135.600,222.386 134.970,222.973 134.200 C 224.063 132.771,224.195 132.232,223.144 133.500 M219.775 137.868 C 219.159 138.676,218.859 139.211,219.109 139.056 C 219.621 138.740,221.353 136.400,221.075 136.400 C 220.976 136.400,220.391 137.061,219.775 137.868 M217.375 141.068 C 216.759 141.876,216.459 142.411,216.709 142.256 C 217.221 141.940,218.953 139.600,218.675 139.600 C 218.576 139.600,217.991 140.261,217.375 141.068 M304.600 145.466 L 301.400 148.499 304.244 146.058 C 306.856 143.816,308.321 142.376,307.949 142.416 C 307.867 142.425,306.360 143.797,304.600 145.466 M298.800 150.457 L 296.600 152.489 298.699 150.808 C 300.539 149.334,301.513 148.373,301.124 148.413 C 301.056 148.420,300.010 149.340,298.800 150.457 M294.400 154.054 L 292.600 155.685 294.294 154.413 C 295.768 153.307,296.714 152.374,296.324 152.412 C 296.256 152.419,295.390 153.158,294.400 154.054 M205.408 156.300 C 204.549 157.345,204.260 157.840,204.766 157.400 C 205.661 156.622,207.398 154.400,207.112 154.400 C 207.034 154.400,206.267 155.255,205.408 156.300 M201.749 160.684 C 200.677 161.940,200.009 162.839,200.264 162.683 C 200.823 162.339,204.154 158.400,203.886 158.400 C 203.782 158.400,202.820 159.428,201.749 160.684 M284.200 162.044 C 281.155 164.503,280.666 165.186,283.525 162.986 C 285.734 161.286,286.734 160.367,286.324 160.414 C 286.256 160.422,285.300 161.155,284.200 162.044 M198.801 164.198 C 198.286 164.748,197.939 165.264,198.032 165.346 C 198.124 165.428,198.619 164.978,199.130 164.347 C 200.276 162.935,200.074 162.844,198.801 164.198 M279.185 166.029 L 277.800 167.258 279.300 166.181 C 280.626 165.230,281.057 164.800,280.685 164.800 C 280.622 164.800,279.947 165.353,279.185 166.029 M196.175 167.300 L 195.000 168.600 196.300 167.425 C 197.512 166.330,197.784 166.000,197.475 166.000 C 197.406 166.000,196.821 166.585,196.175 167.300 M193.626 170.122 L 192.651 171.400 193.926 170.225 C 195.251 169.003,195.403 168.785,194.900 168.822 C 194.735 168.834,194.162 169.419,193.626 170.122 M270.400 172.646 C 268.184 174.377,266.963 175.628,268.600 174.492 C 270.044 173.489,272.681 171.231,272.400 171.237 C 272.290 171.239,271.390 171.874,270.400 172.646 M191.133 172.779 C 191.060 172.988,188.781 175.508,186.069 178.379 C 183.358 181.251,181.255 183.600,181.398 183.600 C 181.541 183.600,181.869 183.373,182.129 183.097 C 189.493 175.232,192.022 172.400,191.683 172.400 C 191.454 172.400,191.207 172.571,191.133 172.779 M264.800 177.032 C 262.592 178.779,261.770 179.632,263.400 178.485 C 265.002 177.358,267.050 175.631,266.800 175.618 C 266.690 175.612,265.790 176.249,264.800 177.032 M259.800 180.844 C 256.751 183.306,256.285 183.962,259.083 181.852 C 261.207 180.250,262.379 179.162,261.924 179.214 C 261.856 179.222,260.900 179.955,259.800 180.844 M171.772 192.708 C 167.336 197.020,167.874 196.570,174.670 190.285 C 176.029 189.028,177.019 188.004,176.870 188.008 C 176.722 188.012,174.428 190.127,171.772 192.708 M245.800 192.249 L 243.800 194.081 246.000 192.360 C 247.210 191.413,248.275 190.585,248.367 190.519 C 248.458 190.454,248.368 190.404,248.167 190.408 C 247.965 190.413,246.900 191.241,245.800 192.249 M240.800 196.440 L 238.600 198.470 240.900 196.587 C 242.919 194.933,243.468 194.388,243.100 194.404 C 243.045 194.407,242.010 195.323,240.800 196.440 M163.774 200.107 L 162.200 201.799 163.796 200.399 C 164.673 199.630,165.468 198.955,165.562 198.900 C 165.656 198.845,165.647 198.713,165.541 198.607 C 165.435 198.501,164.640 199.176,163.774 200.107 M236.278 200.213 C 235.660 200.756,235.314 201.200,235.508 201.200 C 235.702 201.200,236.283 200.750,236.800 200.200 C 237.995 198.928,237.731 198.934,236.278 200.213 M233.375 202.900 L 232.200 204.200 233.500 203.025 C 234.215 202.379,234.800 201.794,234.800 201.725 C 234.800 201.416,234.470 201.688,233.375 202.900 M158.083 205.212 C 156.919 206.305,156.116 207.200,156.298 207.200 C 156.481 207.200,157.517 206.300,158.600 205.200 C 161.130 202.631,160.823 202.638,158.083 205.212 M229.978 205.900 L 228.600 207.400 230.196 206.000 C 231.073 205.230,231.868 204.555,231.962 204.500 C 232.056 204.445,231.959 204.400,231.745 204.400 C 231.532 204.400,230.737 205.075,229.978 205.900 M153.856 209.009 C 153.007 209.774,152.476 210.400,152.677 210.400 C 152.879 210.400,153.654 209.770,154.400 209.000 C 156.136 207.209,155.849 207.214,153.856 209.009 M217.796 217.700 L 209.400 226.200 217.985 217.800 C 222.707 213.180,226.652 209.355,226.752 209.300 C 226.852 209.245,226.767 209.200,226.563 209.200 C 226.359 209.200,222.414 213.025,217.796 217.700 M150.181 212.500 L 148.600 214.200 150.394 212.600 C 151.380 211.720,152.265 210.955,152.361 210.900 C 152.456 210.845,152.360 210.800,152.148 210.800 C 151.936 210.800,151.051 211.565,150.181 212.500 M146.175 216.100 L 145.000 217.400 146.300 216.225 C 147.512 215.130,147.784 214.800,147.475 214.800 C 147.406 214.800,146.821 215.385,146.175 216.100 M141.587 220.105 C 140.370 221.257,138.614 222.875,137.686 223.700 C 136.757 224.525,136.136 225.200,136.305 225.200 C 136.647 225.200,144.317 218.048,144.000 218.025 C 143.890 218.017,142.804 218.953,141.587 220.105 M134.275 226.722 C 132.521 228.552,130.526 226.211,151.046 246.400 C 156.992 252.250,155.502 250.663,147.100 242.197 C 132.523 227.511,133.029 228.152,134.831 226.636 C 135.508 226.066,135.901 225.600,135.706 225.600 C 135.510 225.600,134.866 226.105,134.275 226.722 M206.406 229.394 C 205.663 230.161,205.132 230.850,205.227 230.925 C 205.322 231.000,206.006 230.373,206.746 229.531 C 208.429 227.618,208.212 227.531,206.406 229.394 M105.397 239.300 L 96.600 248.200 105.496 239.407 L 114.393 230.614 117.106 233.307 C 118.599 234.788,119.931 236.000,120.067 236.000 C 120.203 236.000,119.015 234.740,117.427 233.200 C 115.839 231.660,114.462 230.400,114.366 230.400 C 114.271 230.400,110.235 234.405,105.397 239.300 M202.981 233.300 L 201.400 235.000 203.100 233.419 C 204.681 231.948,204.984 231.600,204.681 231.600 C 204.616 231.600,203.851 232.365,202.981 233.300 M199.625 236.969 L 198.250 238.600 199.805 237.113 C 200.660 236.296,201.279 235.562,201.180 235.483 C 201.081 235.403,200.381 236.072,199.625 236.969 M194.636 242.545 C 193.186 244.165,192.000 245.606,192.000 245.746 C 192.000 245.887,192.675 245.237,193.500 244.301 C 194.325 243.366,195.090 242.507,195.200 242.394 C 196.494 241.058,197.700 239.600,197.511 239.600 C 197.379 239.600,196.086 240.925,194.636 242.545 M189.781 248.100 L 188.200 249.800 189.900 248.219 C 190.835 247.349,191.600 246.584,191.600 246.519 C 191.600 246.216,191.252 246.519,189.781 248.100 M131.200 246.979 C 131.200 247.149,151.595 267.420,152.278 267.930 C 152.455 268.062,147.831 263.361,142.003 257.485 C 131.647 247.044,131.200 246.609,131.200 246.979 M186.600 251.600 C 185.741 252.480,185.209 253.185,185.419 253.166 C 185.786 253.134,188.665 250.000,188.328 250.000 C 188.237 250.000,187.459 250.720,186.600 251.600 M183.573 255.100 C 181.282 257.572,180.249 258.800,180.459 258.800 C 180.569 258.800,181.692 257.630,182.955 256.200 C 185.426 253.403,185.858 252.633,183.573 255.100 M93.056 256.884 C 92.921 257.388,92.827 258.160,92.846 258.600 C 92.865 259.040,93.045 258.698,93.246 257.840 C 93.636 256.178,93.470 255.340,93.056 256.884 M176.400 263.200 C 174.813 264.960,173.669 266.385,173.858 266.366 C 174.210 266.332,179.786 260.000,179.464 260.000 C 179.366 260.000,177.987 261.440,176.400 263.200 M92.254 262.256 C 91.935 264.583,91.992 270.287,92.347 271.552 C 92.493 272.075,92.626 269.780,92.642 266.452 C 92.674 259.871,92.637 259.467,92.254 262.256 M161.400 276.800 C 166.236 281.640,170.283 285.600,170.393 285.600 C 170.503 285.600,166.636 281.640,161.800 276.800 C 156.964 271.960,152.917 268.000,152.807 268.000 C 152.697 268.000,156.564 271.960,161.400 276.800 M92.806 275.033 C 92.809 275.675,92.984 276.470,93.195 276.800 C 93.455 277.209,93.499 276.890,93.332 275.800 C 93.029 273.823,92.798 273.486,92.806 275.033 M93.606 279.033 C 93.609 279.455,93.795 280.070,94.018 280.400 C 94.315 280.838,94.352 280.676,94.156 279.800 C 93.827 278.329,93.598 278.010,93.606 279.033 M161.373 295.500 C 156.298 300.615,152.249 304.800,152.376 304.800 C 152.720 304.800,170.993 286.449,170.782 286.315 C 170.682 286.252,166.448 290.385,161.373 295.500 M101.078 294.600 C 102.356 296.226,106.403 300.323,106.397 299.985 C 106.395 299.883,104.915 298.270,103.107 296.400 C 101.300 294.530,100.387 293.720,101.078 294.600 M81.242 297.159 C 79.899 298.477,78.800 299.695,78.800 299.866 C 78.800 300.037,79.981 299.012,81.423 297.588 C 84.246 294.804,83.944 294.842,85.521 297.065 C 85.808 297.469,85.716 297.184,85.317 296.432 C 84.267 294.449,83.944 294.507,81.242 297.159 M87.477 300.431 C 87.875 301.108,88.456 301.873,88.768 302.131 C 89.080 302.389,88.832 301.835,88.215 300.900 C 86.920 298.937,86.409 298.612,87.477 300.431 M65.500 313.044 C 60.715 317.908,56.800 322.064,56.800 322.280 C 56.800 322.744,58.807 323.726,59.118 323.415 C 59.237 323.297,59.158 323.200,58.943 323.200 C 56.154 323.200,56.756 322.322,65.777 313.242 C 70.600 308.386,74.469 304.365,74.373 304.307 C 74.278 304.248,70.285 308.180,65.500 313.044 M94.058 308.158 C 97.595 311.562,100.015 313.510,99.981 312.927 C 99.970 312.747,98.981 311.898,97.783 311.039 C 96.585 310.180,94.601 308.425,93.374 307.139 C 92.147 305.853,91.021 304.807,90.872 304.815 C 90.722 304.824,92.156 306.328,94.058 308.158 M123.200 307.579 C 123.530 307.804,124.325 307.991,124.967 307.994 C 126.504 308.002,126.184 307.770,124.200 307.438 C 123.054 307.246,122.770 307.286,123.200 307.579 M143.400 307.600 C 142.293 307.882,142.277 307.909,143.200 307.947 C 143.750 307.969,144.470 307.813,144.800 307.600 C 145.481 307.160,145.129 307.160,143.400 307.600 M128.239 308.477 C 130.154 308.817,138.563 308.800,140.173 308.453 C 140.819 308.314,138.046 308.200,134.013 308.200 C 129.979 308.200,127.381 308.325,128.239 308.477 M101.600 314.179 C 101.600 314.289,102.140 314.659,102.800 315.000 C 103.460 315.341,104.000 315.531,104.000 315.421 C 104.000 315.311,103.460 314.941,102.800 314.600 C 102.140 314.259,101.600 314.069,101.600 314.179 M92.890 331.300 C 82.047 342.136,79.504 344.489,79.161 344.000 C 78.818 343.512,78.768 343.508,78.895 343.975 C 79.237 345.240,80.290 344.314,93.199 331.401 C 100.567 324.030,106.506 318.000,106.397 318.000 C 106.288 318.000,100.210 323.985,92.890 331.300 M61.200 324.579 C 61.200 324.689,61.740 325.059,62.400 325.400 C 63.060 325.741,63.600 325.931,63.600 325.821 C 63.600 325.711,63.060 325.341,62.400 325.000 C 61.740 324.659,61.200 324.469,61.200 324.579 M67.000 328.443 C 70.181 331.164,73.492 334.795,75.260 337.500 C 76.159 338.875,76.973 340.000,77.071 340.000 C 78.321 340.000,70.782 331.025,67.459 328.558 L 65.000 326.733 67.000 328.443 M41.907 334.290 C 42.626 334.379,43.706 334.377,44.307 334.286 C 44.908 334.195,44.320 334.122,43.000 334.124 C 41.680 334.126,41.188 334.201,41.907 334.290 M36.800 334.800 C 36.008 335.054,35.967 335.120,36.600 335.120 C 37.040 335.120,37.850 334.976,38.400 334.800 C 39.192 334.546,39.233 334.480,38.600 334.480 C 38.160 334.480,37.350 334.624,36.800 334.800 M47.200 334.800 C 48.568 335.238,49.619 335.238,48.600 334.800 C 48.160 334.611,47.440 334.462,47.000 334.468 C 46.357 334.477,46.396 334.543,47.200 334.800 M51.558 336.037 C 52.525 336.466,53.388 336.745,53.475 336.658 C 53.648 336.486,50.565 335.182,50.092 335.228 C 49.931 335.244,50.591 335.608,51.558 336.037 M31.689 336.665 C 30.968 337.020,30.443 337.377,30.524 337.457 C 30.695 337.628,33.200 336.424,33.200 336.171 C 33.200 335.929,33.147 335.946,31.689 336.665 M28.789 338.271 C 27.461 339.171,24.734 341.600,25.050 341.600 C 25.189 341.600,25.956 341.015,26.755 340.300 C 27.554 339.585,28.656 338.694,29.204 338.321 C 29.752 337.948,30.105 337.633,29.989 337.621 C 29.873 337.609,29.333 337.902,28.789 338.271 M60.425 341.831 C 61.181 342.728,61.881 343.397,61.980 343.317 C 62.079 343.238,61.460 342.504,60.605 341.687 L 59.050 340.200 60.425 341.831 M22.922 343.723 C 21.526 345.577,19.414 349.200,19.728 349.200 C 19.835 349.200,20.475 348.223,21.149 347.028 C 21.824 345.833,22.939 344.213,23.629 343.428 C 24.319 342.643,24.729 342.006,24.541 342.012 C 24.354 342.019,23.625 342.789,22.922 343.723 M63.385 345.500 C 64.002 346.435,64.583 347.200,64.676 347.200 C 64.964 347.200,63.433 344.766,62.832 344.269 C 62.520 344.011,62.768 344.565,63.385 345.500 M18.229 353.029 C 18.081 353.615,18.038 354.172,18.132 354.266 C 18.227 354.360,18.424 353.958,18.571 353.371 C 18.719 352.785,18.762 352.228,18.668 352.134 C 18.573 352.040,18.376 352.442,18.229 353.029 M67.481 356.400 C 67.606 357.610,67.774 358.675,67.854 358.767 C 68.135 359.087,67.917 356.191,67.587 355.200 C 67.371 354.554,67.334 354.980,67.481 356.400 M17.746 359.400 C 17.747 361.600,17.814 362.449,17.895 361.287 C 17.976 360.124,17.976 358.324,17.893 357.287 C 17.811 356.249,17.745 357.200,17.746 359.400 M67.660 360.850 C 67.627 361.428,67.511 362.507,67.401 363.250 L 67.203 364.600 67.624 363.257 C 67.855 362.519,67.972 361.439,67.882 360.857 L 67.720 359.800 67.660 360.850 M18.068 364.400 C 18.088 365.439,18.718 367.146,18.732 366.200 C 18.738 365.760,18.589 365.040,18.400 364.600 C 18.189 364.110,18.061 364.032,18.068 364.400 M66.629 366.229 C 66.481 366.815,66.438 367.372,66.532 367.466 C 66.627 367.560,66.824 367.158,66.971 366.571 C 67.119 365.985,67.162 365.428,67.068 365.334 C 66.973 365.240,66.776 365.642,66.629 366.229 M64.600 371.200 C 64.259 371.860,64.069 372.400,64.179 372.400 C 64.289 372.400,64.659 371.860,65.000 371.200 C 65.341 370.540,65.531 370.000,65.421 370.000 C 65.311 370.000,64.941 370.540,64.600 371.200 M60.000 376.919 C 58.350 378.518,56.550 380.143,56.000 380.531 C 55.039 381.208,55.049 381.208,56.280 380.543 C 57.504 379.882,60.953 376.780,62.562 374.893 C 63.972 373.241,63.020 373.994,60.000 376.919 M24.600 376.745 C 25.480 377.692,26.740 378.841,27.400 379.298 C 28.799 380.267,28.617 380.074,25.400 377.181 C 23.365 375.351,23.243 375.285,24.600 376.745 M29.400 380.622 C 30.378 381.405,33.229 382.904,33.405 382.728 C 33.475 382.658,32.422 382.011,31.066 381.291 C 29.710 380.571,28.960 380.270,29.400 380.622 M37.800 384.000 C 38.240 384.189,38.960 384.338,39.400 384.332 C 40.043 384.323,40.004 384.257,39.200 384.000 C 37.832 383.562,36.781 383.562,37.800 384.000 M46.200 384.000 C 45.111 384.277,45.093 384.307,46.000 384.325 C 46.550 384.335,47.360 384.189,47.800 384.000 C 48.786 383.576,47.866 383.576,46.200 384.000 " stroke="none" fill="#848484" fill-rule="evenodd"></path><path id="path4" d="M267.775 79.700 L 266.600 81.000 267.900 79.825 C 268.615 79.179,269.200 78.594,269.200 78.525 C 269.200 78.216,268.870 78.488,267.775 79.700 M308.975 141.300 L 307.800 142.600 309.100 141.425 C 309.815 140.779,310.400 140.194,310.400 140.125 C 310.400 139.816,310.070 140.088,308.975 141.300 M160.975 202.900 L 159.800 204.200 161.100 203.025 C 162.312 201.930,162.584 201.600,162.275 201.600 C 162.206 201.600,161.621 202.185,160.975 202.900 M217.394 217.700 L 212.200 223.000 217.500 217.806 C 222.423 212.981,222.981 212.400,222.694 212.400 C 222.636 212.400,220.251 214.785,217.394 217.700 M125.000 241.200 C 127.192 243.400,129.075 245.200,129.185 245.200 C 129.295 245.200,127.592 243.400,125.400 241.200 C 123.208 239.000,121.325 237.200,121.215 237.200 C 121.105 237.200,122.808 239.000,125.000 241.200 M166.000 281.800 C 167.195 283.010,168.263 284.000,168.373 284.000 C 168.483 284.000,167.595 283.010,166.400 281.800 C 165.205 280.590,164.137 279.600,164.027 279.600 C 163.917 279.600,164.805 280.590,166.000 281.800 M95.387 328.500 L 93.000 331.000 95.500 328.613 C 97.822 326.395,98.183 326.000,97.887 326.000 C 97.826 326.000,96.701 327.125,95.387 328.500 M41.091 384.289 C 41.801 384.377,43.061 384.379,43.891 384.292 C 44.721 384.205,44.140 384.133,42.600 384.131 C 41.060 384.129,40.381 384.200,41.091 384.289 " stroke="none" fill="#747474" fill-rule="evenodd"></path></g></svg>