<?xml version="1.0" encoding="utf-8"?>
<!-- Generator: Adobe Illustrator 16.0.0, SVG Export Plug-In . SVG Version: 6.00 Build 0)  -->
<!DOCTYPE svg PUBLIC "-//W3C//DTD SVG 1.1//EN" "http://www.w3.org/Graphics/SVG/1.1/DTD/svg11.dtd">
<svg version="1.1" id="Layer_1" xmlns="http://www.w3.org/2000/svg" xmlns:xlink="http://www.w3.org/1999/xlink" x="0px" y="0px"
	 width="600px" height="600px" viewBox="0 0 600 600" enable-background="new 0 0 600 600" xml:space="preserve">
<g transform="translate(0,0)">
	<path fill="#B82025" stroke="#231F20" stroke-width="5" stroke-miterlimit="10" d="M299.997,18.755
		c-140.625,0-281.247,70.313-281.247,175.779c0,70.313,52.734,105.466,52.734,175.779c0,52.734-17.578,52.734-17.578,87.891
		c0,17.576,56.262,37.502,105.466,52.732v70.313h281.247v-70.313c0,0,106.133-32.763,105.469-52.734
		c-1.094-32.751-17.578-35.156-17.578-87.889c0-35.156,53.486-107.133,52.732-175.779C581.242,89.065,440.619,18.755,299.997,18.755
		L299.997,18.755z M194.528,229.688c38.833,0,70.313,31.481,70.313,70.313s-31.48,70.313-70.313,70.313
		c-38.829-0.001-70.309-31.482-70.309-70.313S155.698,229.688,194.528,229.688L194.528,229.688z M405.463,229.688
		c38.831,0,70.313,31.481,70.313,70.313s-31.481,70.313-70.313,70.313s-70.313-31.481-70.313-70.313
		S366.632,229.688,405.463,229.688z M299.997,352.735c17.578,0,52.734,70.313,52.734,87.891c0,35.154,0,35.154-17.578,35.154H264.84
		c-17.578,0-17.578,0-17.578-35.156C247.262,423.046,282.418,352.735,299.997,352.735z"/>
</g>
</svg>
