<svg id="svg" version="1.1" xmlns="http://www.w3.org/2000/svg" xmlns:xlink="http://www.w3.org/1999/xlink" width="400" height="400" viewBox="0, 0, 400,400"><g id="svgg"><path id="path0" d="M99.466 32.033 C 70.960 47.096,39.043 93.313,45.510 110.165 C 49.559 120.716,59.781 116.267,66.070 101.215 C 76.318 76.688,90.764 61.193,113.967 49.841 C 129.058 42.457,136.000 36.689,136.000 31.531 C 136.000 21.505,118.946 21.740,99.466 32.033 M211.096 38.618 C 204.938 44.776,205.246 45.959,215.523 55.618 C 221.597 61.328,228.516 69.515,230.897 73.811 C 236.102 83.204,246.303 76.984,252.523 60.624 C 260.973 38.399,228.542 21.172,211.096 38.618 M134.923 65.768 C 89.998 80.919,85.819 88.250,82.754 157.285 L 80.833 200.570 50.423 231.819 C 21.967 261.060,20.173 263.933,22.500 276.534 C 32.355 329.912,73.781 368.274,128.000 374.232 L 150.000 376.649 177.170 349.053 L 204.340 321.457 184.293 310.546 C 162.684 298.784,157.712 293.886,163.653 290.214 C 165.734 288.928,177.014 293.530,188.719 300.440 C 230.663 325.204,249.392 322.054,290.093 283.392 C 322.875 252.252,324.763 249.000,310.061 249.000 C 295.764 249.000,280.511 237.654,277.729 224.949 C 273.545 205.839,272.412 204.000,264.823 204.000 C 256.086 204.000,242.069 189.790,238.190 177.000 C 236.426 171.182,232.315 168.000,226.563 168.000 C 221.315 168.000,210.491 160.689,200.170 150.173 C 179.152 128.757,172.310 130.208,185.661 153.250 C 199.338 176.856,209.351 210.074,206.369 221.954 C 202.894 235.801,196.000 234.595,196.000 220.140 C 196.000 203.564,185.365 173.545,171.321 150.482 C 158.797 129.914,159.435 126.577,176.667 122.524 C 185.733 120.391,189.709 122.714,203.171 138.007 C 220.648 157.862,231.485 160.515,244.000 148.000 C 255.103 136.897,254.430 133.759,233.681 99.897 C 204.016 51.484,190.809 46.920,134.923 65.768 M253.255 76.592 L 240.663 89.183 251.331 109.592 C 257.199 120.816,262.483 130.783,263.073 131.740 C 265.153 135.110,296.800 101.881,300.483 92.460 C 310.980 65.612,275.991 53.855,253.255 76.592 M272.634 137.654 C 246.270 165.109,244.566 169.317,254.227 183.110 C 273.802 211.058,348.750 150.055,329.999 121.436 C 318.175 103.391,300.824 108.296,272.634 137.654 M304.333 185.661 C 266.962 223.739,298.358 258.507,336.696 221.500 C 357.634 201.288,362.132 189.850,354.014 177.460 C 343.560 161.505,325.039 164.562,304.333 185.661 M344.374 263.417 C 330.112 285.642,301.537 313.633,279.000 327.454 C 262.416 337.624,258.363 352.000,272.079 352.000 C 308.148 352.000,394.471 250.822,363.493 244.856 C 359.456 244.079,352.367 250.961,344.374 263.417 M352.978 309.915 C 348.016 317.637,337.705 328.016,330.066 332.978 C 309.603 346.269,306.803 360.000,324.556 360.000 C 335.464 360.000,381.010 314.223,379.257 305.022 C 376.811 292.189,362.678 294.820,352.978 309.915 " stroke="none" fill="#000000" fill-rule="evenodd"></path></g></svg>