<svg id="svg" version="1.1" xmlns="http://www.w3.org/2000/svg" xmlns:xlink="http://www.w3.org/1999/xlink" width="400" height="400" viewBox="0, 0, 400,400"><g id="svgg"><path id="path0" d="M12.100 0.267 C 11.605 0.371,11.200 0.623,11.200 0.828 C 11.200 1.033,10.840 1.200,10.400 1.200 C 9.960 1.200,9.600 1.380,9.600 1.600 C 9.600 1.820,9.415 2.000,9.189 2.000 C 8.591 2.000,5.200 5.486,5.200 6.101 C 5.200 6.388,4.840 6.883,4.400 7.200 C 3.960 7.517,3.600 8.097,3.600 8.488 C 3.600 8.880,3.420 9.200,3.200 9.200 C 2.980 9.200,2.800 9.830,2.800 10.600 C 2.800 11.370,2.620 12.000,2.400 12.000 C 2.140 12.000,2.000 17.333,2.000 27.200 C 2.000 37.067,2.140 42.400,2.400 42.400 C 2.620 42.400,2.800 43.120,2.800 44.000 C 2.800 44.880,2.980 45.600,3.200 45.600 C 3.420 45.600,3.600 45.960,3.600 46.400 C 3.600 46.840,3.780 47.200,4.000 47.200 C 4.220 47.200,4.400 47.520,4.400 47.912 C 4.400 48.303,4.760 48.883,5.200 49.200 C 5.640 49.517,6.000 50.013,6.000 50.302 C 6.000 50.984,39.821 84.800,40.504 84.800 C 40.790 84.800,41.288 85.193,41.612 85.673 C 41.935 86.153,43.341 87.638,44.735 88.973 C 46.129 90.308,50.041 94.190,53.427 97.600 C 56.813 101.010,60.491 104.700,61.600 105.800 C 62.709 106.900,66.399 110.590,69.800 114.000 C 77.455 121.675,78.325 122.545,86.000 130.200 C 89.410 133.601,93.122 137.310,94.249 138.443 C 97.231 141.442,109.151 153.359,111.561 155.751 C 112.696 156.878,116.582 160.770,120.197 164.400 C 128.694 172.931,127.947 172.185,135.600 179.771 C 139.230 183.368,143.122 187.277,144.250 188.456 C 147.438 191.791,149.975 194.000,150.615 194.000 C 150.937 194.000,151.200 194.180,151.200 194.400 C 151.200 194.620,151.483 194.800,151.829 194.800 C 153.234 194.800,153.600 195.828,153.600 199.771 C 153.600 202.057,153.761 203.600,154.000 203.600 C 154.220 203.600,154.400 204.500,154.400 205.600 C 154.400 206.700,154.580 207.600,154.800 207.600 C 155.020 207.600,155.200 208.230,155.200 209.000 C 155.200 209.770,155.380 210.400,155.600 210.400 C 155.820 210.400,156.000 210.760,156.000 211.200 C 156.000 211.640,156.180 212.000,156.400 212.000 C 156.620 212.000,156.800 212.540,156.800 213.200 C 156.800 213.860,156.980 214.400,157.200 214.400 C 157.420 214.400,157.600 214.760,157.600 215.200 C 157.600 215.640,157.780 216.000,158.000 216.000 C 158.220 216.000,158.400 216.262,158.400 216.582 C 158.400 217.237,159.949 219.741,161.186 221.086 C 161.634 221.573,162.000 222.095,162.000 222.246 C 162.000 222.689,166.377 226.800,166.849 226.800 C 167.085 226.800,167.783 227.340,168.400 228.000 C 169.017 228.660,169.769 229.200,170.072 229.200 C 170.375 229.200,170.883 229.560,171.200 230.000 C 171.517 230.440,172.097 230.800,172.488 230.800 C 172.880 230.800,173.200 230.980,173.200 231.200 C 173.200 231.420,173.560 231.600,174.000 231.600 C 174.440 231.600,174.800 231.780,174.800 232.000 C 174.800 232.220,175.250 232.400,175.800 232.400 C 176.350 232.400,176.800 232.580,176.800 232.800 C 176.800 233.020,177.149 233.200,177.576 233.200 C 178.003 233.200,178.464 233.380,178.600 233.600 C 178.736 233.820,179.467 234.000,180.224 234.000 C 181.563 234.000,181.600 234.043,181.600 235.600 C 181.600 236.480,181.780 237.200,182.000 237.200 C 182.220 237.200,182.400 237.819,182.400 238.576 C 182.400 239.333,182.580 240.064,182.800 240.200 C 183.020 240.336,183.200 241.067,183.200 241.824 C 183.200 242.581,183.380 243.200,183.600 243.200 C 183.820 243.200,184.000 244.100,184.000 245.200 C 184.000 246.300,184.180 247.200,184.400 247.200 C 184.629 247.200,184.800 248.400,184.800 250.000 C 184.800 251.600,184.971 252.800,185.200 252.800 C 185.443 252.800,185.600 254.600,185.600 257.400 C 185.600 260.200,185.757 262.000,186.000 262.000 C 186.220 262.000,186.400 262.720,186.400 263.600 C 186.400 264.480,186.580 265.200,186.800 265.200 C 187.020 265.200,187.200 265.740,187.200 266.400 C 187.200 267.060,187.020 267.600,186.800 267.600 C 186.580 267.600,186.400 267.960,186.400 268.400 C 186.400 268.840,186.220 269.200,186.000 269.200 C 185.780 269.200,185.600 269.740,185.600 270.400 C 185.600 271.060,185.420 271.600,185.200 271.600 C 184.980 271.600,184.800 272.500,184.800 273.600 C 184.800 274.700,184.620 275.600,184.400 275.600 C 184.180 275.600,184.000 276.219,184.000 276.976 C 184.000 277.733,183.820 278.464,183.600 278.600 C 183.380 278.736,183.200 279.467,183.200 280.224 C 183.200 280.981,183.020 281.600,182.800 281.600 C 182.580 281.600,182.400 282.140,182.400 282.800 C 182.400 283.460,182.220 284.000,182.000 284.000 C 181.780 284.000,181.600 284.540,181.600 285.200 C 181.600 285.860,181.420 286.400,181.200 286.400 C 180.980 286.400,180.800 286.940,180.800 287.600 C 180.800 288.260,180.620 288.800,180.400 288.800 C 180.180 288.800,180.000 289.160,180.000 289.600 C 180.000 290.040,179.820 290.400,179.600 290.400 C 179.380 290.400,179.200 290.724,179.200 291.120 C 179.200 292.014,178.306 293.993,177.900 293.997 C 177.735 293.999,177.600 294.360,177.600 294.800 C 177.600 295.240,177.420 295.600,177.200 295.600 C 176.980 295.600,176.800 295.960,176.800 296.400 C 176.800 296.840,176.620 297.200,176.400 297.200 C 176.180 297.200,176.000 297.538,176.000 297.951 C 176.000 298.364,175.730 298.926,175.400 299.200 C 175.070 299.474,174.800 300.036,174.800 300.449 C 174.800 300.862,174.620 301.200,174.400 301.200 C 174.180 301.200,174.000 301.520,174.000 301.912 C 174.000 302.303,173.640 302.883,173.200 303.200 C 172.760 303.517,172.400 304.057,172.400 304.400 C 172.400 304.743,172.040 305.283,171.600 305.600 C 171.130 305.939,170.800 306.635,170.800 307.288 C 170.800 307.900,170.620 308.400,170.400 308.400 C 170.180 308.400,170.000 309.019,170.000 309.776 C 170.000 310.533,169.820 311.264,169.600 311.400 C 169.078 311.723,169.078 316.000,169.600 316.000 C 169.820 316.000,170.000 316.900,170.000 318.000 C 170.000 319.100,170.180 320.000,170.400 320.000 C 170.620 320.000,170.800 320.360,170.800 320.800 C 170.800 321.240,170.980 321.600,171.200 321.600 C 171.420 321.600,171.600 321.920,171.600 322.312 C 171.600 322.703,171.960 323.283,172.400 323.600 C 172.840 323.917,173.200 324.325,173.200 324.506 C 173.200 324.935,175.065 326.800,175.494 326.800 C 175.675 326.800,176.083 327.160,176.400 327.600 C 176.717 328.040,177.257 328.400,177.600 328.400 C 177.943 328.400,178.483 328.760,178.800 329.200 C 179.117 329.640,179.657 330.000,180.000 330.000 C 180.343 330.000,180.883 330.360,181.200 330.800 C 181.517 331.240,182.057 331.600,182.400 331.600 C 182.743 331.600,183.283 331.960,183.600 332.400 C 183.917 332.840,184.457 333.200,184.800 333.200 C 185.143 333.200,185.683 333.560,186.000 334.000 C 186.317 334.440,186.857 334.800,187.200 334.800 C 187.543 334.800,188.083 335.160,188.400 335.600 C 188.717 336.040,189.297 336.400,189.688 336.400 C 190.080 336.400,190.400 336.580,190.400 336.800 C 190.400 337.020,190.694 337.200,191.053 337.200 C 191.412 337.200,191.997 337.516,192.353 337.903 C 192.709 338.289,193.540 338.874,194.200 339.202 C 194.860 339.530,195.490 339.909,195.600 340.044 C 195.975 340.502,198.358 341.600,198.980 341.600 C 199.321 341.600,199.600 341.780,199.600 342.000 C 199.600 342.220,199.920 342.400,200.312 342.400 C 200.703 342.400,201.283 342.760,201.600 343.200 C 201.917 343.640,202.497 344.000,202.888 344.000 C 203.280 344.000,203.600 344.180,203.600 344.400 C 203.600 344.620,203.960 344.800,204.400 344.800 C 204.840 344.800,205.200 344.980,205.200 345.200 C 205.200 345.420,205.560 345.600,206.000 345.600 C 206.440 345.600,206.800 345.780,206.800 346.000 C 206.800 346.220,207.120 346.400,207.512 346.400 C 207.903 346.400,208.483 346.760,208.800 347.200 C 209.117 347.640,209.607 348.000,209.888 348.000 C 210.170 348.000,210.400 348.180,210.400 348.400 C 210.400 348.620,210.760 348.800,211.200 348.800 C 211.640 348.800,212.000 348.980,212.000 349.200 C 212.000 349.420,212.360 349.600,212.800 349.600 C 213.240 349.600,213.600 349.780,213.600 350.000 C 213.600 350.220,213.960 350.400,214.400 350.400 C 214.840 350.400,215.200 350.580,215.200 350.800 C 215.200 351.020,215.560 351.200,216.000 351.200 C 216.440 351.200,216.800 351.380,216.800 351.600 C 216.800 351.820,217.160 352.000,217.600 352.000 C 218.040 352.000,218.400 352.180,218.400 352.400 C 218.400 352.620,218.760 352.800,219.200 352.800 C 219.640 352.800,220.000 352.980,220.000 353.200 C 220.000 353.420,220.360 353.600,220.800 353.600 C 221.240 353.600,221.600 353.780,221.600 354.000 C 221.600 354.220,221.960 354.400,222.400 354.400 C 222.840 354.400,223.200 354.580,223.200 354.800 C 223.200 355.020,223.545 355.200,223.967 355.200 C 224.388 355.200,224.793 355.342,224.867 355.515 C 224.940 355.688,226.080 356.329,227.400 356.940 C 228.720 357.551,230.113 358.220,230.495 358.426 C 230.877 358.631,231.462 358.800,231.795 358.800 C 232.128 358.800,232.400 358.980,232.400 359.200 C 232.400 359.420,232.760 359.600,233.200 359.600 C 233.640 359.600,234.000 359.780,234.000 360.000 C 234.000 360.220,234.360 360.400,234.800 360.400 C 235.240 360.400,235.600 360.580,235.600 360.800 C 235.600 361.020,235.960 361.200,236.400 361.200 C 236.840 361.200,237.200 361.380,237.200 361.600 C 237.200 361.820,237.560 362.000,238.000 362.000 C 238.440 362.000,238.800 362.180,238.800 362.400 C 238.800 362.620,239.340 362.800,240.000 362.800 C 240.660 362.800,241.200 362.980,241.200 363.200 C 241.200 363.420,241.470 363.600,241.800 363.600 C 242.130 363.600,242.400 363.780,242.400 364.000 C 242.400 364.220,242.760 364.400,243.200 364.400 C 243.640 364.400,244.000 364.580,244.000 364.800 C 244.000 365.020,244.360 365.200,244.800 365.200 C 245.240 365.200,245.600 365.380,245.600 365.600 C 245.600 365.820,246.140 366.000,246.800 366.000 C 247.460 366.000,248.000 366.180,248.000 366.400 C 248.000 366.620,248.360 366.800,248.800 366.800 C 249.240 366.800,249.600 366.980,249.600 367.200 C 249.600 367.420,249.960 367.600,250.400 367.600 C 250.840 367.600,251.200 367.780,251.200 368.000 C 251.200 368.220,251.740 368.400,252.400 368.400 C 253.060 368.400,253.600 368.580,253.600 368.800 C 253.600 369.020,253.960 369.200,254.400 369.200 C 254.840 369.200,255.200 369.380,255.200 369.600 C 255.200 369.820,255.725 370.000,256.367 370.000 C 257.008 370.000,257.593 370.135,257.667 370.300 C 257.885 370.791,261.216 372.400,262.014 372.400 C 262.420 372.400,262.864 372.580,263.000 372.800 C 263.136 373.020,263.687 373.200,264.224 373.200 C 264.761 373.200,265.200 373.340,265.200 373.511 C 265.200 373.819,269.388 375.200,270.320 375.200 C 270.584 375.200,270.800 375.380,270.800 375.600 C 270.800 375.820,271.340 376.000,272.000 376.000 C 272.660 376.000,273.200 376.180,273.200 376.400 C 273.200 376.620,273.639 376.800,274.176 376.800 C 274.713 376.800,275.264 376.980,275.400 377.200 C 275.536 377.420,276.087 377.600,276.624 377.600 C 277.161 377.600,277.600 377.780,277.600 378.000 C 277.600 378.220,277.960 378.400,278.400 378.400 C 278.840 378.400,279.200 378.580,279.200 378.800 C 279.200 379.020,279.740 379.200,280.400 379.200 C 281.060 379.200,281.600 379.380,281.600 379.600 C 281.600 379.820,282.140 380.000,282.800 380.000 C 283.460 380.000,284.000 380.180,284.000 380.400 C 284.000 380.620,284.540 380.800,285.200 380.800 C 285.860 380.800,286.400 380.980,286.400 381.200 C 286.400 381.420,286.940 381.600,287.600 381.600 C 288.260 381.600,288.800 381.780,288.800 382.000 C 288.800 382.220,289.340 382.400,290.000 382.400 C 290.660 382.400,291.200 382.580,291.200 382.800 C 291.200 383.020,291.639 383.200,292.176 383.200 C 292.713 383.200,293.264 383.380,293.400 383.600 C 293.536 383.820,294.076 384.000,294.600 384.000 C 295.124 384.000,295.664 384.180,295.800 384.400 C 295.936 384.620,296.667 384.800,297.424 384.800 C 298.181 384.800,298.800 384.980,298.800 385.200 C 298.800 385.420,299.340 385.600,300.000 385.600 C 300.660 385.600,301.200 385.780,301.200 386.000 C 301.200 386.220,301.740 386.400,302.400 386.400 C 303.060 386.400,303.600 386.580,303.600 386.800 C 303.600 387.020,304.320 387.200,305.200 387.200 C 306.080 387.200,306.800 387.380,306.800 387.600 C 306.800 387.820,307.340 388.000,308.000 388.000 C 308.660 388.000,309.200 388.180,309.200 388.400 C 309.200 388.620,309.819 388.800,310.576 388.800 C 311.333 388.800,312.064 388.980,312.200 389.200 C 312.336 389.420,313.067 389.600,313.824 389.600 C 314.581 389.600,315.200 389.760,315.200 389.956 C 315.200 390.152,315.785 390.409,316.500 390.527 C 317.215 390.646,318.610 390.927,319.600 391.154 C 320.590 391.380,322.165 391.573,323.100 391.583 C 324.035 391.592,324.800 391.780,324.800 392.000 C 324.800 392.220,325.430 392.400,326.200 392.400 C 326.970 392.400,327.600 392.580,327.600 392.800 C 327.600 393.020,328.320 393.200,329.200 393.200 C 330.080 393.200,330.800 393.380,330.800 393.600 C 330.800 393.820,331.700 394.000,332.800 394.000 C 333.900 394.000,334.800 394.180,334.800 394.400 C 334.800 394.620,335.700 394.800,336.800 394.800 C 337.900 394.800,338.800 394.980,338.800 395.200 C 338.800 395.420,339.599 395.600,340.576 395.600 C 341.553 395.600,342.464 395.780,342.600 396.000 C 342.736 396.220,343.827 396.400,345.024 396.400 C 346.221 396.400,347.200 396.580,347.200 396.800 C 347.200 397.022,348.267 397.200,349.600 397.200 C 350.933 397.200,352.000 397.378,352.000 397.600 C 352.000 397.822,353.067 398.000,354.400 398.000 C 355.733 398.000,356.800 398.178,356.800 398.400 C 356.800 398.631,358.056 398.800,359.767 398.800 C 361.606 398.800,362.790 398.971,362.883 399.249 C 363.111 399.932,388.469 399.982,388.698 399.300 C 388.791 399.025,389.212 398.800,389.633 398.800 C 390.055 398.800,390.400 398.620,390.400 398.400 C 390.400 398.180,390.585 398.000,390.811 398.000 C 391.457 398.000,394.800 394.489,394.800 393.811 C 394.800 393.475,394.980 393.200,395.200 393.200 C 395.420 393.200,395.600 392.840,395.600 392.400 C 395.600 391.960,395.780 391.600,396.000 391.600 C 396.220 391.600,396.400 391.330,396.400 391.000 C 396.400 390.670,396.580 390.400,396.800 390.400 C 397.020 390.400,397.200 389.680,397.200 388.800 C 397.200 387.920,397.380 387.200,397.600 387.200 C 397.857 387.200,398.000 383.400,398.000 376.600 C 398.000 369.800,397.857 366.000,397.600 366.000 C 397.353 366.000,397.200 363.933,397.200 360.600 C 397.200 357.267,397.047 355.200,396.800 355.200 C 396.563 355.200,396.400 353.733,396.400 351.600 C 396.400 349.467,396.237 348.000,396.000 348.000 C 395.775 348.000,395.600 346.875,395.600 345.424 C 395.600 344.007,395.420 342.736,395.200 342.600 C 394.980 342.464,394.800 341.373,394.800 340.176 C 394.800 338.979,394.620 338.000,394.400 338.000 C 394.178 338.000,394.000 336.933,394.000 335.600 C 394.000 334.267,393.822 333.200,393.600 333.200 C 393.380 333.200,393.200 332.300,393.200 331.200 C 393.200 330.100,393.020 329.200,392.800 329.200 C 392.580 329.200,392.400 328.390,392.400 327.400 C 392.400 326.410,392.241 325.600,392.047 325.600 C 391.853 325.600,391.568 324.251,391.413 322.603 C 391.259 320.954,390.967 319.504,390.766 319.379 C 390.565 319.255,390.400 318.443,390.400 317.576 C 390.400 316.709,390.220 316.000,390.000 316.000 C 389.780 316.000,389.600 315.381,389.600 314.624 C 389.600 313.867,389.420 313.136,389.200 313.000 C 388.980 312.864,388.800 312.144,388.800 311.400 C 388.800 310.656,388.620 309.936,388.400 309.800 C 388.180 309.664,388.000 308.933,388.000 308.176 C 388.000 307.419,387.820 306.800,387.600 306.800 C 387.380 306.800,387.200 306.260,387.200 305.600 C 387.200 304.940,387.020 304.400,386.800 304.400 C 386.580 304.400,386.400 303.860,386.400 303.200 C 386.400 302.540,386.220 302.000,386.000 302.000 C 385.780 302.000,385.600 301.280,385.600 300.400 C 385.600 299.520,385.420 298.800,385.200 298.800 C 384.980 298.800,384.800 298.260,384.800 297.600 C 384.800 296.940,384.620 296.400,384.400 296.400 C 384.180 296.400,384.000 295.860,384.000 295.200 C 384.000 294.540,383.820 294.000,383.600 294.000 C 383.380 294.000,383.200 293.550,383.200 293.000 C 383.200 292.450,383.020 292.000,382.800 292.000 C 382.580 292.000,382.400 291.460,382.400 290.800 C 382.400 290.140,382.220 289.600,382.000 289.600 C 381.780 289.600,381.600 289.060,381.600 288.400 C 381.600 287.740,381.420 287.200,381.200 287.200 C 380.980 287.200,380.800 286.840,380.800 286.400 C 380.800 285.960,380.620 285.600,380.400 285.600 C 380.180 285.600,380.000 285.060,380.000 284.400 C 380.000 283.740,379.820 283.200,379.600 283.200 C 379.380 283.200,379.200 282.660,379.200 282.000 C 379.200 281.340,379.020 280.800,378.800 280.800 C 378.580 280.800,378.400 280.260,378.400 279.600 C 378.400 278.940,378.220 278.400,378.000 278.400 C 377.780 278.400,377.600 278.040,377.600 277.600 C 377.600 277.160,377.420 276.800,377.200 276.800 C 376.980 276.800,376.800 276.350,376.800 275.800 C 376.800 275.250,376.620 274.800,376.400 274.800 C 376.180 274.800,376.000 274.440,376.000 274.000 C 376.000 273.560,375.820 273.200,375.600 273.200 C 375.380 273.200,375.199 272.705,375.198 272.100 C 375.196 271.495,374.958 270.546,374.669 269.991 C 374.379 269.437,373.891 268.132,373.584 267.091 C 373.277 266.051,372.885 265.200,372.713 265.200 C 372.541 265.200,372.400 264.840,372.400 264.400 C 372.400 263.960,372.220 263.600,372.000 263.600 C 371.780 263.600,371.600 263.257,371.600 262.838 C 371.600 262.022,369.999 258.688,369.500 258.467 C 369.335 258.393,369.200 257.988,369.200 257.567 C 369.200 257.145,369.020 256.800,368.800 256.800 C 368.580 256.800,368.400 256.260,368.400 255.600 C 368.400 254.940,368.220 254.400,368.000 254.400 C 367.780 254.400,367.600 254.040,367.600 253.600 C 367.600 253.160,367.420 252.800,367.200 252.800 C 366.980 252.800,366.800 252.440,366.800 252.000 C 366.800 251.560,366.620 251.200,366.400 251.200 C 366.180 251.200,366.000 250.840,366.000 250.400 C 366.000 249.960,365.820 249.600,365.600 249.600 C 365.380 249.600,365.200 249.240,365.200 248.800 C 365.200 248.360,365.020 248.000,364.800 248.000 C 364.580 248.000,364.400 247.640,364.400 247.200 C 364.400 246.760,364.220 246.400,364.000 246.400 C 363.780 246.400,363.600 246.040,363.600 245.600 C 363.600 245.160,363.420 244.800,363.200 244.800 C 362.980 244.800,362.800 244.350,362.800 243.800 C 362.800 243.250,362.620 242.800,362.400 242.800 C 362.180 242.800,362.000 242.440,362.000 242.000 C 362.000 241.560,361.820 241.200,361.600 241.200 C 361.380 241.200,361.200 240.840,361.200 240.400 C 361.200 239.960,361.020 239.600,360.800 239.600 C 360.580 239.600,360.400 239.306,360.400 238.947 C 360.400 238.588,360.085 238.003,359.700 237.647 C 359.009 237.008,358.114 235.050,357.713 233.300 C 357.599 232.805,357.348 232.400,357.153 232.400 C 356.959 232.400,356.800 232.040,356.800 231.600 C 356.800 231.160,356.620 230.800,356.400 230.800 C 356.180 230.800,356.000 230.455,356.000 230.033 C 356.000 229.612,355.865 229.207,355.700 229.133 C 355.535 229.060,354.953 228.100,354.407 227.000 C 353.861 225.900,353.096 224.709,352.707 224.353 C 352.318 223.997,352.000 223.412,352.000 223.053 C 352.000 222.694,351.820 222.400,351.600 222.400 C 351.380 222.400,351.200 222.040,351.200 221.600 C 351.200 221.160,351.020 220.800,350.800 220.800 C 350.580 220.800,350.400 220.440,350.400 220.000 C 350.400 219.560,350.220 219.200,350.000 219.200 C 349.780 219.200,349.600 218.880,349.600 218.488 C 349.600 218.097,349.240 217.517,348.800 217.200 C 348.360 216.883,348.000 216.303,348.000 215.912 C 348.000 215.520,347.820 215.200,347.600 215.200 C 347.380 215.200,347.200 214.880,347.200 214.488 C 347.200 214.097,346.840 213.517,346.400 213.200 C 345.960 212.883,345.600 212.303,345.600 211.912 C 345.600 211.520,345.420 211.200,345.200 211.200 C 344.980 211.200,344.800 210.880,344.800 210.488 C 344.800 210.097,344.440 209.517,344.000 209.200 C 343.560 208.883,343.200 208.393,343.200 208.112 C 343.200 207.830,343.020 207.600,342.800 207.600 C 342.580 207.600,342.400 207.240,342.400 206.800 C 342.400 206.360,342.265 206.000,342.099 206.000 C 341.934 206.000,341.289 204.920,340.665 203.600 C 340.042 202.280,339.367 201.200,339.166 201.200 C 338.965 201.200,338.800 200.880,338.800 200.488 C 338.800 200.097,338.440 199.517,338.000 199.200 C 337.560 198.883,337.200 198.303,337.200 197.912 C 337.200 197.520,337.020 197.200,336.800 197.200 C 336.580 197.200,336.400 196.964,336.400 196.675 C 336.400 196.387,336.085 195.802,335.700 195.375 C 335.315 194.949,334.745 194.105,334.432 193.500 C 334.120 192.895,333.715 192.400,333.532 192.400 C 333.350 192.400,333.200 192.170,333.200 191.888 C 333.200 191.607,332.840 191.117,332.400 190.800 C 331.960 190.483,331.600 189.943,331.600 189.600 C 331.600 189.257,331.240 188.717,330.800 188.400 C 330.360 188.083,330.000 187.543,330.000 187.200 C 330.000 186.857,329.640 186.317,329.200 186.000 C 328.760 185.683,328.400 185.175,328.400 184.872 C 328.400 184.569,327.860 183.817,327.200 183.200 C 326.540 182.583,326.000 181.791,326.000 181.440 C 326.000 181.088,325.841 180.800,325.646 180.800 C 325.451 180.800,325.012 180.215,324.672 179.500 C 323.968 178.024,321.930 176.024,320.300 175.213 C 319.695 174.911,319.200 174.515,319.200 174.332 C 319.200 174.150,318.660 174.000,318.000 174.000 C 317.340 174.000,316.800 173.820,316.800 173.600 C 316.800 173.380,316.080 173.200,315.200 173.200 C 314.320 173.200,313.600 173.020,313.600 172.800 C 313.600 172.574,312.467 172.400,311.000 172.400 C 309.533 172.400,308.400 172.574,308.400 172.800 C 308.400 173.020,307.680 173.200,306.800 173.200 C 305.920 173.200,305.200 173.380,305.200 173.600 C 305.200 173.820,304.660 174.000,304.000 174.000 C 303.340 174.000,302.800 174.153,302.800 174.339 C 302.800 174.526,302.080 175.003,301.200 175.400 C 300.320 175.797,299.600 176.274,299.600 176.461 C 299.600 176.647,299.364 176.800,299.075 176.800 C 298.787 176.800,298.202 177.115,297.775 177.500 C 297.349 177.885,296.505 178.455,295.900 178.768 C 295.295 179.080,294.800 179.485,294.800 179.668 C 294.800 179.850,294.440 180.000,294.000 180.000 C 293.560 180.000,293.200 180.180,293.200 180.400 C 293.200 180.620,292.930 180.800,292.600 180.800 C 292.270 180.800,292.000 180.980,292.000 181.200 C 292.000 181.420,291.680 181.600,291.288 181.600 C 290.897 181.600,290.317 181.960,290.000 182.400 C 289.683 182.840,289.103 183.200,288.712 183.200 C 288.320 183.200,288.000 183.380,288.000 183.600 C 288.000 183.820,287.640 184.000,287.200 184.000 C 286.760 184.000,286.400 184.180,286.400 184.400 C 286.400 184.620,285.860 184.800,285.200 184.800 C 284.540 184.800,284.000 184.980,284.000 185.200 C 284.000 185.420,283.640 185.600,283.200 185.600 C 282.760 185.600,282.400 185.780,282.400 186.000 C 282.400 186.220,281.860 186.400,281.200 186.400 C 280.540 186.400,280.000 186.580,280.000 186.800 C 280.000 187.020,279.640 187.200,279.200 187.200 C 278.760 187.200,278.400 187.380,278.400 187.600 C 278.400 187.820,277.860 188.000,277.200 188.000 C 276.540 188.000,276.000 188.180,276.000 188.400 C 276.000 188.620,275.370 188.800,274.600 188.800 C 273.830 188.800,273.200 188.980,273.200 189.200 C 273.200 189.420,272.300 189.600,271.200 189.600 C 270.100 189.600,269.200 189.780,269.200 190.000 C 269.200 190.220,268.660 190.400,268.000 190.400 C 267.340 190.400,266.800 190.580,266.800 190.800 C 266.800 191.020,266.558 191.200,266.261 191.200 C 265.965 191.200,265.194 191.464,264.547 191.786 C 263.517 192.301,263.102 192.301,261.186 191.791 C 259.984 191.471,257.245 191.207,255.100 191.205 C 252.770 191.202,251.200 191.039,251.200 190.800 C 251.200 190.571,250.000 190.400,248.400 190.400 C 246.800 190.400,245.600 190.229,245.600 190.000 C 245.600 189.780,244.700 189.600,243.600 189.600 C 242.500 189.600,241.600 189.420,241.600 189.200 C 241.600 188.980,240.970 188.800,240.200 188.800 C 239.430 188.800,238.800 188.620,238.800 188.400 C 238.800 188.180,238.260 188.000,237.600 188.000 C 236.940 188.000,236.400 187.820,236.400 187.600 C 236.400 187.380,235.860 187.200,235.200 187.200 C 234.540 187.200,234.000 187.020,234.000 186.800 C 234.000 186.580,233.280 186.400,232.400 186.400 C 231.520 186.400,230.800 186.220,230.800 186.000 C 230.800 185.780,229.900 185.600,228.800 185.600 C 227.067 185.600,226.800 185.493,226.800 184.800 C 226.800 184.360,226.620 184.000,226.400 184.000 C 226.180 184.000,226.000 183.460,226.000 182.800 C 226.000 182.140,225.820 181.600,225.600 181.600 C 225.380 181.600,225.200 181.265,225.200 180.856 C 225.200 180.447,224.750 179.449,224.200 178.638 C 223.650 177.828,223.200 177.020,223.200 176.844 C 223.200 176.668,222.840 176.198,222.400 175.800 C 221.960 175.402,221.600 174.921,221.600 174.732 C 221.600 174.221,214.884 167.600,214.366 167.600 C 214.121 167.600,213.417 167.060,212.800 166.400 C 212.183 165.740,211.391 165.200,211.040 165.200 C 210.688 165.200,210.400 165.020,210.400 164.800 C 210.400 164.580,210.055 164.400,209.633 164.400 C 209.212 164.400,208.807 164.265,208.733 164.100 C 208.515 163.609,205.184 162.000,204.386 162.000 C 203.980 162.000,203.536 161.820,203.400 161.600 C 203.264 161.380,202.533 161.200,201.776 161.200 C 201.019 161.200,200.400 161.020,200.400 160.800 C 200.400 160.578,199.341 160.400,198.024 160.400 C 196.717 160.400,195.536 160.220,195.400 160.000 C 195.264 159.780,194.713 159.600,194.176 159.600 C 193.575 159.600,193.200 159.369,193.200 159.000 C 193.200 158.670,193.020 158.400,192.800 158.400 C 192.580 158.400,192.400 158.040,192.400 157.600 C 192.400 157.160,192.220 156.800,192.000 156.800 C 191.780 156.800,191.600 156.453,191.600 156.029 C 191.600 155.604,191.330 154.987,191.000 154.657 C 190.670 154.327,190.400 153.900,190.400 153.708 C 190.400 152.843,176.676 139.600,175.779 139.600 C 175.461 139.600,175.200 139.421,175.200 139.203 C 175.200 138.984,172.053 135.699,168.206 131.903 C 159.109 122.924,159.873 123.684,151.805 115.600 C 143.205 106.984,143.016 106.795,134.400 98.195 C 130.550 94.352,126.884 90.687,126.253 90.051 C 124.762 88.546,111.454 75.238,109.949 73.747 C 109.313 73.116,105.648 69.450,101.805 65.600 C 97.962 61.750,94.073 57.857,93.161 56.948 C 92.250 56.039,88.534 52.326,84.904 48.696 C 81.274 45.066,77.583 41.377,76.702 40.498 C 74.622 38.426,61.574 25.378,59.502 23.298 C 55.179 18.960,44.611 8.404,43.105 6.919 C 42.167 5.994,40.770 4.517,40.000 3.637 C 39.230 2.757,38.351 2.029,38.047 2.018 C 37.743 2.008,37.143 1.595,36.714 1.100 C 35.959 0.229,15.566 -0.462,12.100 0.267 M102.981 89.895 C 143.801 130.647,177.200 164.150,177.200 164.346 C 177.200 164.542,176.615 164.938,175.900 165.225 C 171.463 167.005,165.168 172.408,161.596 177.500 C 160.632 178.875,159.693 180.000,159.511 180.000 C 159.329 180.000,149.399 170.235,137.446 158.300 C 125.493 146.365,93.818 114.756,67.057 88.058 L 18.400 39.515 18.400 27.546 L 18.400 15.577 23.581 15.688 L 28.762 15.800 102.981 89.895 M196.841 176.967 C 200.779 178.163,205.082 180.742,206.858 182.973 C 207.220 183.428,207.919 184.250,208.412 184.800 C 217.848 195.334,212.022 212.822,197.200 218.457 C 191.486 220.629,181.623 218.114,176.376 213.148 C 166.675 203.964,168.601 185.206,179.827 179.539 C 180.472 179.214,181.360 178.755,181.800 178.520 C 182.694 178.043,184.009 177.509,185.800 176.896 C 187.617 176.274,194.708 176.320,196.841 176.967 M316.948 197.322 C 319.287 200.800,321.200 203.731,321.200 203.836 C 321.200 203.941,322.460 205.905,324.000 208.200 C 325.540 210.495,326.800 212.457,326.800 212.558 C 326.800 212.660,327.676 214.151,328.748 215.872 C 330.817 219.196,334.028 224.624,335.685 227.600 C 336.236 228.590,337.096 230.120,337.595 231.000 C 341.582 238.023,350.838 256.518,354.010 263.800 C 354.489 264.900,355.204 266.520,355.599 267.400 C 355.994 268.280,356.606 269.675,356.958 270.500 C 358.624 274.395,358.906 275.060,359.241 275.900 C 359.438 276.395,359.762 277.205,359.960 277.700 C 360.158 278.195,360.698 279.453,361.160 280.496 C 361.622 281.538,362.000 282.548,362.000 282.741 C 362.000 282.933,362.511 284.330,363.135 285.845 C 364.284 288.632,369.062 302.686,369.988 306.000 C 370.265 306.990,370.626 308.160,370.790 308.600 C 371.534 310.592,372.000 312.325,372.000 313.105 C 372.000 313.571,372.160 314.052,372.356 314.173 C 372.551 314.294,372.805 314.979,372.919 315.696 C 373.032 316.413,373.334 317.720,373.589 318.600 C 374.276 320.968,375.174 324.618,376.000 328.400 C 376.264 329.610,376.645 331.320,376.845 332.200 C 377.046 333.080,377.378 334.790,377.585 336.000 C 377.791 337.210,378.156 339.280,378.395 340.600 C 380.434 351.848,381.309 361.651,381.358 373.800 L 381.400 384.200 379.800 384.341 C 375.660 384.705,348.927 380.950,337.800 378.441 C 336.920 378.243,335.210 377.864,334.000 377.600 C 331.414 377.035,329.180 376.511,327.100 375.982 C 326.275 375.772,324.925 375.428,324.100 375.218 C 323.275 375.008,321.880 374.660,321.000 374.445 C 320.120 374.229,318.770 373.871,318.000 373.649 C 314.762 372.715,313.344 372.333,312.400 372.142 C 311.850 372.031,311.040 371.798,310.600 371.625 C 310.160 371.452,309.170 371.130,308.400 370.909 C 307.630 370.689,306.190 370.275,305.200 369.990 C 302.602 369.242,284.929 363.418,282.800 362.607 C 281.810 362.231,280.010 361.562,278.800 361.122 C 276.181 360.170,275.331 359.845,274.000 359.290 C 273.450 359.060,270.840 358.031,268.200 357.002 C 263.323 355.102,262.472 354.750,259.104 353.247 C 258.062 352.781,257.122 352.400,257.016 352.400 C 256.910 352.400,255.873 351.971,254.712 351.447 C 253.550 350.923,251.160 349.861,249.400 349.087 C 245.017 347.161,237.107 343.440,234.200 341.938 C 232.880 341.256,228.380 338.943,224.200 336.799 C 220.020 334.655,214.170 331.508,211.200 329.806 C 208.230 328.104,205.170 326.350,204.400 325.909 C 203.630 325.467,202.522 324.767,201.938 324.353 C 201.354 323.939,200.679 323.600,200.438 323.600 C 200.197 323.600,200.000 323.420,200.000 323.200 C 200.000 322.980,199.826 322.800,199.613 322.800 C 199.294 322.800,197.209 321.552,193.600 319.199 C 193.270 318.984,191.517 317.861,189.705 316.704 C 185.714 314.155,185.650 314.016,187.286 311.466 C 190.146 307.009,196.000 295.198,196.000 293.884 C 196.000 293.596,196.148 293.189,196.328 292.980 C 196.508 292.771,197.070 291.250,197.576 289.600 C 198.083 287.950,198.638 286.150,198.810 285.600 C 199.243 284.219,199.889 281.440,200.421 278.670 C 200.953 275.904,200.544 275.821,206.411 279.884 C 213.811 285.009,233.426 298.040,238.200 301.003 C 240.620 302.506,244.040 304.628,245.800 305.721 C 248.949 307.675,250.126 308.372,253.100 310.043 C 253.925 310.506,254.780 311.027,255.000 311.200 C 255.220 311.373,256.075 311.894,256.900 312.357 C 257.725 312.821,259.075 313.587,259.900 314.059 C 261.310 314.866,262.190 315.347,268.200 318.594 C 273.925 321.687,280.581 324.895,289.296 328.759 C 290.338 329.222,291.376 329.600,291.601 329.600 C 291.826 329.600,292.323 329.774,292.705 329.986 C 293.727 330.554,300.199 332.628,303.200 333.349 C 318.928 337.130,328.214 333.782,332.459 322.800 C 333.171 320.958,333.200 310.083,332.500 307.700 C 332.225 306.765,331.796 305.235,331.546 304.300 C 330.941 302.030,329.650 298.040,329.120 296.800 C 328.885 296.250,328.555 295.440,328.387 295.000 C 328.057 294.135,327.381 292.540,326.014 289.400 C 323.711 284.111,319.011 275.265,312.307 263.602 C 311.865 262.833,310.985 261.451,310.352 260.530 C 309.718 259.609,309.200 258.759,309.200 258.640 C 309.200 258.407,307.657 255.975,300.705 245.251 C 298.227 241.429,295.885 237.937,295.500 237.490 C 295.115 237.043,294.800 236.538,294.800 236.367 C 294.800 236.197,294.564 235.819,294.276 235.529 C 293.988 235.238,292.788 233.560,291.610 231.800 C 288.357 226.942,278.647 213.418,278.303 213.267 C 278.136 213.193,278.000 212.878,278.000 212.567 C 278.000 212.255,277.859 212.000,277.686 212.000 C 277.514 212.000,277.057 211.467,276.672 210.815 C 276.287 210.163,275.746 209.398,275.470 209.115 C 273.278 206.870,273.164 205.711,275.100 205.380 C 275.925 205.239,277.140 204.967,277.800 204.774 C 284.581 202.796,286.536 202.125,290.800 200.310 C 293.753 199.054,299.258 196.217,302.017 194.530 C 303.438 193.662,305.041 192.692,305.580 192.376 C 306.118 192.059,306.917 191.485,307.355 191.100 C 307.793 190.715,308.304 190.400,308.492 190.400 C 308.680 190.400,309.224 190.036,309.701 189.592 L 310.568 188.784 311.632 189.892 C 312.217 190.501,314.610 193.845,316.948 197.322 M235.000 204.156 C 241.705 205.887,246.370 206.681,251.800 207.016 C 256.082 207.280,256.101 207.290,258.005 210.000 C 258.546 210.770,259.207 211.670,259.474 212.000 C 260.521 213.294,267.112 222.311,268.392 224.200 C 269.137 225.300,269.863 226.290,270.004 226.400 C 270.145 226.510,271.037 227.753,271.987 229.162 C 272.937 230.571,273.950 232.011,274.239 232.362 C 275.202 233.531,280.851 241.734,284.319 247.000 C 286.203 249.860,287.892 252.260,288.072 252.333 C 288.253 252.407,288.400 252.633,288.400 252.836 C 288.400 253.039,289.909 255.499,291.754 258.303 C 295.536 264.050,299.739 270.815,301.383 273.800 C 301.988 274.900,302.619 275.980,302.784 276.200 C 303.256 276.828,305.892 281.675,309.526 288.600 C 316.868 302.587,320.638 316.599,317.818 319.418 C 316.754 320.482,312.699 320.817,310.160 320.050 C 309.522 319.857,308.010 319.478,306.800 319.206 C 298.371 317.316,280.466 309.258,266.831 301.218 C 265.695 300.548,264.701 300.000,264.623 300.000 C 264.545 300.000,261.628 298.264,258.140 296.141 C 254.653 294.019,251.396 292.084,250.903 291.841 C 250.410 291.599,250.005 291.265,250.003 291.100 C 250.001 290.935,249.818 290.800,249.596 290.800 C 249.374 290.800,247.709 289.836,245.896 288.658 C 244.083 287.480,238.755 284.027,234.056 280.986 C 229.357 277.944,225.275 275.218,224.985 274.927 C 224.695 274.637,224.292 274.400,224.091 274.400 C 223.889 274.400,223.398 274.040,223.000 273.600 C 222.602 273.160,222.049 272.800,221.771 272.800 C 221.494 272.800,221.207 272.653,221.133 272.472 C 221.060 272.292,219.830 271.363,218.400 270.408 C 216.970 269.453,212.709 266.519,208.932 263.888 L 202.064 259.104 201.797 255.652 C 201.413 250.693,200.568 244.809,199.578 240.200 C 198.266 234.087,198.171 232.800,199.033 232.800 C 200.702 232.800,209.590 229.148,209.933 228.321 C 210.007 228.145,210.277 227.997,210.533 227.993 C 213.660 227.944,223.340 215.773,225.162 209.600 C 225.454 208.610,225.837 207.350,226.013 206.800 C 226.189 206.250,226.439 205.187,226.569 204.438 C 226.951 202.234,227.339 201.999,229.513 202.657 C 230.551 202.970,233.020 203.645,235.000 204.156 " stroke="none" fill="#fbfbfb" fill-rule="evenodd"></path><path id="path1" d="M19.067 16.267 C 18.920 16.413,18.800 21.615,18.800 27.826 L 18.800 39.119 67.500 87.652 C 150.693 170.560,159.567 179.367,159.721 179.181 C 159.803 179.081,160.478 178.101,161.221 177.003 C 164.258 172.513,169.420 167.935,174.300 165.405 C 175.455 164.806,176.400 164.260,176.400 164.191 C 176.400 164.074,158.819 146.489,64.929 52.700 L 28.190 16.000 23.762 16.000 C 21.326 16.000,19.213 16.120,19.067 16.267 M187.000 177.296 C 180.480 178.907,175.377 182.888,172.625 188.512 C 165.792 202.479,175.662 218.408,191.142 218.398 C 209.947 218.386,219.195 196.351,205.959 183.092 C 200.944 178.068,193.316 175.736,187.000 177.296 M309.600 190.332 C 309.600 190.515,309.105 190.920,308.500 191.232 C 307.895 191.545,307.051 192.115,306.625 192.500 C 306.198 192.885,305.613 193.200,305.325 193.200 C 305.036 193.200,304.800 193.359,304.800 193.553 C 304.800 193.748,304.485 194.010,304.100 194.136 C 303.715 194.262,302.500 194.922,301.400 195.603 C 299.073 197.044,289.804 201.600,289.200 201.600 C 288.974 201.600,288.477 201.759,288.095 201.953 C 285.892 203.074,280.715 204.800,279.558 204.800 C 279.167 204.800,278.736 204.980,278.600 205.200 C 278.464 205.420,277.812 205.600,277.150 205.600 C 274.756 205.600,273.914 206.519,275.111 207.825 C 275.502 208.251,276.264 209.230,276.805 210.000 C 277.346 210.770,278.010 211.670,278.280 212.000 C 279.034 212.919,281.080 215.757,284.480 220.600 C 286.180 223.020,287.892 225.430,288.285 225.956 C 291.411 230.137,306.400 252.687,306.400 253.209 C 306.400 253.424,306.580 253.600,306.800 253.600 C 307.020 253.600,307.200 253.790,307.200 254.022 C 307.200 254.254,307.920 255.504,308.800 256.800 C 309.680 258.096,310.400 259.346,310.400 259.578 C 310.400 259.810,310.580 260.000,310.800 260.000 C 311.020 260.000,311.200 260.177,311.200 260.392 C 311.200 260.608,311.808 261.735,312.551 262.897 C 317.472 270.588,325.773 286.792,329.204 295.400 C 342.890 329.738,324.624 345.038,288.904 329.154 C 287.972 328.739,287.105 328.400,286.979 328.400 C 285.719 328.400,263.299 316.899,256.459 312.744 C 255.062 311.895,253.834 311.200,253.731 311.200 C 253.628 311.200,252.759 310.660,251.800 310.000 C 250.841 309.340,249.941 308.800,249.800 308.800 C 249.659 308.800,248.759 308.260,247.800 307.600 C 246.841 306.940,245.863 306.400,245.628 306.400 C 245.393 306.400,245.199 306.265,245.197 306.100 C 245.195 305.935,244.790 305.604,244.297 305.365 C 241.531 304.023,220.934 290.561,206.931 280.944 C 201.625 277.299,201.307 277.168,201.023 278.500 C 200.918 278.995,200.529 280.840,200.159 282.600 C 199.554 285.480,197.701 291.735,196.840 293.800 C 196.657 294.240,196.317 295.050,196.085 295.600 C 195.852 296.150,195.333 297.399,194.931 298.376 C 194.529 299.352,193.414 301.692,192.453 303.576 C 191.492 305.459,190.502 307.404,190.253 307.897 C 190.004 308.390,189.665 308.795,189.500 308.797 C 189.335 308.799,189.200 308.993,189.200 309.228 C 189.200 309.463,188.660 310.441,188.000 311.400 C 187.340 312.359,186.800 313.330,186.800 313.557 C 186.800 314.098,194.987 319.642,200.000 322.497 C 200.770 322.935,201.878 323.633,202.462 324.047 C 203.046 324.461,203.648 324.800,203.800 324.800 C 203.952 324.800,204.554 325.139,205.138 325.553 C 205.722 325.967,206.875 326.687,207.700 327.153 C 208.525 327.619,209.875 328.385,210.700 328.857 C 217.074 332.496,223.322 335.775,233.600 340.875 C 238.770 343.440,243.900 345.933,245.000 346.414 C 246.100 346.896,247.990 347.740,249.200 348.290 C 253.148 350.084,260.946 353.434,263.400 354.390 C 264.720 354.904,265.971 355.477,266.180 355.662 C 266.389 355.848,266.796 356.000,267.084 356.000 C 267.373 356.000,268.372 356.340,269.304 356.755 C 270.237 357.170,272.530 358.087,274.400 358.793 C 276.270 359.499,278.160 360.227,278.600 360.412 C 279.040 360.596,280.120 360.977,281.000 361.257 C 281.880 361.537,282.780 361.877,283.000 362.011 C 283.220 362.146,284.210 362.500,285.200 362.798 C 286.190 363.095,287.171 363.488,287.380 363.670 C 287.589 363.851,288.163 364.000,288.656 364.000 C 289.149 364.000,289.664 364.180,289.800 364.400 C 289.936 364.620,290.399 364.800,290.829 364.800 C 291.259 364.800,291.923 364.969,292.305 365.176 C 292.687 365.383,295.700 366.386,299.000 367.405 C 302.300 368.424,305.450 369.404,306.000 369.582 C 306.550 369.761,307.810 370.129,308.800 370.400 C 309.790 370.671,311.050 371.027,311.600 371.191 C 314.144 371.948,316.947 372.726,320.600 373.687 C 323.967 374.573,324.841 374.812,326.128 375.200 C 326.859 375.420,327.928 375.600,328.505 375.600 C 329.081 375.600,329.652 375.761,329.774 375.958 C 329.895 376.155,330.671 376.413,331.497 376.532 C 332.324 376.651,333.855 376.940,334.900 377.174 C 347.371 379.969,358.110 381.717,370.600 382.984 C 381.993 384.140,380.749 384.140,381.041 382.979 C 381.357 381.719,380.940 367.013,380.418 361.000 C 379.609 351.689,378.016 340.741,376.403 333.400 C 376.161 332.300,375.803 330.590,375.607 329.600 C 375.274 327.922,374.972 326.634,373.963 322.600 C 373.131 319.268,372.840 318.153,372.400 316.600 C 372.151 315.720,371.795 314.370,371.610 313.600 C 371.425 312.830,370.914 311.030,370.474 309.600 C 368.155 302.066,366.300 296.208,365.993 295.451 C 365.802 294.983,365.084 292.980,364.397 291.000 C 363.163 287.447,362.946 286.866,362.054 284.700 C 361.213 282.662,360.883 281.806,360.393 280.400 C 360.125 279.630,359.657 278.415,359.353 277.700 C 359.049 276.985,358.551 275.815,358.247 275.100 C 357.942 274.385,357.312 272.947,356.847 271.904 C 356.381 270.862,356.000 269.922,356.000 269.816 C 356.000 269.613,355.462 268.416,351.319 259.400 C 347.916 251.996,339.346 234.981,338.435 233.819 C 338.254 233.588,337.238 231.783,336.178 229.808 C 335.118 227.832,333.384 224.803,332.325 223.078 C 331.266 221.353,330.400 219.852,330.400 219.743 C 330.400 219.633,329.860 218.759,329.200 217.800 C 328.540 216.841,328.000 215.941,328.000 215.800 C 328.000 215.659,327.460 214.759,326.800 213.800 C 326.140 212.841,325.600 211.863,325.600 211.628 C 325.600 211.393,325.420 211.200,325.200 211.200 C 324.980 211.200,324.800 211.022,324.800 210.804 C 324.800 210.378,313.375 192.933,312.549 192.098 C 312.276 191.821,311.938 191.236,311.799 190.798 C 311.552 190.017,309.600 189.604,309.600 190.332 M227.257 204.368 C 227.006 205.207,226.800 206.266,226.800 206.723 C 226.800 207.179,226.620 207.664,226.400 207.800 C 226.180 207.936,226.000 208.399,226.000 208.829 C 226.000 209.259,225.841 209.923,225.647 210.305 C 225.452 210.687,225.071 211.540,224.800 212.200 C 221.410 220.446,213.513 228.232,205.200 231.526 C 203.990 232.005,202.055 232.675,200.900 233.014 C 199.745 233.353,198.800 233.698,198.800 233.780 C 198.800 233.862,199.226 235.790,199.747 238.065 C 201.155 244.217,202.403 252.715,202.409 256.200 C 202.413 258.605,202.468 258.695,205.000 260.400 C 206.100 261.141,207.090 261.849,207.200 261.974 C 207.469 262.278,208.530 263.010,217.400 269.013 C 221.580 271.842,225.090 274.257,225.200 274.379 C 225.310 274.501,225.895 274.856,226.500 275.168 C 227.105 275.480,227.600 275.885,227.600 276.068 C 227.600 276.250,227.842 276.400,228.138 276.400 C 228.434 276.400,229.002 276.760,229.400 277.200 C 229.798 277.640,230.338 278.000,230.600 278.000 C 230.862 278.000,231.402 278.360,231.800 278.800 C 232.198 279.240,232.664 279.600,232.835 279.600 C 233.006 279.600,235.162 280.950,237.626 282.600 C 240.090 284.250,242.179 285.600,242.268 285.600 C 242.358 285.600,244.037 286.680,246.000 288.000 C 247.963 289.320,249.676 290.400,249.807 290.400 C 249.937 290.400,251.104 291.120,252.400 292.000 C 253.696 292.880,254.838 293.600,254.937 293.600 C 255.037 293.600,256.352 294.352,257.859 295.271 C 261.261 297.344,266.629 300.463,269.800 302.209 C 271.120 302.935,273.370 304.175,274.800 304.964 C 297.441 317.450,316.839 322.966,318.255 317.322 C 319.072 314.069,315.180 301.217,310.789 292.662 C 310.355 291.816,310.000 290.871,310.000 290.562 C 310.000 290.253,309.820 290.000,309.600 290.000 C 309.380 290.000,309.200 289.655,309.200 289.233 C 309.200 288.812,309.065 288.407,308.900 288.333 C 308.735 288.260,308.044 287.120,307.365 285.800 C 306.685 284.480,305.650 282.545,305.065 281.500 C 304.479 280.455,303.575 278.835,303.054 277.900 C 301.006 274.216,296.700 266.999,295.581 265.372 C 294.931 264.428,294.400 263.560,294.400 263.443 C 294.400 263.325,291.025 258.163,286.900 251.972 C 282.775 245.780,279.220 240.418,279.000 240.057 C 278.780 239.696,278.496 239.310,278.370 239.200 C 278.243 239.090,277.357 237.830,276.400 236.400 C 275.443 234.970,274.542 233.710,274.398 233.600 C 274.254 233.490,273.208 232.050,272.074 230.400 C 269.270 226.321,267.927 224.449,264.608 220.000 C 263.049 217.910,261.161 215.300,260.413 214.200 C 259.665 213.100,258.942 212.110,258.807 212.000 C 258.672 211.890,258.126 211.170,257.594 210.400 C 256.091 208.225,255.944 208.140,253.191 207.864 C 245.484 207.090,240.880 206.324,235.000 204.840 C 234.120 204.618,232.860 204.314,232.200 204.164 C 231.540 204.015,230.820 203.762,230.600 203.603 C 229.105 202.518,227.716 202.836,227.257 204.368 " stroke="none" fill="#040404" fill-rule="evenodd"></path><path id="path2" d="M28.050 16.100 C 28.150 16.155,44.785 32.670,65.016 52.800 L 101.800 89.400 65.201 52.700 C 45.071 32.515,28.436 16.000,28.234 16.000 C 28.032 16.000,27.949 16.045,28.050 16.100 M31.400 52.000 C 32.928 53.540,34.269 54.800,34.379 54.800 C 34.489 54.800,33.328 53.540,31.800 52.000 C 30.272 50.460,28.931 49.200,28.821 49.200 C 28.711 49.200,29.872 50.460,31.400 52.000 M100.767 121.096 C 133.015 153.269,159.494 179.594,159.609 179.596 C 159.821 179.600,145.049 164.874,79.167 99.402 C 58.799 79.161,68.519 88.923,100.767 121.096 M114.200 102.000 C 116.171 103.980,117.873 105.600,117.983 105.600 C 118.093 105.600,116.571 103.980,114.600 102.000 C 112.629 100.020,110.927 98.400,110.817 98.400 C 110.707 98.400,112.229 100.020,114.200 102.000 M131.000 118.800 C 132.750 120.560,134.271 122.000,134.381 122.000 C 134.491 122.000,133.150 120.560,131.400 118.800 C 129.650 117.040,128.129 115.600,128.019 115.600 C 127.909 115.600,129.250 117.040,131.000 118.800 M147.800 135.600 C 149.771 137.580,151.473 139.200,151.583 139.200 C 151.693 139.200,150.171 137.580,148.200 135.600 C 146.229 133.620,144.527 132.000,144.417 132.000 C 144.307 132.000,145.829 133.620,147.800 135.600 M164.200 152.000 C 166.171 153.980,167.873 155.600,167.983 155.600 C 168.093 155.600,166.571 153.980,164.600 152.000 C 162.629 150.020,160.927 148.400,160.817 148.400 C 160.707 148.400,162.229 150.020,164.200 152.000 M166.900 170.700 C 164.350 173.182,164.323 173.225,166.563 171.230 C 170.200 167.991,170.191 168.000,169.923 168.000 C 169.787 168.000,168.426 169.215,166.900 170.700 M186.400 177.200 C 185.596 177.457,185.557 177.523,186.200 177.532 C 186.640 177.538,187.360 177.389,187.800 177.200 C 188.819 176.762,187.768 176.762,186.400 177.200 M197.600 177.734 C 197.600 177.837,198.181 178.124,198.891 178.372 C 199.601 178.619,200.006 178.657,199.791 178.456 C 199.335 178.029,197.600 177.458,197.600 177.734 M177.800 181.435 L 176.600 182.466 177.900 181.606 C 178.615 181.133,179.200 180.668,179.200 180.573 C 179.200 180.273,179.031 180.378,177.800 181.435 M206.020 183.021 C 206.999 184.133,207.881 184.981,207.981 184.907 C 208.080 184.833,207.279 183.923,206.201 182.886 L 204.240 181.000 206.020 183.021 M312.073 191.400 C 312.323 191.950,312.684 192.400,312.873 192.400 C 313.063 192.400,312.924 191.950,312.563 191.400 C 312.203 190.850,311.843 190.400,311.763 190.400 C 311.683 190.400,311.822 190.850,312.073 191.400 M211.668 193.600 C 211.688 194.639,212.318 196.346,212.332 195.400 C 212.338 194.960,212.189 194.240,212.000 193.800 C 211.789 193.310,211.661 193.232,211.668 193.600 M297.900 197.227 C 297.075 197.663,296.400 198.108,296.400 198.218 C 296.400 198.327,297.120 198.049,298.000 197.600 C 298.880 197.151,299.600 196.697,299.600 196.592 C 299.600 196.330,299.597 196.331,297.900 197.227 M211.800 200.800 C 211.648 201.491,211.614 202.147,211.724 202.257 C 211.834 202.367,212.048 201.891,212.200 201.200 C 212.352 200.509,212.386 199.853,212.276 199.743 C 212.166 199.633,211.952 200.109,211.800 200.800 M227.338 203.017 C 227.208 203.357,227.213 203.747,227.351 203.884 C 227.488 204.021,227.600 203.821,227.600 203.440 C 227.600 202.912,227.815 202.807,228.500 202.999 C 229.205 203.197,229.270 203.161,228.800 202.832 C 227.971 202.252,227.614 202.297,227.338 203.017 M320.209 203.426 C 320.581 204.101,321.241 205.091,321.676 205.626 L 322.467 206.600 321.791 205.374 C 321.419 204.699,320.759 203.709,320.324 203.174 L 319.533 202.200 320.209 203.426 M240.000 205.982 C 240.330 206.205,240.945 206.391,241.367 206.394 C 242.390 206.402,242.071 206.173,240.600 205.844 C 239.724 205.648,239.562 205.685,240.000 205.982 M244.200 206.790 C 244.964 207.128,247.514 207.357,247.167 207.056 C 247.075 206.976,246.190 206.804,245.200 206.673 C 243.998 206.514,243.666 206.553,244.200 206.790 M250.600 207.583 C 251.260 207.760,252.730 207.927,253.867 207.953 C 255.106 207.981,256.014 208.200,256.135 208.500 C 256.293 208.892,256.344 208.889,256.368 208.487 C 256.410 207.814,255.966 207.699,252.400 207.461 C 250.516 207.335,249.846 207.381,250.600 207.583 M205.830 212.497 C 204.526 213.849,203.986 214.577,204.630 214.116 C 205.747 213.316,206.814 212.224,207.968 210.700 C 208.944 209.411,208.219 210.020,205.830 212.497 M278.002 211.833 C 278.003 212.035,278.468 212.740,279.035 213.400 L 280.066 214.600 279.163 213.200 C 278.004 211.404,278.000 211.399,278.002 211.833 M261.591 215.988 C 262.057 216.641,262.642 217.302,262.891 217.456 C 263.141 217.611,262.841 217.076,262.225 216.268 C 260.888 214.515,260.384 214.292,261.591 215.988 M281.408 216.758 C 282.215 217.881,282.957 218.800,283.057 218.800 C 283.332 218.800,280.852 215.280,280.366 214.979 C 280.132 214.835,280.601 215.635,281.408 216.758 M328.015 215.800 C 328.017 216.020,328.386 216.650,328.836 217.200 C 329.379 217.864,329.515 217.931,329.240 217.400 C 328.566 216.095,328.012 215.372,328.015 215.800 M221.853 217.300 L 221.133 218.600 221.958 217.600 C 222.689 216.713,223.014 216.000,222.686 216.000 C 222.624 216.000,222.249 216.585,221.853 217.300 M189.300 218.694 C 190.345 218.776,192.055 218.776,193.100 218.694 C 194.145 218.612,193.290 218.544,191.200 218.544 C 189.110 218.544,188.255 218.612,189.300 218.694 M264.975 220.532 C 265.591 221.339,266.176 222.000,266.275 222.000 C 266.553 222.000,264.821 219.660,264.309 219.344 C 264.059 219.189,264.359 219.724,264.975 220.532 M216.788 223.500 L 214.200 226.200 216.900 223.612 C 218.385 222.188,219.600 220.973,219.600 220.912 C 219.600 220.617,219.193 220.992,216.788 223.500 M332.600 223.600 C 332.941 224.260,333.311 224.800,333.421 224.800 C 333.531 224.800,333.341 224.260,333.000 223.600 C 332.659 222.940,332.289 222.400,332.179 222.400 C 332.069 222.400,332.259 222.940,332.600 223.600 M268.800 225.800 C 269.481 226.790,270.128 227.600,270.238 227.600 C 270.348 227.600,269.881 226.790,269.200 225.800 C 268.519 224.810,267.872 224.000,267.762 224.000 C 267.652 224.000,268.119 224.810,268.800 225.800 M210.881 228.172 C 209.125 229.414,208.697 229.945,210.200 229.018 C 212.278 227.735,212.991 227.199,212.589 227.220 C 212.375 227.230,211.607 227.659,210.881 228.172 M336.406 230.050 C 336.397 230.405,338.433 234.000,338.642 234.000 C 338.738 234.000,338.460 233.325,338.024 232.500 C 337.078 230.711,336.415 229.706,336.406 230.050 M273.237 232.000 C 274.396 233.796,274.400 233.801,274.398 233.367 C 274.397 233.165,273.932 232.460,273.365 231.800 L 272.334 230.600 273.237 232.000 M295.893 237.498 C 299.005 242.136,300.677 244.413,299.786 242.800 C 298.957 241.298,293.186 232.839,292.849 232.630 C 292.641 232.502,294.011 234.692,295.893 237.498 M198.995 233.354 C 198.354 233.823,198.309 234.054,198.708 234.854 L 199.179 235.800 198.957 234.744 C 198.771 233.857,198.916 233.622,199.868 233.276 C 200.490 233.049,200.719 232.849,200.376 232.832 C 200.034 232.814,199.412 233.049,198.995 233.354 M200.068 240.600 C 200.062 241.040,200.211 241.760,200.400 242.200 C 200.838 243.219,200.838 242.168,200.400 240.800 C 200.143 239.996,200.077 239.957,200.068 240.600 M285.412 249.600 C 286.024 250.714,289.706 256.197,290.113 256.600 C 290.710 257.190,290.152 256.244,287.875 252.800 C 286.004 249.971,284.649 248.211,285.412 249.600 M201.676 251.200 C 201.667 251.750,201.803 253.010,201.980 254.000 C 202.220 255.350,202.307 255.500,202.327 254.600 C 202.342 253.940,202.205 252.680,202.023 251.800 C 201.816 250.798,201.686 250.574,201.676 251.200 M350.034 256.600 C 350.034 256.820,350.378 257.630,350.800 258.400 C 351.222 259.170,351.566 259.620,351.566 259.400 C 351.566 259.180,351.222 258.370,350.800 257.600 C 350.378 256.830,350.034 256.380,350.034 256.600 M352.828 262.600 C 352.828 262.820,353.086 263.450,353.400 264.000 C 353.714 264.550,353.972 264.820,353.972 264.600 C 353.972 264.380,353.714 263.750,353.400 263.200 C 353.086 262.650,352.828 262.380,352.828 262.600 M313.724 265.400 C 314.062 266.060,314.638 266.960,315.004 267.400 C 315.370 267.840,315.265 267.480,314.770 266.600 C 313.680 264.658,312.864 263.722,313.724 265.400 M217.600 269.388 C 217.600 269.657,224.838 274.496,224.998 274.333 C 225.069 274.260,223.434 273.074,221.364 271.698 C 219.294 270.322,217.600 269.282,217.600 269.388 M318.600 274.000 C 318.941 274.660,319.311 275.200,319.421 275.200 C 319.531 275.200,319.341 274.660,319.000 274.000 C 318.659 273.340,318.289 272.800,318.179 272.800 C 318.069 272.800,318.259 273.340,318.600 274.000 M226.456 275.566 C 226.975 275.987,227.477 276.255,227.571 276.161 C 227.776 275.957,226.344 274.831,225.856 274.813 C 225.666 274.806,225.936 275.145,226.456 275.566 M228.000 276.554 C 228.000 276.639,228.495 277.027,229.100 277.416 L 230.200 278.124 229.438 277.262 C 228.764 276.499,228.000 276.123,228.000 276.554 M200.947 277.393 C 200.812 277.746,200.813 278.147,200.951 278.284 C 201.088 278.421,201.200 278.323,201.200 278.067 C 201.200 277.359,201.939 277.504,203.338 278.484 C 204.032 278.971,204.389 279.106,204.131 278.784 C 203.112 277.515,201.218 276.687,200.947 277.393 M230.400 278.154 C 230.400 278.239,230.895 278.627,231.500 279.016 L 232.600 279.724 231.838 278.862 C 231.164 278.099,230.400 277.723,230.400 278.154 M199.449 284.215 C 199.312 284.573,199.215 285.166,199.234 285.533 C 199.253 285.900,199.427 285.669,199.621 285.020 C 199.998 283.758,199.865 283.133,199.449 284.215 M243.207 286.536 C 245.928 288.364,246.800 288.890,246.800 288.703 C 246.800 288.450,242.495 285.600,242.113 285.600 C 241.949 285.600,242.441 286.021,243.207 286.536 M329.616 296.925 C 329.592 297.411,330.867 301.200,331.054 301.200 C 331.143 301.200,331.093 300.705,330.943 300.100 C 330.622 298.808,329.638 296.454,329.616 296.925 M231.600 297.301 C 231.600 297.476,232.405 298.041,235.700 300.178 C 236.305 300.571,236.800 300.805,236.800 300.699 C 236.800 300.524,235.995 299.959,232.700 297.822 C 232.095 297.429,231.600 297.195,231.600 297.301 M264.400 299.379 C 264.400 299.489,264.940 299.859,265.600 300.200 C 266.260 300.541,266.800 300.731,266.800 300.621 C 266.800 300.511,266.260 300.141,265.600 299.800 C 264.940 299.459,264.400 299.269,264.400 299.379 M333.734 316.000 C 333.734 317.650,333.805 318.325,333.891 317.500 C 333.978 316.675,333.978 315.325,333.891 314.500 C 333.805 313.675,333.734 314.350,333.734 316.000 M371.606 313.833 C 371.609 314.255,371.795 314.870,372.018 315.200 C 372.315 315.638,372.352 315.476,372.156 314.600 C 371.827 313.129,371.598 312.810,371.606 313.833 M372.406 316.633 C 372.409 317.055,372.595 317.670,372.818 318.000 C 373.115 318.438,373.152 318.276,372.956 317.400 C 372.627 315.929,372.398 315.610,372.406 316.633 M318.000 317.905 C 318.000 318.146,317.717 318.626,317.371 318.971 C 317.026 319.317,316.929 319.600,317.157 319.600 C 317.664 319.600,318.556 318.023,318.232 317.699 C 318.105 317.571,318.000 317.664,318.000 317.905 M304.800 318.382 C 305.130 318.605,305.745 318.791,306.167 318.794 C 307.190 318.802,306.871 318.573,305.400 318.244 C 304.524 318.048,304.362 318.085,304.800 318.382 M194.600 319.407 C 195.040 319.766,195.760 320.235,196.200 320.451 L 197.000 320.844 196.200 320.193 C 195.760 319.834,195.040 319.365,194.600 319.149 L 193.800 318.756 194.600 319.407 M307.800 319.190 C 308.564 319.528,311.114 319.757,310.767 319.456 C 310.675 319.376,309.790 319.204,308.800 319.073 C 307.598 318.914,307.266 318.953,307.800 319.190 M373.206 319.833 C 373.209 320.255,373.395 320.870,373.618 321.200 C 373.915 321.638,373.952 321.476,373.756 320.600 C 373.427 319.129,373.198 318.810,373.206 319.833 M312.300 319.889 C 313.015 319.978,314.185 319.978,314.900 319.889 C 315.615 319.801,315.030 319.728,313.600 319.728 C 312.170 319.728,311.585 319.801,312.300 319.889 M200.000 322.820 C 201.387 323.761,202.178 324.035,201.200 323.236 C 200.650 322.786,200.020 322.417,199.800 322.415 C 199.580 322.413,199.670 322.596,200.000 322.820 M374.006 323.033 C 374.009 323.455,374.195 324.070,374.418 324.400 C 374.715 324.838,374.752 324.676,374.556 323.800 C 374.227 322.329,373.998 322.010,374.006 323.033 M204.000 325.220 C 205.387 326.161,206.178 326.435,205.200 325.636 C 204.650 325.186,204.020 324.817,203.800 324.815 C 203.580 324.813,203.670 324.996,204.000 325.220 M328.770 329.835 C 328.236 330.404,326.945 331.424,325.900 332.102 C 323.776 333.480,323.411 333.925,325.136 333.033 C 326.278 332.443,330.401 328.846,329.970 328.816 C 329.843 328.807,329.303 329.266,328.770 329.835 M375.606 330.233 C 375.609 330.655,375.795 331.270,376.018 331.600 C 376.315 332.038,376.352 331.876,376.156 331.000 C 375.827 329.529,375.598 329.210,375.606 330.233 M376.406 333.833 C 376.409 334.255,376.595 334.870,376.818 335.200 C 377.115 335.638,377.152 335.476,376.956 334.600 C 376.627 333.129,376.398 332.810,376.406 333.833 M307.200 334.800 C 307.750 334.976,308.560 335.120,309.000 335.120 C 309.633 335.120,309.592 335.054,308.800 334.800 C 308.250 334.624,307.440 334.480,307.000 334.480 C 306.367 334.480,306.408 334.546,307.200 334.800 M377.206 338.033 C 377.209 338.565,377.389 339.270,377.606 339.600 C 377.882 340.022,377.923 339.785,377.742 338.800 C 377.425 337.075,377.198 336.749,377.206 338.033 M378.068 342.600 C 378.062 343.040,378.211 343.760,378.400 344.200 C 378.838 345.219,378.838 344.168,378.400 342.800 C 378.143 341.996,378.077 341.957,378.068 342.600 M378.828 348.033 C 378.844 348.565,379.019 349.360,379.219 349.800 C 379.471 350.358,379.507 350.115,379.338 349.000 C 379.055 347.143,378.787 346.636,378.828 348.033 M256.400 351.800 C 256.950 352.114,257.580 352.372,257.800 352.372 C 258.020 352.372,257.750 352.114,257.200 351.800 C 256.650 351.486,256.020 351.228,255.800 351.228 C 255.580 351.228,255.850 351.486,256.400 351.800 M379.640 354.233 C 379.662 354.875,379.833 355.850,380.020 356.400 C 380.249 357.074,380.284 356.749,380.128 355.400 C 379.869 353.150,379.579 352.459,379.640 354.233 M380.493 362.400 C 380.485 363.170,380.616 364.790,380.783 366.000 C 381.048 367.916,381.090 367.993,381.109 366.600 C 381.120 365.720,380.990 364.100,380.818 363.000 C 380.569 361.397,380.504 361.278,380.493 362.400 M306.833 370.144 C 306.925 370.223,307.540 370.408,308.200 370.556 C 309.076 370.752,309.238 370.715,308.800 370.418 C 308.260 370.053,306.432 369.798,306.833 370.144 M309.633 370.944 C 309.725 371.023,310.340 371.208,311.000 371.356 C 311.876 371.552,312.038 371.515,311.600 371.218 C 311.060 370.853,309.232 370.598,309.633 370.944 M312.433 371.744 C 312.525 371.823,313.140 372.008,313.800 372.156 C 314.676 372.352,314.838 372.315,314.400 372.018 C 313.860 371.653,312.032 371.398,312.433 371.744 M318.433 373.344 C 318.525 373.423,319.140 373.608,319.800 373.756 C 320.676 373.952,320.838 373.915,320.400 373.618 C 319.860 373.253,318.032 372.998,318.433 373.344 M339.400 378.400 C 339.840 378.589,340.470 378.744,340.800 378.744 C 341.178 378.744,341.104 378.617,340.600 378.400 C 340.160 378.211,339.530 378.056,339.200 378.056 C 338.822 378.056,338.896 378.183,339.400 378.400 M343.400 379.200 C 343.840 379.389,344.470 379.544,344.800 379.544 C 345.178 379.544,345.104 379.417,344.600 379.200 C 344.160 379.011,343.530 378.856,343.200 378.856 C 342.822 378.856,342.896 378.983,343.400 379.200 M347.600 380.000 C 348.968 380.438,350.019 380.438,349.000 380.000 C 348.560 379.811,347.840 379.662,347.400 379.668 C 346.757 379.677,346.796 379.743,347.600 380.000 M351.633 380.544 C 351.725 380.623,352.340 380.808,353.000 380.956 C 353.876 381.152,354.038 381.115,353.600 380.818 C 353.060 380.453,351.232 380.198,351.633 380.544 M357.200 381.600 C 357.750 381.776,358.560 381.920,359.000 381.920 C 359.633 381.920,359.592 381.854,358.800 381.600 C 358.250 381.424,357.440 381.280,357.000 381.280 C 356.367 381.280,356.408 381.346,357.200 381.600 M362.800 382.380 C 363.799 382.720,366.282 382.932,365.967 382.651 C 365.875 382.569,364.900 382.399,363.800 382.272 C 362.451 382.116,362.126 382.151,362.800 382.380 M368.500 383.076 C 368.885 383.176,369.515 383.176,369.900 383.076 C 370.285 382.975,369.970 382.893,369.200 382.893 C 368.430 382.893,368.115 382.975,368.500 383.076 M371.500 383.482 C 371.995 383.578,372.805 383.578,373.300 383.482 C 373.795 383.387,373.390 383.309,372.400 383.309 C 371.410 383.309,371.005 383.387,371.500 383.482 M377.105 383.883 C 377.602 383.979,378.322 383.975,378.705 383.875 C 379.087 383.775,378.680 383.696,377.800 383.701 C 376.920 383.705,376.607 383.787,377.105 383.883 " stroke="none" fill="#646464" fill-rule="evenodd"></path><path id="path3" d="M18.400 27.572 L 18.400 39.544 22.981 44.172 C 25.500 46.717,27.703 48.800,27.875 48.800 C 28.047 48.800,26.070 46.677,23.482 44.082 L 18.776 39.364 18.888 27.482 C 18.950 20.947,18.865 15.600,18.700 15.600 C 18.535 15.600,18.400 20.987,18.400 27.572 M28.050 15.700 C 28.150 15.755,43.615 31.100,62.416 49.800 L 96.600 83.800 62.601 49.700 C 43.901 30.945,28.436 15.600,28.234 15.600 C 28.032 15.600,27.949 15.645,28.050 15.700 M34.800 55.731 C 34.800 55.876,115.488 136.493,115.924 136.784 C 116.076 136.885,97.930 118.660,75.601 96.284 C 37.021 57.624,34.800 55.416,34.800 55.731 M106.193 93.593 C 107.048 94.469,107.823 95.111,107.914 95.019 C 108.119 94.814,105.340 92.000,104.932 92.000 C 104.770 92.000,105.337 92.717,106.193 93.593 M122.996 110.396 C 123.626 111.054,124.219 111.514,124.313 111.420 C 124.522 111.212,122.556 109.200,122.143 109.200 C 121.982 109.200,122.366 109.738,122.996 110.396 M139.396 126.796 C 140.026 127.454,140.619 127.914,140.713 127.820 C 140.922 127.612,138.956 125.600,138.543 125.600 C 138.382 125.600,138.766 126.138,139.396 126.796 M156.193 143.593 C 157.048 144.469,157.823 145.111,157.914 145.019 C 158.119 144.814,155.340 142.000,154.932 142.000 C 154.770 142.000,155.337 142.717,156.193 143.593 M122.602 143.602 C 123.002 144.044,123.411 144.322,123.512 144.221 C 123.728 144.005,122.588 142.800,122.167 142.800 C 122.007 142.800,122.203 143.161,122.602 143.602 M139.396 160.396 C 140.026 161.054,140.619 161.514,140.713 161.420 C 140.922 161.212,138.956 159.200,138.543 159.200 C 138.382 159.200,138.766 159.738,139.396 160.396 M172.996 160.396 C 173.626 161.054,174.219 161.514,174.313 161.420 C 174.522 161.212,172.556 159.200,172.143 159.200 C 171.982 159.200,172.366 159.738,172.996 160.396 M171.744 167.169 C 171.053 167.590,170.365 168.133,170.216 168.374 C 169.992 168.737,172.575 167.158,173.156 166.577 C 173.547 166.187,172.933 166.444,171.744 167.169 M165.765 172.100 C 163.823 174.113,161.136 177.295,162.641 175.800 C 164.321 174.131,168.496 169.600,168.354 169.600 C 168.257 169.600,167.091 170.725,165.765 172.100 M156.202 177.202 C 156.602 177.644,157.011 177.922,157.112 177.821 C 157.328 177.605,156.188 176.400,155.767 176.400 C 155.607 176.400,155.803 176.761,156.202 177.202 M161.523 177.100 C 160.818 177.921,160.290 178.800,160.501 178.800 C 160.583 178.800,161.049 178.260,161.537 177.600 C 162.501 176.296,162.492 175.972,161.523 177.100 M186.400 176.821 C 185.970 177.114,186.254 177.154,187.400 176.962 C 189.384 176.630,189.704 176.398,188.167 176.406 C 187.525 176.409,186.730 176.596,186.400 176.821 M193.633 176.547 C 193.725 176.628,194.520 176.804,195.400 176.938 C 196.515 177.107,196.758 177.071,196.200 176.819 C 195.432 176.471,193.290 176.244,193.633 176.547 M178.562 180.462 L 177.800 181.324 178.900 180.616 C 180.034 179.886,180.249 179.600,179.662 179.600 C 179.476 179.600,178.981 179.988,178.562 180.462 M203.000 179.865 C 204.873 181.714,207.989 184.342,207.200 183.407 C 206.650 182.756,205.930 181.990,205.600 181.705 C 204.740 180.963,202.522 179.394,203.000 179.865 M175.978 182.700 L 174.600 184.200 176.100 182.822 C 176.925 182.063,177.600 181.388,177.600 181.322 C 177.600 181.016,177.262 181.304,175.978 182.700 M173.923 185.100 C 173.218 185.921,172.690 186.800,172.901 186.800 C 172.983 186.800,173.449 186.260,173.937 185.600 C 174.901 184.296,174.892 183.972,173.923 185.100 M208.912 186.150 C 210.692 188.857,210.808 188.961,209.750 186.900 C 209.158 185.745,208.527 184.800,208.348 184.800 C 208.170 184.800,208.424 185.408,208.912 186.150 M171.471 189.300 C 170.860 190.771,170.234 193.101,170.531 192.799 C 170.823 192.502,172.366 188.000,172.175 188.000 C 172.085 188.000,171.768 188.585,171.471 189.300 M309.824 189.422 C 309.396 189.740,309.251 190.000,309.500 190.000 C 309.749 190.000,310.071 189.808,310.216 189.574 C 310.664 188.848,311.704 190.131,316.418 197.227 C 318.896 200.957,320.994 203.939,321.080 203.854 C 321.305 203.628,312.893 191.203,311.648 189.922 C 310.701 188.947,310.525 188.899,309.824 189.422 M211.200 190.436 C 211.200 190.529,211.398 191.234,211.640 192.003 C 211.882 192.771,212.214 195.110,212.378 197.200 L 212.677 201.000 212.734 198.000 C 212.784 195.344,212.047 191.113,211.425 190.492 C 211.301 190.368,211.200 190.343,211.200 190.436 M304.481 192.972 C 302.725 194.214,302.297 194.745,303.800 193.818 C 305.878 192.535,306.591 191.999,306.189 192.020 C 305.975 192.030,305.207 192.459,304.481 192.972 M170.151 197.600 C 170.151 200.130,170.216 201.165,170.296 199.900 C 170.375 198.635,170.375 196.565,170.296 195.300 C 170.216 194.035,170.151 195.070,170.151 197.600 M301.100 195.029 C 299.605 195.840,299.696 196.178,301.200 195.400 C 301.860 195.059,302.400 194.694,302.400 194.590 C 302.400 194.332,302.357 194.347,301.100 195.029 M298.300 196.629 C 296.805 197.440,296.896 197.778,298.400 197.000 C 299.060 196.659,299.600 196.294,299.600 196.190 C 299.600 195.932,299.557 195.947,298.300 196.629 M211.646 203.289 C 211.621 203.667,211.160 204.972,210.622 206.189 C 210.084 207.405,209.734 208.400,209.844 208.400 C 210.254 208.400,212.031 203.867,211.865 203.246 C 211.716 202.688,211.687 202.693,211.646 203.289 M226.600 204.000 C 226.448 204.691,226.407 205.341,226.509 205.442 C 226.611 205.544,226.809 205.053,226.950 204.350 C 227.283 202.683,226.960 202.360,226.600 204.000 M231.600 203.582 C 231.930 203.805,232.545 203.991,232.967 203.994 C 233.990 204.002,233.671 203.773,232.200 203.444 C 231.324 203.248,231.162 203.285,231.600 203.582 M277.600 204.818 C 277.162 205.115,277.324 205.152,278.200 204.956 C 279.671 204.627,279.990 204.398,278.967 204.406 C 278.545 204.409,277.930 204.595,277.600 204.818 M273.600 206.038 C 273.600 206.667,274.912 208.800,275.298 208.800 C 275.477 208.800,275.237 208.277,274.765 207.638 C 274.292 206.999,274.028 206.279,274.176 206.038 C 274.325 205.797,274.257 205.600,274.024 205.600 C 273.791 205.600,273.600 205.797,273.600 206.038 M242.900 206.276 C 243.285 206.376,243.915 206.376,244.300 206.276 C 244.685 206.175,244.370 206.093,243.600 206.093 C 242.830 206.093,242.515 206.175,242.900 206.276 M225.873 206.953 C 225.723 207.345,225.611 207.966,225.625 208.333 C 225.642 208.775,225.781 208.674,226.037 208.034 C 226.249 207.503,226.361 206.882,226.285 206.654 C 226.209 206.427,226.024 206.561,225.873 206.953 M251.000 207.208 C 252.980 207.409,255.019 207.646,255.530 207.737 C 256.042 207.827,256.312 207.754,256.130 207.574 C 255.949 207.394,253.910 207.156,251.600 207.046 L 247.400 206.844 251.000 207.208 M257.427 209.800 C 258.800 211.600,259.068 211.603,257.904 209.805 C 257.407 209.038,256.856 208.408,256.680 208.405 C 256.503 208.402,256.840 209.030,257.427 209.800 M325.015 210.300 C 326.356 212.385,326.800 212.977,326.800 212.680 C 326.800 212.296,324.755 209.200,324.501 209.200 C 324.395 209.200,324.626 209.695,325.015 210.300 M205.850 212.902 C 204.337 214.455,203.617 215.353,204.250 214.898 C 205.363 214.096,207.285 212.138,208.370 210.700 C 209.319 209.442,208.646 210.030,205.850 212.902 M259.202 211.833 C 259.203 212.035,259.668 212.740,260.235 213.400 L 261.266 214.600 260.363 213.200 C 259.204 211.404,259.200 211.399,259.202 211.833 M327.409 214.226 C 327.781 214.901,328.441 215.891,328.876 216.426 L 329.667 217.400 328.991 216.174 C 328.619 215.499,327.959 214.509,327.524 213.974 L 326.733 213.000 327.409 214.226 M177.869 214.432 C 178.366 215.033,180.800 216.564,180.800 216.276 C 180.800 216.183,180.035 215.602,179.100 214.985 C 178.165 214.368,177.611 214.120,177.869 214.432 M280.816 216.563 C 281.568 217.609,282.356 218.573,282.567 218.703 C 282.778 218.833,282.335 218.084,281.584 217.037 C 280.832 215.991,280.044 215.027,279.833 214.897 C 279.622 214.767,280.065 215.516,280.816 216.563 M262.786 216.980 C 263.459 217.958,264.201 218.877,264.434 219.021 C 264.668 219.165,264.199 218.365,263.392 217.242 C 261.590 214.734,261.093 214.519,262.786 216.980 M201.500 216.229 C 200.005 217.040,200.096 217.378,201.600 216.600 C 202.260 216.259,202.800 215.894,202.800 215.790 C 202.800 215.532,202.757 215.547,201.500 216.229 M330.200 218.800 C 330.541 219.460,330.911 220.000,331.021 220.000 C 331.131 220.000,330.941 219.460,330.600 218.800 C 330.259 218.140,329.889 217.600,329.779 217.600 C 329.669 217.600,329.859 218.140,330.200 218.800 M185.400 218.400 C 185.840 218.589,186.470 218.744,186.800 218.744 C 187.178 218.744,187.104 218.617,186.600 218.400 C 186.160 218.211,185.530 218.056,185.200 218.056 C 184.822 218.056,184.896 218.183,185.400 218.400 M195.800 218.400 L 195.000 218.744 195.800 218.766 C 196.240 218.778,196.870 218.613,197.200 218.400 C 197.995 217.886,196.996 217.886,195.800 218.400 M190.307 219.090 C 191.026 219.179,192.106 219.177,192.707 219.086 C 193.308 218.995,192.720 218.922,191.400 218.924 C 190.080 218.926,189.588 219.001,190.307 219.090 M217.227 222.510 C 215.472 224.453,215.035 225.063,216.160 224.000 C 217.888 222.368,220.661 219.185,220.334 219.210 C 220.260 219.216,218.862 220.701,217.227 222.510 M265.943 221.318 C 266.640 222.331,267.422 223.290,267.680 223.450 C 267.939 223.609,267.535 222.884,266.784 221.837 C 265.005 219.360,264.294 218.921,265.943 221.318 M284.816 222.163 C 286.595 224.640,287.306 225.079,285.657 222.682 C 284.960 221.669,284.178 220.710,283.920 220.550 C 283.661 220.391,284.065 221.116,284.816 222.163 M333.609 224.700 C 333.614 224.865,333.985 225.450,334.433 226.000 L 335.248 227.000 334.614 225.700 C 334.011 224.465,333.589 224.045,333.609 224.700 M291.254 231.264 C 292.654 233.389,293.871 235.059,293.957 234.974 C 294.132 234.802,290.213 228.940,289.295 228.000 C 288.972 227.670,289.854 229.139,291.254 231.264 M338.200 232.800 C 338.541 233.460,338.911 234.000,339.021 234.000 C 339.131 234.000,338.941 233.460,338.600 232.800 C 338.259 232.140,337.889 231.600,337.779 231.600 C 337.669 231.600,337.859 232.140,338.200 232.800 M274.000 232.161 C 274.000 232.543,276.376 236.000,276.638 236.000 C 276.748 236.000,276.261 235.145,275.554 234.100 C 273.988 231.783,274.000 231.797,274.000 232.161 M294.873 236.600 C 295.123 237.150,295.484 237.600,295.673 237.600 C 295.863 237.600,295.724 237.150,295.363 236.600 C 295.003 236.050,294.643 235.600,294.563 235.600 C 294.483 235.600,294.622 236.050,294.873 236.600 M278.400 238.800 C 278.870 239.460,279.344 240.000,279.454 240.000 C 279.564 240.000,279.270 239.460,278.800 238.800 C 278.330 238.140,277.856 237.600,277.746 237.600 C 277.636 237.600,277.930 238.140,278.400 238.800 M199.268 238.400 C 199.288 239.439,199.918 241.146,199.932 240.200 C 199.938 239.760,199.789 239.040,199.600 238.600 C 199.389 238.110,199.261 238.032,199.268 238.400 M200.262 243.400 C 200.396 244.280,200.572 245.075,200.653 245.167 C 200.956 245.510,200.729 243.368,200.381 242.600 C 200.129 242.042,200.093 242.285,200.262 243.400 M282.637 244.900 C 283.449 246.165,284.188 247.200,284.279 247.200 C 284.547 247.200,283.100 244.882,282.090 243.694 C 281.579 243.092,281.825 243.635,282.637 244.900 M299.412 243.200 C 300.024 244.314,303.706 249.797,304.113 250.200 C 304.710 250.790,304.152 249.844,301.875 246.400 C 300.004 243.571,298.649 241.811,299.412 243.200 M346.000 247.600 C 346.666 248.920,347.302 250.000,347.412 250.000 C 347.522 250.000,347.066 248.920,346.400 247.600 C 345.734 246.280,345.098 245.200,344.988 245.200 C 344.878 245.200,345.334 246.280,346.000 247.600 M201.088 248.600 C 201.211 249.920,201.376 251.075,201.456 251.167 C 201.735 251.489,201.516 248.188,201.193 247.200 C 200.989 246.579,200.949 247.109,201.088 248.600 M306.209 253.826 C 306.581 254.501,307.241 255.491,307.676 256.026 L 308.467 257.000 307.791 255.774 C 307.419 255.099,306.759 254.109,306.324 253.574 L 305.533 252.600 306.209 253.826 M201.845 255.400 C 201.926 256.500,201.995 257.770,201.997 258.223 C 201.999 258.754,202.673 259.505,203.900 260.340 C 205.252 261.262,205.483 261.348,204.702 260.639 C 204.099 260.091,203.360 259.498,203.062 259.321 C 202.763 259.145,202.334 257.740,202.108 256.200 C 201.845 254.415,201.750 254.125,201.845 255.400 M292.222 259.500 C 294.359 262.795,294.924 263.600,295.099 263.600 C 295.205 263.600,294.971 263.105,294.578 262.500 C 292.441 259.205,291.876 258.400,291.701 258.400 C 291.595 258.400,291.829 258.895,292.222 259.500 M309.200 258.529 C 309.200 258.894,311.245 262.000,311.486 262.000 C 311.679 262.000,310.092 259.248,309.536 258.620 C 309.351 258.411,309.200 258.370,309.200 258.529 M207.600 262.876 C 208.482 263.748,214.945 268.159,214.657 267.693 C 214.522 267.474,212.744 266.168,210.706 264.790 C 208.668 263.411,207.270 262.550,207.600 262.876 M312.409 263.900 C 312.414 264.065,312.785 264.650,313.233 265.200 L 314.048 266.200 313.414 264.900 C 312.811 263.665,312.389 263.245,312.409 263.900 M296.209 265.826 C 296.581 266.501,297.241 267.491,297.676 268.026 L 298.467 269.000 297.791 267.774 C 297.419 267.099,296.759 266.109,296.324 265.574 L 295.533 264.600 296.209 265.826 M314.600 267.600 C 314.941 268.260,315.311 268.800,315.421 268.800 C 315.531 268.800,315.341 268.260,315.000 267.600 C 314.659 266.940,314.289 266.400,314.179 266.400 C 314.069 266.400,314.259 266.940,314.600 267.600 M298.924 270.200 C 299.262 270.860,299.838 271.760,300.204 272.200 C 300.570 272.640,300.465 272.280,299.970 271.400 C 298.880 269.458,298.064 268.522,298.924 270.200 M316.200 270.400 C 316.541 271.060,316.911 271.600,317.021 271.600 C 317.131 271.600,316.941 271.060,316.600 270.400 C 316.259 269.740,315.889 269.200,315.779 269.200 C 315.669 269.200,315.859 269.740,316.200 270.400 M223.089 273.630 C 223.578 274.139,224.078 274.455,224.201 274.332 C 224.324 274.209,223.924 273.792,223.312 273.406 L 222.200 272.704 223.089 273.630 M318.360 274.200 C 319.034 275.505,319.588 276.228,319.585 275.800 C 319.583 275.580,319.214 274.950,318.764 274.400 C 318.221 273.736,318.085 273.669,318.360 274.200 M228.403 277.332 C 233.134 280.487,234.714 281.467,234.200 280.926 C 233.599 280.293,225.274 274.800,224.916 274.800 C 224.746 274.800,226.315 275.939,228.403 277.332 M303.000 277.200 C 303.341 277.860,303.711 278.400,303.821 278.400 C 303.931 278.400,303.741 277.860,303.400 277.200 C 303.059 276.540,302.689 276.000,302.579 276.000 C 302.469 276.000,302.659 276.540,303.000 277.200 M200.833 276.521 C 200.925 276.588,201.540 276.958,202.200 277.345 L 203.400 278.047 202.456 277.224 C 201.936 276.771,201.321 276.400,201.089 276.400 C 200.857 276.400,200.742 276.454,200.833 276.521 M321.200 279.600 C 322.085 281.360,322.899 282.800,323.009 282.800 C 323.119 282.800,322.485 281.360,321.600 279.600 C 320.715 277.840,319.901 276.400,319.791 276.400 C 319.681 276.400,320.315 277.840,321.200 279.600 M200.449 278.200 C 200.416 278.640,200.296 279.450,200.183 280.000 L 199.977 281.000 200.406 280.019 C 200.642 279.479,200.761 278.669,200.672 278.219 C 200.513 277.421,200.507 277.421,200.449 278.200 M361.113 281.419 C 361.484 282.420,361.839 283.082,361.903 282.891 C 362.031 282.506,360.893 279.600,360.614 279.600 C 360.517 279.600,360.742 280.419,361.113 281.419 M208.650 281.681 C 208.845 281.996,228.039 294.918,229.600 295.784 C 230.004 296.009,230.070 295.985,229.800 295.711 C 229.144 295.046,208.408 281.290,208.650 281.681 M199.429 283.029 C 199.281 283.615,199.238 284.172,199.332 284.266 C 199.427 284.360,199.624 283.958,199.771 283.371 C 199.919 282.785,199.962 282.228,199.868 282.134 C 199.773 282.040,199.576 282.442,199.429 283.029 M239.200 284.333 C 240.343 285.279,243.200 286.944,243.200 286.665 C 243.200 286.563,242.599 286.125,241.865 285.692 C 241.131 285.259,240.006 284.589,239.365 284.205 L 238.200 283.505 239.200 284.333 M308.360 287.000 C 309.034 288.305,309.588 289.028,309.585 288.600 C 309.583 288.380,309.214 287.750,308.764 287.200 C 308.221 286.536,308.085 286.469,308.360 287.000 M363.245 286.800 C 363.253 287.130,363.606 288.120,364.029 289.000 C 364.452 289.880,364.686 290.162,364.549 289.626 C 364.173 288.161,363.229 286.114,363.245 286.800 M248.000 289.964 C 248.550 290.414,249.180 290.783,249.400 290.785 C 249.828 290.788,249.105 290.234,247.800 289.560 C 247.269 289.285,247.336 289.421,248.000 289.964 M253.000 292.996 C 253.894 293.739,256.428 295.109,255.800 294.510 C 255.580 294.300,254.680 293.724,253.800 293.230 C 252.920 292.735,252.560 292.630,253.000 292.996 M257.000 295.407 C 257.440 295.766,258.160 296.235,258.600 296.451 L 259.400 296.844 258.600 296.193 C 258.160 295.834,257.440 295.365,257.000 295.149 L 256.200 294.756 257.000 295.407 M259.600 296.979 C 259.600 297.089,260.140 297.459,260.800 297.800 C 261.460 298.141,262.000 298.331,262.000 298.221 C 262.000 298.111,261.460 297.741,260.800 297.400 C 260.140 297.059,259.600 296.869,259.600 296.979 M263.200 299.167 C 264.163 299.952,264.800 300.208,264.800 299.810 C 264.800 299.706,264.215 299.335,263.500 298.986 L 262.200 298.352 263.200 299.167 M235.800 299.796 C 236.694 300.539,239.228 301.909,238.600 301.310 C 238.380 301.100,237.480 300.524,236.600 300.030 C 235.720 299.535,235.360 299.430,235.800 299.796 M241.174 303.124 C 241.709 303.559,242.699 304.219,243.374 304.591 L 244.600 305.267 243.626 304.476 C 243.091 304.041,242.101 303.381,241.426 303.009 L 240.200 302.333 241.174 303.124 M245.000 305.490 C 245.220 305.700,246.120 306.276,247.000 306.770 C 247.880 307.265,248.240 307.370,247.800 307.004 C 246.906 306.261,244.372 304.891,245.000 305.490 M316.412 305.600 C 316.412 305.930,316.587 306.470,316.800 306.800 C 317.145 307.333,317.188 307.333,317.188 306.800 C 317.188 306.470,317.013 305.930,316.800 305.600 C 316.455 305.067,316.412 305.067,316.412 305.600 M189.414 307.835 C 189.041 308.404,188.805 308.938,188.889 309.022 C 188.973 309.107,189.358 308.641,189.744 307.988 C 190.606 306.528,190.348 306.409,189.414 307.835 M317.256 308.000 C 317.256 308.330,317.411 308.960,317.600 309.400 C 317.817 309.904,317.944 309.978,317.944 309.600 C 317.944 309.270,317.789 308.640,317.600 308.200 C 317.383 307.696,317.256 307.622,317.256 308.000 M280.000 308.203 C 280.000 308.400,287.752 312.324,289.300 312.910 C 290.783 313.471,289.907 312.778,288.100 311.959 C 287.055 311.486,284.805 310.399,283.100 309.545 C 281.395 308.690,280.000 308.086,280.000 308.203 M250.400 308.820 C 251.787 309.761,252.578 310.035,251.600 309.236 C 251.050 308.786,250.420 308.417,250.200 308.415 C 249.980 308.413,250.070 308.596,250.400 308.820 M187.212 311.582 C 186.168 313.208,186.023 313.693,186.400 314.282 C 186.833 314.958,186.846 314.956,186.621 314.244 C 186.490 313.828,186.656 313.063,186.991 312.544 C 187.326 312.025,187.891 311.150,188.246 310.600 C 188.601 310.050,188.800 309.600,188.688 309.600 C 188.575 309.600,187.911 310.492,187.212 311.582 M333.000 315.499 C 333.000 318.833,333.122 321.255,333.272 320.881 C 333.610 320.034,333.596 312.222,333.253 310.619 C 333.114 309.969,333.000 312.165,333.000 315.499 M252.800 310.190 C 252.800 310.294,253.385 310.665,254.100 311.014 L 255.400 311.648 254.400 310.833 C 253.437 310.048,252.800 309.792,252.800 310.190 M318.262 312.600 C 318.396 313.480,318.572 314.275,318.653 314.367 C 318.956 314.710,318.729 312.568,318.381 311.800 C 318.129 311.242,318.093 311.485,318.262 312.600 M265.600 317.341 C 265.600 317.608,269.290 319.643,269.463 319.471 C 269.540 319.393,268.703 318.839,267.602 318.240 C 266.501 317.640,265.600 317.236,265.600 317.341 M318.083 318.578 C 317.527 319.797,315.709 320.191,312.053 319.885 C 310.437 319.749,309.713 319.796,310.200 320.003 C 313.147 321.258,318.800 319.953,318.800 318.018 C 318.800 317.344,318.560 317.532,318.083 318.578 M193.600 319.127 C 193.600 319.316,194.050 319.677,194.600 319.927 C 195.150 320.178,195.600 320.317,195.600 320.237 C 195.600 320.157,195.150 319.797,194.600 319.437 C 194.050 319.076,193.600 318.937,193.600 319.127 M306.600 319.200 C 307.040 319.389,307.670 319.544,308.000 319.544 C 308.378 319.544,308.304 319.417,307.800 319.200 C 307.360 319.011,306.730 318.856,306.400 318.856 C 306.022 318.856,306.096 318.983,306.600 319.200 M373.844 320.600 C 374.173 322.071,374.402 322.390,374.394 321.367 C 374.391 320.945,374.205 320.330,373.982 320.000 C 373.685 319.562,373.648 319.724,373.844 320.600 M271.600 320.588 C 271.600 320.698,272.680 321.334,274.000 322.000 C 275.320 322.666,276.400 323.122,276.400 323.012 C 276.400 322.902,275.320 322.266,274.000 321.600 C 272.680 320.934,271.600 320.478,271.600 320.588 M198.000 321.964 C 198.550 322.414,199.180 322.783,199.400 322.785 C 199.828 322.788,199.105 322.234,197.800 321.560 C 197.269 321.285,197.336 321.421,198.000 321.964 M332.200 323.200 C 332.050 323.673,332.017 324.150,332.127 324.260 C 332.237 324.370,332.450 324.073,332.600 323.600 C 332.750 323.127,332.783 322.650,332.673 322.540 C 332.563 322.430,332.350 322.727,332.200 323.200 M374.658 324.000 C 374.975 325.725,375.202 326.051,375.194 324.767 C 375.191 324.235,375.011 323.530,374.794 323.200 C 374.518 322.778,374.477 323.015,374.658 324.000 M276.854 323.387 C 277.190 323.723,280.000 324.816,280.000 324.611 C 280.000 324.501,279.348 324.138,278.551 323.805 C 277.075 323.189,276.518 323.051,276.854 323.387 M203.200 325.164 C 203.750 325.614,204.380 325.983,204.600 325.985 C 205.028 325.988,204.305 325.434,203.000 324.760 C 202.469 324.485,202.536 324.621,203.200 325.164 M205.969 326.691 C 206.503 327.081,207.853 327.899,208.969 328.509 C 210.086 329.120,210.564 329.300,210.031 328.909 C 209.497 328.519,208.147 327.701,207.031 327.091 C 205.914 326.480,205.436 326.300,205.969 326.691 M375.462 327.400 C 375.596 328.280,375.772 329.075,375.853 329.167 C 376.156 329.510,375.929 327.368,375.581 326.600 C 375.329 326.042,375.293 326.285,375.462 327.400 M328.175 330.100 L 327.000 331.400 328.300 330.225 C 329.015 329.579,329.600 328.994,329.600 328.925 C 329.600 328.616,329.270 328.888,328.175 330.100 M211.600 330.022 C 212.633 330.726,215.200 332.025,215.200 331.842 C 215.200 331.633,211.605 329.597,211.250 329.606 C 211.112 329.609,211.270 329.796,211.600 330.022 M376.262 331.000 C 376.396 331.880,376.572 332.675,376.653 332.767 C 376.956 333.110,376.729 330.968,376.381 330.200 C 376.129 329.642,376.093 329.885,376.262 331.000 M215.600 332.179 C 215.600 332.289,216.140 332.659,216.800 333.000 C 217.460 333.341,218.000 333.531,218.000 333.421 C 218.000 333.311,217.460 332.941,216.800 332.600 C 216.140 332.259,215.600 332.069,215.600 332.179 M301.400 333.200 C 301.840 333.389,302.470 333.544,302.800 333.544 C 303.178 333.544,303.104 333.417,302.600 333.200 C 302.160 333.011,301.530 332.856,301.200 332.856 C 300.822 332.856,300.896 332.983,301.400 333.200 M377.073 334.800 C 377.204 335.790,377.376 336.675,377.456 336.767 C 377.757 337.114,377.528 334.564,377.190 333.800 C 376.953 333.266,376.914 333.598,377.073 334.800 M304.600 333.981 C 305.368 334.329,307.510 334.556,307.167 334.253 C 307.075 334.172,306.280 333.996,305.400 333.862 C 304.285 333.693,304.042 333.729,304.600 333.981 M309.276 334.860 C 309.784 335.003,311.910 335.120,314.000 335.120 C 316.090 335.120,318.216 335.003,318.724 334.860 C 319.232 334.717,317.106 334.600,314.000 334.600 C 310.894 334.600,308.768 334.717,309.276 334.860 M378.093 340.400 C 378.093 341.170,378.175 341.485,378.276 341.100 C 378.376 340.715,378.376 340.085,378.276 339.700 C 378.175 339.315,378.093 339.630,378.093 340.400 M231.400 340.327 C 232.101 341.062,237.600 343.809,237.600 343.423 C 237.600 343.340,236.115 342.515,234.300 341.589 C 232.485 340.664,231.180 340.096,231.400 340.327 M378.681 344.000 C 378.806 345.210,378.974 346.275,379.054 346.367 C 379.335 346.687,379.117 343.791,378.787 342.800 C 378.571 342.154,378.534 342.580,378.681 344.000 M238.800 344.200 C 239.350 344.514,239.980 344.772,240.200 344.772 C 240.420 344.772,240.150 344.514,239.600 344.200 C 239.050 343.886,238.420 343.628,238.200 343.628 C 237.980 343.628,238.250 343.886,238.800 344.200 M246.000 347.600 C 246.770 348.022,247.580 348.366,247.800 348.366 C 248.020 348.366,247.570 348.022,246.800 347.600 C 246.030 347.178,245.220 346.834,245.000 346.834 C 244.780 346.834,245.230 347.178,246.000 347.600 M249.600 349.200 C 250.370 349.622,251.180 349.966,251.400 349.966 C 251.620 349.966,251.170 349.622,250.400 349.200 C 249.630 348.778,248.820 348.434,248.600 348.434 C 248.380 348.434,248.830 348.778,249.600 349.200 M379.623 350.633 C 379.636 351.495,379.803 352.920,379.994 353.800 C 380.252 354.986,380.284 354.624,380.119 352.400 C 379.877 349.147,379.586 348.110,379.623 350.633 M380.435 358.433 C 380.454 359.405,380.620 361.100,380.804 362.200 C 381.049 363.673,381.080 363.252,380.920 360.600 C 380.693 356.824,380.375 355.404,380.435 358.433 M279.546 361.416 C 280.286 361.737,281.096 361.993,281.346 361.984 C 281.596 361.976,281.194 361.706,280.454 361.384 C 279.714 361.063,278.904 360.807,278.654 360.816 C 278.404 360.824,278.806 361.094,279.546 361.416 M283.600 362.866 C 285.138 363.505,286.939 364.006,286.647 363.714 C 286.317 363.383,283.535 362.406,283.000 362.431 C 282.780 362.442,283.050 362.638,283.600 362.866 M381.199 375.681 C 381.090 380.455,381.139 384.222,381.308 384.052 C 381.478 383.882,381.568 379.976,381.508 375.372 L 381.399 367.000 381.199 375.681 M302.400 369.200 C 302.730 369.413,303.270 369.588,303.600 369.588 C 304.133 369.588,304.133 369.545,303.600 369.200 C 303.270 368.987,302.730 368.812,302.400 368.812 C 301.867 368.812,301.867 368.855,302.400 369.200 M310.600 371.600 C 310.736 371.820,311.242 371.987,311.724 371.972 C 312.569 371.945,312.571 371.931,311.800 371.600 C 310.699 371.127,310.308 371.127,310.600 371.600 M319.200 373.982 C 319.530 374.205,320.145 374.391,320.567 374.394 C 321.590 374.402,321.271 374.173,319.800 373.844 C 318.924 373.648,318.762 373.685,319.200 373.982 M322.400 374.782 C 322.730 375.005,323.345 375.191,323.767 375.194 C 324.790 375.202,324.471 374.973,323.000 374.644 C 322.124 374.448,321.962 374.485,322.400 374.782 M325.600 375.582 C 325.930 375.805,326.545 375.991,326.967 375.994 C 327.990 376.002,327.671 375.773,326.200 375.444 C 325.324 375.248,325.162 375.285,325.600 375.582 M328.800 376.394 C 329.130 376.611,329.835 376.791,330.367 376.794 C 331.651 376.802,331.325 376.575,329.600 376.258 C 328.615 376.077,328.378 376.118,328.800 376.394 M340.500 379.076 C 340.885 379.176,341.515 379.176,341.900 379.076 C 342.285 378.975,341.970 378.893,341.200 378.893 C 340.430 378.893,340.115 378.975,340.500 379.076 M348.833 380.549 C 348.925 380.631,349.900 380.801,351.000 380.928 C 352.349 381.084,352.674 381.049,352.000 380.820 C 351.001 380.480,348.518 380.268,348.833 380.549 M353.633 381.349 C 353.725 381.431,354.700 381.601,355.800 381.728 C 357.149 381.884,357.474 381.849,356.800 381.620 C 355.801 381.280,353.318 381.068,353.633 381.349 M358.833 382.146 C 358.925 382.226,359.990 382.394,361.200 382.519 C 362.620 382.666,363.046 382.629,362.400 382.413 C 361.409 382.083,358.513 381.865,358.833 382.146 M365.233 382.950 C 365.325 383.032,366.480 383.200,367.800 383.323 C 369.378 383.470,369.789 383.435,369.000 383.220 C 367.766 382.885,364.936 382.682,365.233 382.950 M374.600 384.023 C 375.480 384.205,376.920 384.340,377.800 384.324 C 379.367 384.294,379.359 384.287,377.400 383.982 C 374.556 383.539,372.412 383.570,374.600 384.023 " stroke="none" fill="#848484" fill-rule="evenodd"></path><path id="path4" d="M21.300 15.896 C 22.565 15.975,24.635 15.975,25.900 15.896 C 27.165 15.816,26.130 15.751,23.600 15.751 C 21.070 15.751,20.035 15.816,21.300 15.896 M131.400 152.000 C 132.259 152.880,133.052 153.600,133.162 153.600 C 133.272 153.600,132.659 152.880,131.800 152.000 C 130.941 151.120,130.148 150.400,130.038 150.400 C 129.928 150.400,130.541 151.120,131.400 152.000 M147.800 168.400 C 148.659 169.280,149.452 170.000,149.562 170.000 C 149.672 170.000,149.059 169.280,148.200 168.400 C 147.341 167.520,146.548 166.800,146.438 166.800 C 146.328 166.800,146.941 167.520,147.800 168.400 M190.307 176.690 C 191.026 176.779,192.106 176.777,192.707 176.686 C 193.308 176.595,192.720 176.522,191.400 176.524 C 190.080 176.526,189.588 176.601,190.307 176.690 M318.509 316.000 C 318.509 316.990,318.587 317.395,318.682 316.900 C 318.778 316.405,318.778 315.595,318.682 315.100 C 318.587 314.605,318.509 315.010,318.509 316.000 " stroke="none" fill="#747474" fill-rule="evenodd"></path></g></svg>